<?xml version="1.0" encoding="utf-8"?>
<!-- Generator: Adobe Illustrator 25.3.1, SVG Export Plug-In . SVG Version: 6.00 Build 0)  -->
<svg version="1.1" id="Layer_1" xmlns="http://www.w3.org/2000/svg" xmlns:xlink="http://www.w3.org/1999/xlink" x="0px" y="0px"
	 viewBox="0 0 1559.06 1077.17" style="enable-background:new 0 0 1559.06 1077.17;" xml:space="preserve">
<style type="text/css">
	.st0{fill:none;stroke:#000000;stroke-width:0.36;stroke-linecap:round;stroke-linejoin:round;stroke-miterlimit:10;}
</style>
<line class="st0" x1="545.63" y1="1065.29" x2="764.33" y2="943.97"/>
<line class="st0" x1="524.93" y1="1028.03" x2="545.63" y2="1065.29"/>
<line class="st0" x1="502.79" y1="1064.39" x2="524.93" y2="1028.03"/>
<line class="st0" x1="409.19" y1="1007.33" x2="502.79" y2="1064.39"/>
<line class="st0" x1="283.37" y1="938.39" x2="409.19" y2="1007.33"/>
<line class="st0" x1="161.15" y1="863.33" x2="283.37" y2="938.39"/>
<line class="st0" x1="36.95" y1="802.67" x2="161.15" y2="863.33"/>
<line class="st0" x1="18.57" y1="795.9" x2="36.95" y2="802.67"/>
<line class="st0" x1="16.27" y1="24.74" x2="18.57" y2="795.9"/>
<line class="st0" x1="1433.04" y1="24.75" x2="16.27" y2="24.74"/>
<line class="st0" x1="1513.67" y1="677.93" x2="1433.04" y2="24.75"/>
<line class="st0" x1="1531.85" y1="716.27" x2="1513.67" y2="677.93"/>
<line class="st0" x1="1282.19" y1="835.25" x2="1531.85" y2="716.27"/>
<line class="st0" x1="1012.01" y1="900.23" x2="1282.19" y2="835.25"/>
<line class="st0" x1="764.33" y1="943.97" x2="1012.01" y2="900.23"/>
</svg>
