<?xml version="1.0" encoding="utf-8"?>
<!-- Generator: Adobe Illustrator 25.4.1, SVG Export Plug-In . SVG Version: 6.00 Build 0)  -->
<svg version="1.1" id="Layer_1" xmlns="http://www.w3.org/2000/svg" xmlns:xlink="http://www.w3.org/1999/xlink" x="0px" y="0px"
	 viewBox="0 0 612 792" style="enable-background:new 0 0 612 792;" xml:space="preserve">
<style type="text/css">
	.st0{fill:none;stroke:#000000;stroke-width:0.7087;stroke-linecap:round;stroke-linejoin:round;stroke-miterlimit:10;}
</style>
<g>
	<g id="LINE_00000093176369457814989450000012819468730340218778_">
		<line class="st0" x1="224.9" y1="533.36" x2="224.9" y2="51.54"/>
	</g>
	<g id="LWPOLYLINE_00000010303506328134299440000008744764426246041782_">
		<polygon class="st0" points="169.26,244.27 224.9,147.9 280.54,244.27 		"/>
	</g>
	<g id="LINE_00000023983910799154204790000003889293189435348355_">
		<line class="st0" x1="2.35" y1="340.63" x2="419.63" y2="99.72"/>
	</g>
	<g id="LINE_00000148627278428656777370000003834240761298456994_">
		<line class="st0" x1="530.9" y1="388.81" x2="113.63" y2="147.9"/>
	</g>
	<g id="LWPOLYLINE_00000026133752528032634180000006611266003657560963_">
		<polygon class="st0" points="169.26,340.63 224.9,244.27 280.54,340.63 		"/>
	</g>
	<g id="LWPOLYLINE_00000052810224054848651600000009585587303815174532_">
		<polygon class="st0" points="252.72,292.45 308.35,196.08 363.99,292.45 		"/>
	</g>
	<g id="LWPOLYLINE_00000070809196707310373380000015357047353846975660_">
		<polygon class="st0" points="363.99,196.08 252.72,196.08 308.35,99.72 		"/>
	</g>
	<g id="LINE_00000055668177645578103670000002244856301365227682_">
		<line class="st0" x1="224.9" y1="244.27" x2="266.63" y2="268.36"/>
	</g>
	<g id="LINE_00000045614381859935074040000006641717762819978646_">
		<line class="st0" x1="252.72" y1="292.45" x2="252.72" y2="244.34"/>
	</g>
	<g id="LWPOLYLINE_00000101072074467197073980000012976956866510579116_">
		<polygon class="st0" points="141.45,196.08 197.08,292.45 85.81,292.45 		"/>
	</g>
	<g id="LWPOLYLINE_00000103953355947064070460000014884775444743237010_">
		<polygon class="st0" points="252.72,388.81 308.35,292.45 363.99,388.81 		"/>
	</g>
	<g id="LWPOLYLINE_00000021802823550550169230000014977465646971864475_">
		<polygon class="st0" points="447.45,244.27 336.17,244.27 391.81,147.9 		"/>
	</g>
	<g id="LINE_00000088829109198603172780000009385089129213064596_">
		<line class="st0" x1="280.54" y1="147.9" x2="275.34" y2="144.9"/>
	</g>
	<g id="LWPOLYLINE_00000014600938940730639460000012743887032527135636_">
		<polygon class="st0" points="363.99,99.72 252.72,99.72 308.35,3.35 		"/>
	</g>
	<g id="LINE_00000150787650244754146380000004372406542492634538_">
		<line class="st0" x1="224.9" y1="51.54" x2="280.54" y2="147.9"/>
	</g>
	<g id="LINE_00000067940633578505353180000017092657667998436282_">
		<line class="st0" x1="169.26" y1="147.9" x2="224.9" y2="51.54"/>
	</g>
	<g id="LINE_00000101794253489304411970000011652329356074378409_">
		<line class="st0" x1="280.54" y1="147.9" x2="169.26" y2="147.9"/>
	</g>
	<g id="LWPOLYLINE_00000026879586973482309720000005135005205049449648_">
		<polygon class="st0" points="141.45,3.35 197.08,99.72 85.81,99.72 		"/>
	</g>
	<g id="LWPOLYLINE_00000083783016654724409320000011934094007686065815_">
		<polygon class="st0" points="308.35,99.72 363.99,196.08 252.72,196.08 		"/>
	</g>
	<g id="LWPOLYLINE_00000083795012501924843450000004071741185854231475_">
		<polygon class="st0" points="57.99,147.9 113.63,244.27 2.35,244.27 		"/>
	</g>
	<g id="LINE_00000123417522702012456340000004887883014590803609_">
		<line class="st0" x1="85.81" y1="292.45" x2="141.45" y2="196.08"/>
	</g>
	<g id="LINE_00000068652935405990117310000011361110523464858528_">
		<line class="st0" x1="197.08" y1="292.45" x2="85.81" y2="292.45"/>
	</g>
	<g id="LINE_00000144295959056757448660000006005780238594661783_">
		<line class="st0" x1="141.45" y1="196.08" x2="197.08" y2="292.45"/>
	</g>
	<g id="LWPOLYLINE_00000152243117152064673880000010865627298574897582_">
		<polygon class="st0" points="85.81,388.81 141.45,292.45 197.08,388.81 		"/>
	</g>
	<g id="LWPOLYLINE_00000080919286047262192180000007969268735347670696_">
		<polygon class="st0" points="85.81,196.08 141.45,99.72 197.08,196.08 		"/>
	</g>
	<g id="LINE_00000064330758192049241270000001121304836409070767_">
		<line class="st0" x1="252.72" y1="292.45" x2="294.45" y2="316.54"/>
	</g>
	<g id="LINE_00000081624818544938719800000003857269513315062462_">
		<line class="st0" x1="280.54" y1="340.63" x2="280.54" y2="292.45"/>
	</g>
	<g id="LWPOLYLINE_00000080195279087794010830000004286033505147421869_">
		<polygon class="st0" points="308.35,485.18 363.99,581.54 252.72,581.54 		"/>
	</g>
	<g id="LWPOLYLINE_00000101823051581915921800000015456298241668937638_">
		<polygon class="st0" points="224.9,437 280.54,533.36 169.26,533.36 		"/>
	</g>
	<g id="LWPOLYLINE_00000125563056013322555410000006722776806892931225_">
		<polygon class="st0" points="141.45,485.18 197.08,581.54 85.81,581.54 		"/>
	</g>
	<g id="LWPOLYLINE_00000037666689972501825490000016046518284912815516_">
		<polygon class="st0" points="447.45,437 336.17,437 391.81,340.63 		"/>
	</g>
	<g id="LWPOLYLINE_00000111874821336276153470000017770488837407097753_">
		<polygon class="st0" points="363.99,388.81 252.72,388.81 308.35,292.45 		"/>
	</g>
	<g id="LINE_00000089559280630160363930000003083535745546029992_">
		<line class="st0" x1="197.08" y1="485.18" x2="85.81" y2="485.18"/>
	</g>
	<g id="LINE_00000183210214036875709950000008460143337293767083_">
		<line class="st0" x1="85.81" y1="485.18" x2="141.45" y2="388.81"/>
	</g>
	<g id="LINE_00000121244013349380010560000016753656723529838515_">
		<line class="st0" x1="141.45" y1="388.81" x2="197.08" y2="485.18"/>
	</g>
	<g id="LWPOLYLINE_00000005985037479250190220000007728558710753031592_">
		<polygon class="st0" points="57.99,340.63 113.63,437 2.35,437 		"/>
	</g>
	<g id="LWPOLYLINE_00000061435234572063781720000008675127504920875147_">
		<polygon class="st0" points="419.63,196.08 475.26,99.72 530.9,196.08 		"/>
	</g>
	<g id="LWPOLYLINE_00000075156768729969176900000014569737191894706600_">
		<polygon class="st0" points="419.63,292.45 475.26,196.08 530.9,292.45 		"/>
	</g>
	<g id="LWPOLYLINE_00000051353582428901979560000006463704633092264122_">
		<polygon class="st0" points="503.08,340.63 558.72,244.27 614.35,340.63 		"/>
	</g>
	<g id="LWPOLYLINE_00000098193534731178611060000012428874294369708958_">
		<polygon class="st0" points="308.35,99.72 363.99,196.08 252.72,196.08 		"/>
	</g>
	<g id="LWPOLYLINE_00000008116740400545208270000013796756406244535434_">
		<polygon class="st0" points="308.35,196.08 363.99,292.45 252.72,292.45 		"/>
	</g>
	<g id="LINE_00000052787807517948963330000009475092217309505952_">
		<line class="st0" x1="475.26" y1="292.45" x2="530.9" y2="388.81"/>
	</g>
	<g id="LINE_00000169555219846033804970000010038612788907442590_">
		<line class="st0" x1="530.9" y1="388.81" x2="419.63" y2="388.81"/>
	</g>
	<g id="LINE_00000132050866698448667310000005119915177801491840_">
		<line class="st0" x1="419.63" y1="388.81" x2="475.26" y2="292.45"/>
	</g>
	<g id="LWPOLYLINE_00000078002778690013537000000009710242186179737519_">
		<polygon class="st0" points="419.63,485.18 475.26,388.81 530.9,485.18 		"/>
	</g>
	<g id="LWPOLYLINE_00000025422122648773713070000008938146123320897470_">
		<polygon class="st0" points="336.17,340.63 391.81,244.27 447.45,340.63 		"/>
	</g>
	<g id="LWPOLYLINE_00000039820452695124941520000007334526178561652885_">
		<polygon class="st0" points="169.26,437 224.9,340.63 280.54,437 		"/>
	</g>
	<g id="LWPOLYLINE_00000183963942366223769820000013455920508099387046_">
		<polygon class="st0" points="252.72,485.18 308.35,388.81 363.99,485.18 		"/>
	</g>
	<g id="LWPOLYLINE_00000139973371246010348670000001363807652212726679_">
		<polygon class="st0" points="336.17,533.36 391.81,437 447.45,533.36 		"/>
	</g>
	<g id="LWPOLYLINE_00000155108498739368362330000011472574973063306661_">
		<polygon class="st0" points="113.63,340.63 57.99,244.27 2.35,340.63 		"/>
	</g>
	<g id="LWPOLYLINE_00000018949887833763278070000007959331178517581971_">
		<polygon class="st0" points="447.45,147.9 336.17,147.9 391.81,51.54 		"/>
	</g>
	<g id="LINE_00000094607741414460087230000007960769039606163644_">
		<line class="st0" x1="141.45" y1="3.35" x2="141.45" y2="581.54"/>
	</g>
	<g id="LINE_00000054973416385525725850000010585815596747609229_">
		<line class="st0" x1="308.35" y1="3.35" x2="308.35" y2="581.54"/>
	</g>
	<g id="LINE_00000012437780966384646340000004101602660383386521_">
		<line class="st0" x1="391.81" y1="51.54" x2="391.81" y2="533.36"/>
	</g>
	<g id="LINE_00000058590467113926641920000017103950000698331292_">
		<line class="st0" x1="475.26" y1="99.72" x2="475.26" y2="485.18"/>
	</g>
	<g id="LINE_00000101781983952448368220000010260706274245830330_">
		<line class="st0" x1="85.81" y1="99.72" x2="169.26" y2="51.54"/>
	</g>
	<g id="LINE_00000000206661878917405990000009753839077344767631_">
		<line class="st0" x1="2.35" y1="244.27" x2="336.17" y2="51.54"/>
	</g>
	<g id="LINE_00000024691592405242533210000001882060868038204332_">
		<line class="st0" x1="2.35" y1="437" x2="503.08" y2="147.9"/>
	</g>
	<g id="LINE_00000042008285685722973910000014283773999929769406_">
		<line class="st0" x1="85.81" y1="581.54" x2="586.54" y2="292.45"/>
	</g>
	<g id="LINE_00000082330123569123374980000003484030430239979948_">
		<line class="st0" x1="85.81" y1="485.18" x2="503.08" y2="244.27"/>
	</g>
	<g id="LINE_00000014603890932728643000000003911997591383153794_">
		<line class="st0" x1="113.63" y1="51.54" x2="614.35" y2="340.63"/>
	</g>
	<g id="LINE_00000140003964865617933660000000879615888270834817_">
		<line class="st0" x1="30.17" y1="196.08" x2="530.9" y2="485.18"/>
	</g>
	<g id="LINE_00000118377440824623019860000005921414785270842532_">
		<line class="st0" x1="30.17" y1="292.45" x2="447.45" y2="533.36"/>
	</g>
	<g id="LINE_00000085929082559825030710000002722477533653594045_">
		<line class="st0" x1="30.17" y1="388.81" x2="363.99" y2="581.54"/>
	</g>
	<g id="LINE_00000046325492792669939560000005582752139311897256_">
		<line class="st0" x1="113.63" y1="533.36" x2="197.08" y2="581.54"/>
	</g>
</g>
</svg>
