<?xml version="1.0" encoding="utf-8"?>
<!-- Generator: Adobe Illustrator 25.3.1, SVG Export Plug-In . SVG Version: 6.00 Build 0)  -->
<svg version="1.1" xmlns="http://www.w3.org/2000/svg" xmlns:xlink="http://www.w3.org/1999/xlink" x="0px" y="0px"
	 viewBox="0 0 1559.06 1077.17" style="enable-background:new 0 0 1559.06 1077.17;" xml:space="preserve">
<style type="text/css">
	.st0{fill:none;stroke:#FF0000;stroke-linecap:round;stroke-linejoin:round;stroke-miterlimit:10;}
</style>
<g id="Layer_1">
</g>
<g id="Layer_02">
</g>
<g id="Layer_4">
	<polyline class="st0" points="754.33,1048.1 359.9,259.24 22.1,428.85 331.73,1048.1 	"/>
	<polyline class="st0" points="895.2,1048.1 500.77,259.24 49.99,484.63 	"/>
	<line class="st0" x1="444.7" y1="287.98" x2="810.85" y2="1020.26"/>
	<line class="st0" x1="585.85" y1="288.54" x2="951.54" y2="1019.93"/>
	<polyline class="st0" points="1036.63,1049.23 642.2,260.37 22.1,569.71 247.49,1020.49 	"/>
	<line class="st0" x1="726.44" y1="287.98" x2="1092.41" y2="1019.93"/>
	<polyline class="st0" points="1149.08,991.6 782.5,258.45 49.71,625.78 	"/>
	<line class="st0" x1="867.31" y1="287.19" x2="1205.42" y2="963.42"/>
	<polyline class="st0" points="1205.42,822.55 923.37,258.45 22.1,710.58 191.14,1048.66 	"/>
	<line class="st0" x1="1008.17" y1="287.19" x2="1205.42" y2="681.69"/>
	<polyline class="st0" points="1205.42,540.82 1064.24,258.45 49.71,767.16 	"/>
	<polyline class="st0" points="1205.42,399.95 1177.31,343.72 1148.76,286.62 22.1,851.45 106.32,1019.88 	"/>
	<line class="st0" x1="303.55" y1="287.42" x2="669.81" y2="1019.93"/>
	<polyline class="st0" points="613.46,1048.1 219.03,259.24 49.71,343.2 	"/>
	<polyline class="st0" points="388.08,1019.93 23.46,290.69 78.17,259.24 472.6,1048.1 	"/>
	<path class="st0" d="M449.29,1111.15"/>
	<line class="st0" x1="22.1" y1="992.32" x2="49.94" y2="1047.99"/>
	<line class="st0" x1="528.94" y1="1019.93" x2="162.97" y2="287.98"/>
	<line class="st0" x1="1177.31" y1="343.72" x2="49.71" y2="907.51"/>
	<line class="st0" x1="1206.04" y1="399.78" x2="22.1" y2="992.32"/>
	<line class="st0" x1="1175.72" y1="485.38" x2="48.13" y2="1049.17"/>
	<path class="st0" d="M81.39,1111.77"/>
	<line class="st0" x1="1203.33" y1="542.01" x2="190.92" y2="1048.21"/>
	<line class="st0" x1="1175.72" y1="626.24" x2="331.78" y2="1048.21"/>
	<line class="st0" x1="1203.33" y1="682.87" x2="472.65" y2="1048.21"/>
	<line class="st0" x1="1175.72" y1="767.11" x2="613.52" y2="1048.21"/>
	<line class="st0" x1="1203.33" y1="823.74" x2="754.39" y2="1048.21"/>
	<line class="st0" x1="1178.43" y1="906.62" x2="895.25" y2="1048.21"/>
	<line class="st0" x1="1203.33" y1="964.61" x2="1036.12" y2="1048.21"/>
	<line class="st0" x1="49.71" y1="343.2" x2="219.03" y2="400.11"/>
	<line class="st0" x1="106.34" y1="457.13" x2="162.22" y2="287.42"/>
	<line class="st0" x1="191" y1="343.88" x2="360.32" y2="400.79"/>
	<line class="st0" x1="247.63" y1="457.81" x2="303.5" y2="288.09"/>
	<line class="st0" x1="190.91" y1="484.8" x2="360.23" y2="541.71"/>
	<line class="st0" x1="247.53" y1="598.74" x2="303.41" y2="429.02"/>
	<line class="st0" x1="50.13" y1="484.86" x2="219.46" y2="541.77"/>
	<line class="st0" x1="106.76" y1="598.79" x2="162.64" y2="429.07"/>
	<line class="st0" x1="49.62" y1="624.37" x2="218.95" y2="681.28"/>
	<line class="st0" x1="106.25" y1="738.31" x2="162.13" y2="568.59"/>
	<line class="st0" x1="190.91" y1="625.05" x2="360.23" y2="681.96"/>
	<line class="st0" x1="247.54" y1="738.99" x2="303.42" y2="569.27"/>
	<line class="st0" x1="190.82" y1="765.98" x2="360.14" y2="822.89"/>
	<line class="st0" x1="247.45" y1="879.91" x2="303.32" y2="710.19"/>
	<line class="st0" x1="50.04" y1="766.03" x2="219.37" y2="822.94"/>
	<line class="st0" x1="106.67" y1="879.96" x2="162.55" y2="710.25"/>
	<line class="st0" x1="49.91" y1="907.36" x2="219.24" y2="964.27"/>
	<line class="st0" x1="106.54" y1="1021.3" x2="162.42" y2="851.58"/>
	<line class="st0" x1="191.2" y1="908.04" x2="360.53" y2="964.95"/>
	<line class="st0" x1="247.83" y1="1021.98" x2="303.71" y2="852.26"/>
	<line class="st0" x1="330.87" y1="342.1" x2="500.19" y2="399.01"/>
	<line class="st0" x1="387.5" y1="456.03" x2="443.37" y2="286.31"/>
	<line class="st0" x1="472.16" y1="342.78" x2="641.48" y2="399.69"/>
	<line class="st0" x1="528.79" y1="456.71" x2="584.66" y2="286.99"/>
	<line class="st0" x1="472.06" y1="483.7" x2="641.39" y2="540.61"/>
	<line class="st0" x1="528.69" y1="597.63" x2="584.57" y2="427.92"/>
	<line class="st0" x1="331.29" y1="483.75" x2="500.61" y2="540.66"/>
	<line class="st0" x1="387.92" y1="597.69" x2="443.8" y2="427.97"/>
	<line class="st0" x1="331.87" y1="625.67" x2="501.19" y2="682.58"/>
	<line class="st0" x1="388.75" y1="737.38" x2="444.62" y2="567.66"/>
	<line class="st0" x1="472.74" y1="625.22" x2="642.06" y2="682.13"/>
	<line class="st0" x1="529.46" y1="738.53" x2="585.33" y2="568.81"/>
	<line class="st0" x1="471.98" y1="764.87" x2="641.3" y2="821.78"/>
	<line class="st0" x1="528.6" y1="878.81" x2="584.48" y2="709.09"/>
	<line class="st0" x1="331.2" y1="764.93" x2="500.53" y2="821.84"/>
	<line class="st0" x1="387.83" y1="878.86" x2="443.71" y2="709.14"/>
	<line class="st0" x1="331.07" y1="906.26" x2="500.39" y2="963.17"/>
	<line class="st0" x1="387.7" y1="1020.2" x2="443.58" y2="850.48"/>
	<line class="st0" x1="472.36" y1="906.94" x2="641.68" y2="963.85"/>
	<line class="st0" x1="528.99" y1="1020.87" x2="584.87" y2="851.15"/>
	<line class="st0" x1="613.35" y1="342.86" x2="782.67" y2="399.77"/>
	<line class="st0" x1="669.98" y1="456.79" x2="725.85" y2="287.07"/>
	<line class="st0" x1="754.64" y1="343.53" x2="923.96" y2="400.44"/>
	<line class="st0" x1="811.27" y1="457.47" x2="867.14" y2="287.75"/>
	<line class="st0" x1="754.54" y1="484.46" x2="923.87" y2="541.37"/>
	<line class="st0" x1="811.17" y1="598.39" x2="867.05" y2="428.67"/>
	<line class="st0" x1="613.77" y1="484.51" x2="783.09" y2="541.42"/>
	<line class="st0" x1="670.4" y1="598.45" x2="726.27" y2="428.73"/>
	<line class="st0" x1="613.68" y1="624.94" x2="783" y2="681.85"/>
	<line class="st0" x1="669.89" y1="737.96" x2="725.76" y2="568.24"/>
	<line class="st0" x1="754.55" y1="624.71" x2="923.87" y2="681.62"/>
	<line class="st0" x1="811.18" y1="738.64" x2="867.05" y2="568.92"/>
	<line class="st0" x1="754.45" y1="765.63" x2="923.78" y2="822.54"/>
	<line class="st0" x1="811.08" y1="879.57" x2="866.96" y2="709.85"/>
	<line class="st0" x1="613.68" y1="765.68" x2="783" y2="822.59"/>
	<line class="st0" x1="670.31" y1="879.62" x2="726.18" y2="709.9"/>
	<line class="st0" x1="613.55" y1="907.02" x2="782.87" y2="963.93"/>
	<line class="st0" x1="670.18" y1="1020.95" x2="726.05" y2="851.23"/>
	<line class="st0" x1="754.84" y1="907.7" x2="924.16" y2="964.61"/>
	<line class="st0" x1="811.47" y1="1021.63" x2="867.34" y2="851.91"/>
	<line class="st0" x1="894.58" y1="343.53" x2="1063.9" y2="400.44"/>
	<line class="st0" x1="952.06" y1="457.19" x2="1007.94" y2="287.47"/>
	<line class="st0" x1="1035.53" y1="343.76" x2="1204.85" y2="400.67"/>
	<line class="st0" x1="1092.93" y1="456" x2="1148.8" y2="286.29"/>
	<line class="st0" x1="1037.56" y1="484.91" x2="1206.88" y2="541.82"/>
	<line class="st0" x1="1092.68" y1="597.73" x2="1148.56" y2="428.01"/>
	<line class="st0" x1="896.01" y1="484.57" x2="1065.33" y2="541.48"/>
	<line class="st0" x1="952.06" y1="598.39" x2="1007.94" y2="428.67"/>
	<line class="st0" x1="895.29" y1="625.24" x2="1064.62" y2="682.15"/>
	<line class="st0" x1="952.34" y1="738.93" x2="1008.22" y2="569.21"/>
	<line class="st0" x1="1037.05" y1="625.78" x2="1206.37" y2="682.69"/>
	<line class="st0" x1="1092.77" y1="738.41" x2="1148.65" y2="568.69"/>
	<line class="st0" x1="1037.56" y1="767.21" x2="1206.88" y2="824.12"/>
	<line class="st0" x1="1093.21" y1="879.68" x2="1149.09" y2="709.96"/>
	<line class="st0" x1="894.66" y1="766.48" x2="1063.98" y2="823.39"/>
	<line class="st0" x1="951.73" y1="879.71" x2="1007.61" y2="709.99"/>
	<line class="st0" x1="895.62" y1="907.41" x2="1064.94" y2="964.32"/>
	<line class="st0" x1="952.25" y1="1021.34" x2="1008.12" y2="851.62"/>
	<line class="st0" x1="1036.39" y1="907.13" x2="1205.71" y2="964.04"/>
	<line class="st0" x1="1092.37" y1="1019.88" x2="1148.25" y2="850.16"/>
</g>
</svg>
