G04 EAGLE Gerber RS-274X export*
G75*
%MOMM*%
%FSLAX34Y34*%
%LPD*%
%INBottom Copper*%
%IPPOS*%
%AMOC8*
5,1,8,0,0,1.08239X$1,22.5*%
G01*
%ADD10R,1.308000X1.308000*%
%ADD11C,1.257300*%

G36*
X362986Y4333D02*
X362986Y4333D01*
X363077Y4341D01*
X363107Y4353D01*
X363139Y4358D01*
X363219Y4401D01*
X363303Y4437D01*
X363335Y4463D01*
X363356Y4474D01*
X363378Y4497D01*
X363434Y4542D01*
X415458Y56566D01*
X415511Y56640D01*
X415571Y56709D01*
X415583Y56739D01*
X415602Y56766D01*
X415629Y56853D01*
X415663Y56937D01*
X415667Y56978D01*
X415674Y57001D01*
X415673Y57033D01*
X415681Y57104D01*
X415681Y362896D01*
X415680Y362904D01*
X415680Y362907D01*
X415677Y362922D01*
X415667Y362986D01*
X415659Y363077D01*
X415647Y363107D01*
X415642Y363139D01*
X415599Y363219D01*
X415563Y363303D01*
X415537Y363335D01*
X415526Y363356D01*
X415503Y363378D01*
X415458Y363434D01*
X363434Y415458D01*
X363360Y415511D01*
X363291Y415571D01*
X363261Y415583D01*
X363234Y415602D01*
X363147Y415629D01*
X363063Y415663D01*
X363022Y415667D01*
X362999Y415674D01*
X362967Y415673D01*
X362896Y415681D01*
X42104Y415681D01*
X42014Y415667D01*
X41923Y415659D01*
X41893Y415647D01*
X41861Y415642D01*
X41781Y415599D01*
X41697Y415563D01*
X41665Y415537D01*
X41644Y415526D01*
X41622Y415503D01*
X41566Y415458D01*
X4542Y378434D01*
X4489Y378360D01*
X4429Y378291D01*
X4417Y378261D01*
X4398Y378234D01*
X4371Y378147D01*
X4337Y378063D01*
X4333Y378022D01*
X4326Y377999D01*
X4327Y377967D01*
X4319Y377896D01*
X4319Y57104D01*
X4333Y57014D01*
X4341Y56923D01*
X4353Y56893D01*
X4358Y56861D01*
X4401Y56781D01*
X4437Y56697D01*
X4463Y56665D01*
X4474Y56644D01*
X4497Y56622D01*
X4542Y56566D01*
X56566Y4542D01*
X56640Y4489D01*
X56709Y4429D01*
X56739Y4417D01*
X56766Y4398D01*
X56853Y4371D01*
X56937Y4337D01*
X56978Y4333D01*
X57001Y4326D01*
X57033Y4327D01*
X57104Y4319D01*
X362896Y4319D01*
X362986Y4333D01*
G37*
%LPC*%
G36*
X50909Y344431D02*
X50909Y344431D01*
X43349Y347563D01*
X37563Y353349D01*
X34431Y360909D01*
X34431Y369091D01*
X37563Y376651D01*
X43349Y382437D01*
X50909Y385569D01*
X59091Y385569D01*
X66651Y382437D01*
X72437Y376651D01*
X75569Y369091D01*
X75569Y360909D01*
X72437Y353349D01*
X66651Y347563D01*
X59091Y344431D01*
X50909Y344431D01*
G37*
%LPD*%
%LPC*%
G36*
X360909Y34431D02*
X360909Y34431D01*
X353349Y37563D01*
X347563Y43349D01*
X344431Y50909D01*
X344431Y59091D01*
X347563Y66651D01*
X353349Y72437D01*
X360909Y75569D01*
X369091Y75569D01*
X376651Y72437D01*
X382437Y66651D01*
X385569Y59091D01*
X385569Y50909D01*
X382437Y43349D01*
X376651Y37563D01*
X369091Y34431D01*
X360909Y34431D01*
G37*
%LPD*%
D10*
X80000Y230000D03*
X80000Y250000D03*
X150000Y340000D03*
X150000Y360000D03*
D11*
X352000Y345000D03*
X147904Y148904D03*
X188000Y405000D03*
X104000Y279000D03*
X74000Y137000D03*
X144904Y79904D03*
X249000Y344000D03*
X334000Y272000D03*
X315000Y25000D03*
X30000Y119000D03*
X384000Y250000D03*
X340000Y167000D03*
X260000Y161000D03*
M02*
