G04 EAGLE Gerber RS-274X export*
G75*
%MOMM*%
%FSLAX34Y34*%
%LPD*%
%IN*%
%IPPOS*%
%AMOC8*
5,1,8,0,0,1.08239X$1,22.5*%
G01*
%ADD10C,0.254000*%


D10*
X0Y55000D02*
X55000Y0D01*
X365000Y0D01*
X420000Y55000D01*
X420000Y365000D01*
X365000Y420000D01*
X40000Y420000D01*
X0Y380000D01*
X0Y55000D01*
X381250Y54468D02*
X381180Y53406D01*
X381042Y52352D01*
X380834Y51308D01*
X380559Y50280D01*
X380217Y49273D01*
X379809Y48290D01*
X379339Y47336D01*
X378807Y46414D01*
X378216Y45530D01*
X377568Y44686D01*
X376867Y43886D01*
X376114Y43133D01*
X375314Y42432D01*
X374470Y41784D01*
X373586Y41193D01*
X372664Y40661D01*
X371710Y40191D01*
X370727Y39783D01*
X369720Y39441D01*
X368692Y39166D01*
X367648Y38958D01*
X366594Y38820D01*
X365532Y38750D01*
X364468Y38750D01*
X363406Y38820D01*
X362352Y38958D01*
X361308Y39166D01*
X360280Y39441D01*
X359273Y39783D01*
X358290Y40191D01*
X357336Y40661D01*
X356414Y41193D01*
X355530Y41784D01*
X354686Y42432D01*
X353886Y43133D01*
X353133Y43886D01*
X352432Y44686D01*
X351784Y45530D01*
X351193Y46414D01*
X350661Y47336D01*
X350191Y48290D01*
X349783Y49273D01*
X349441Y50280D01*
X349166Y51308D01*
X348958Y52352D01*
X348820Y53406D01*
X348750Y54468D01*
X348750Y55532D01*
X348820Y56594D01*
X348958Y57648D01*
X349166Y58692D01*
X349441Y59720D01*
X349783Y60727D01*
X350191Y61710D01*
X350661Y62664D01*
X351193Y63586D01*
X351784Y64470D01*
X352432Y65314D01*
X353133Y66114D01*
X353886Y66867D01*
X354686Y67568D01*
X355530Y68216D01*
X356414Y68807D01*
X357336Y69339D01*
X358290Y69809D01*
X359273Y70217D01*
X360280Y70559D01*
X361308Y70834D01*
X362352Y71042D01*
X363406Y71180D01*
X364468Y71250D01*
X365532Y71250D01*
X366594Y71180D01*
X367648Y71042D01*
X368692Y70834D01*
X369720Y70559D01*
X370727Y70217D01*
X371710Y69809D01*
X372664Y69339D01*
X373586Y68807D01*
X374470Y68216D01*
X375314Y67568D01*
X376114Y66867D01*
X376867Y66114D01*
X377568Y65314D01*
X378216Y64470D01*
X378807Y63586D01*
X379339Y62664D01*
X379809Y61710D01*
X380217Y60727D01*
X380559Y59720D01*
X380834Y58692D01*
X381042Y57648D01*
X381180Y56594D01*
X381250Y55532D01*
X381250Y54468D01*
X71250Y364468D02*
X71180Y363406D01*
X71042Y362352D01*
X70834Y361308D01*
X70559Y360280D01*
X70217Y359273D01*
X69809Y358290D01*
X69339Y357336D01*
X68807Y356414D01*
X68216Y355530D01*
X67568Y354686D01*
X66867Y353886D01*
X66114Y353133D01*
X65314Y352432D01*
X64470Y351784D01*
X63586Y351193D01*
X62664Y350661D01*
X61710Y350191D01*
X60727Y349783D01*
X59720Y349441D01*
X58692Y349166D01*
X57648Y348958D01*
X56594Y348820D01*
X55532Y348750D01*
X54468Y348750D01*
X53406Y348820D01*
X52352Y348958D01*
X51308Y349166D01*
X50280Y349441D01*
X49273Y349783D01*
X48290Y350191D01*
X47336Y350661D01*
X46414Y351193D01*
X45530Y351784D01*
X44686Y352432D01*
X43886Y353133D01*
X43133Y353886D01*
X42432Y354686D01*
X41784Y355530D01*
X41193Y356414D01*
X40661Y357336D01*
X40191Y358290D01*
X39783Y359273D01*
X39441Y360280D01*
X39166Y361308D01*
X38958Y362352D01*
X38820Y363406D01*
X38750Y364468D01*
X38750Y365532D01*
X38820Y366594D01*
X38958Y367648D01*
X39166Y368692D01*
X39441Y369720D01*
X39783Y370727D01*
X40191Y371710D01*
X40661Y372664D01*
X41193Y373586D01*
X41784Y374470D01*
X42432Y375314D01*
X43133Y376114D01*
X43886Y376867D01*
X44686Y377568D01*
X45530Y378216D01*
X46414Y378807D01*
X47336Y379339D01*
X48290Y379809D01*
X49273Y380217D01*
X50280Y380559D01*
X51308Y380834D01*
X52352Y381042D01*
X53406Y381180D01*
X54468Y381250D01*
X55532Y381250D01*
X56594Y381180D01*
X57648Y381042D01*
X58692Y380834D01*
X59720Y380559D01*
X60727Y380217D01*
X61710Y379809D01*
X62664Y379339D01*
X63586Y378807D01*
X64470Y378216D01*
X65314Y377568D01*
X66114Y376867D01*
X66867Y376114D01*
X67568Y375314D01*
X68216Y374470D01*
X68807Y373586D01*
X69339Y372664D01*
X69809Y371710D01*
X70217Y370727D01*
X70559Y369720D01*
X70834Y368692D01*
X71042Y367648D01*
X71180Y366594D01*
X71250Y365532D01*
X71250Y364468D01*
M02*
