G04 EAGLE Gerber RS-274X export*
G75*
%MOMM*%
%FSLAX34Y34*%
%LPD*%
%INSilkscreen Bottom*%
%IPPOS*%
%AMOC8*
5,1,8,0,0,1.08239X$1,22.5*%
G01*
%ADD10C,0.076200*%
%ADD11C,0.203200*%


D10*
X322369Y45301D02*
X322369Y53133D01*
X322367Y53210D01*
X322361Y53286D01*
X322352Y53363D01*
X322339Y53439D01*
X322322Y53514D01*
X322302Y53588D01*
X322277Y53661D01*
X322250Y53732D01*
X322219Y53803D01*
X322184Y53871D01*
X322146Y53938D01*
X322105Y54003D01*
X322061Y54066D01*
X322014Y54126D01*
X321963Y54185D01*
X321910Y54240D01*
X321855Y54293D01*
X321796Y54344D01*
X321736Y54391D01*
X321673Y54435D01*
X321608Y54476D01*
X321541Y54514D01*
X321473Y54549D01*
X321402Y54580D01*
X321331Y54607D01*
X321258Y54632D01*
X321184Y54652D01*
X321109Y54669D01*
X321033Y54682D01*
X320956Y54691D01*
X320880Y54697D01*
X320803Y54699D01*
X320281Y54699D01*
X320281Y51566D02*
X323414Y51566D01*
X315911Y48956D02*
X313561Y48956D01*
X315911Y48955D02*
X315995Y48953D01*
X316080Y48947D01*
X316163Y48937D01*
X316247Y48924D01*
X316329Y48906D01*
X316411Y48885D01*
X316492Y48860D01*
X316571Y48832D01*
X316649Y48799D01*
X316725Y48763D01*
X316800Y48724D01*
X316873Y48681D01*
X316944Y48635D01*
X317012Y48586D01*
X317078Y48534D01*
X317142Y48478D01*
X317203Y48420D01*
X317261Y48359D01*
X317317Y48295D01*
X317369Y48229D01*
X317418Y48161D01*
X317464Y48090D01*
X317507Y48017D01*
X317546Y47942D01*
X317582Y47866D01*
X317615Y47788D01*
X317643Y47709D01*
X317668Y47628D01*
X317689Y47546D01*
X317707Y47464D01*
X317720Y47380D01*
X317730Y47297D01*
X317736Y47212D01*
X317738Y47128D01*
X317736Y47044D01*
X317730Y46959D01*
X317720Y46876D01*
X317707Y46792D01*
X317689Y46710D01*
X317668Y46628D01*
X317643Y46547D01*
X317615Y46468D01*
X317582Y46390D01*
X317546Y46314D01*
X317507Y46239D01*
X317464Y46166D01*
X317418Y46095D01*
X317369Y46027D01*
X317317Y45961D01*
X317261Y45897D01*
X317203Y45836D01*
X317142Y45778D01*
X317078Y45722D01*
X317012Y45670D01*
X316944Y45621D01*
X316873Y45575D01*
X316800Y45532D01*
X316725Y45493D01*
X316649Y45457D01*
X316571Y45424D01*
X316492Y45396D01*
X316411Y45371D01*
X316329Y45350D01*
X316247Y45332D01*
X316163Y45319D01*
X316080Y45309D01*
X315995Y45303D01*
X315911Y45301D01*
X313561Y45301D01*
X313561Y50000D01*
X313563Y50077D01*
X313569Y50153D01*
X313578Y50230D01*
X313591Y50306D01*
X313608Y50381D01*
X313628Y50455D01*
X313653Y50528D01*
X313680Y50599D01*
X313711Y50670D01*
X313746Y50738D01*
X313784Y50805D01*
X313825Y50870D01*
X313869Y50933D01*
X313916Y50993D01*
X313967Y51052D01*
X314020Y51107D01*
X314075Y51160D01*
X314134Y51211D01*
X314194Y51258D01*
X314257Y51302D01*
X314322Y51343D01*
X314389Y51381D01*
X314457Y51416D01*
X314528Y51447D01*
X314599Y51474D01*
X314672Y51499D01*
X314747Y51519D01*
X314822Y51536D01*
X314897Y51549D01*
X314974Y51558D01*
X315050Y51564D01*
X315127Y51566D01*
X317216Y51566D01*
X309112Y54699D02*
X309112Y45301D01*
X306502Y45301D01*
X306425Y45303D01*
X306349Y45309D01*
X306272Y45318D01*
X306196Y45331D01*
X306122Y45348D01*
X306047Y45368D01*
X305974Y45393D01*
X305903Y45420D01*
X305832Y45451D01*
X305764Y45486D01*
X305697Y45524D01*
X305632Y45565D01*
X305569Y45609D01*
X305509Y45656D01*
X305450Y45707D01*
X305395Y45760D01*
X305342Y45815D01*
X305291Y45874D01*
X305244Y45934D01*
X305200Y45997D01*
X305159Y46062D01*
X305121Y46129D01*
X305086Y46197D01*
X305055Y46268D01*
X305028Y46339D01*
X305003Y46412D01*
X304983Y46486D01*
X304966Y46561D01*
X304953Y46637D01*
X304944Y46713D01*
X304938Y46790D01*
X304936Y46867D01*
X304936Y50000D01*
X304938Y50077D01*
X304944Y50153D01*
X304953Y50230D01*
X304966Y50306D01*
X304983Y50381D01*
X305003Y50455D01*
X305028Y50528D01*
X305055Y50599D01*
X305086Y50670D01*
X305121Y50738D01*
X305159Y50805D01*
X305200Y50870D01*
X305244Y50933D01*
X305291Y50993D01*
X305342Y51052D01*
X305395Y51107D01*
X305450Y51160D01*
X305509Y51211D01*
X305569Y51258D01*
X305632Y51302D01*
X305697Y51343D01*
X305764Y51381D01*
X305832Y51416D01*
X305903Y51447D01*
X305974Y51474D01*
X306047Y51499D01*
X306122Y51519D01*
X306197Y51536D01*
X306272Y51549D01*
X306349Y51558D01*
X306425Y51564D01*
X306502Y51566D01*
X309112Y51566D01*
X301058Y48956D02*
X294793Y48956D01*
X290087Y48956D02*
X287476Y47912D01*
X290087Y48956D02*
X290153Y48984D01*
X290218Y49017D01*
X290281Y49052D01*
X290342Y49091D01*
X290401Y49133D01*
X290457Y49178D01*
X290511Y49226D01*
X290562Y49277D01*
X290611Y49330D01*
X290656Y49387D01*
X290699Y49445D01*
X290738Y49505D01*
X290775Y49568D01*
X290807Y49633D01*
X290836Y49699D01*
X290862Y49766D01*
X290884Y49835D01*
X290902Y49905D01*
X290917Y49976D01*
X290928Y50047D01*
X290935Y50119D01*
X290938Y50191D01*
X290937Y50263D01*
X290932Y50336D01*
X290924Y50407D01*
X290912Y50479D01*
X290896Y50549D01*
X290876Y50618D01*
X290852Y50687D01*
X290825Y50754D01*
X290795Y50819D01*
X290761Y50883D01*
X290723Y50945D01*
X290683Y51005D01*
X290639Y51062D01*
X290592Y51117D01*
X290542Y51170D01*
X290490Y51219D01*
X290435Y51266D01*
X290378Y51310D01*
X290318Y51351D01*
X290256Y51388D01*
X290192Y51423D01*
X290127Y51453D01*
X290060Y51481D01*
X289992Y51504D01*
X289922Y51524D01*
X289852Y51540D01*
X289781Y51553D01*
X289709Y51561D01*
X289637Y51566D01*
X289565Y51567D01*
X289564Y51566D02*
X289413Y51562D01*
X289262Y51554D01*
X289111Y51543D01*
X288960Y51527D01*
X288810Y51507D01*
X288660Y51484D01*
X288511Y51457D01*
X288363Y51426D01*
X288215Y51391D01*
X288069Y51353D01*
X287923Y51310D01*
X287779Y51264D01*
X287636Y51215D01*
X287494Y51162D01*
X287354Y51105D01*
X287215Y51044D01*
X287476Y47912D02*
X287410Y47884D01*
X287345Y47851D01*
X287282Y47816D01*
X287221Y47777D01*
X287162Y47735D01*
X287106Y47690D01*
X287052Y47642D01*
X287001Y47591D01*
X286952Y47538D01*
X286907Y47481D01*
X286864Y47423D01*
X286825Y47363D01*
X286788Y47300D01*
X286756Y47235D01*
X286727Y47169D01*
X286701Y47102D01*
X286679Y47033D01*
X286661Y46963D01*
X286646Y46892D01*
X286635Y46821D01*
X286628Y46749D01*
X286625Y46677D01*
X286626Y46605D01*
X286631Y46532D01*
X286639Y46461D01*
X286651Y46389D01*
X286667Y46319D01*
X286687Y46250D01*
X286711Y46181D01*
X286738Y46114D01*
X286768Y46049D01*
X286802Y45985D01*
X286840Y45923D01*
X286880Y45863D01*
X286924Y45806D01*
X286971Y45751D01*
X287021Y45698D01*
X287073Y45649D01*
X287128Y45602D01*
X287185Y45558D01*
X287245Y45517D01*
X287307Y45480D01*
X287371Y45445D01*
X287436Y45415D01*
X287503Y45387D01*
X287571Y45364D01*
X287641Y45344D01*
X287711Y45328D01*
X287782Y45315D01*
X287854Y45307D01*
X287926Y45302D01*
X287998Y45301D01*
X288208Y45306D01*
X288417Y45317D01*
X288626Y45332D01*
X288834Y45352D01*
X289042Y45378D01*
X289249Y45408D01*
X289456Y45443D01*
X289661Y45483D01*
X289866Y45527D01*
X290069Y45577D01*
X290272Y45631D01*
X290473Y45691D01*
X290672Y45754D01*
X290870Y45823D01*
X283714Y51566D02*
X280581Y51566D01*
X282670Y54699D02*
X282670Y46867D01*
X282668Y46790D01*
X282662Y46714D01*
X282653Y46637D01*
X282640Y46561D01*
X282623Y46486D01*
X282603Y46412D01*
X282578Y46339D01*
X282551Y46268D01*
X282520Y46197D01*
X282485Y46129D01*
X282447Y46062D01*
X282406Y45997D01*
X282362Y45934D01*
X282315Y45874D01*
X282264Y45815D01*
X282211Y45760D01*
X282156Y45707D01*
X282097Y45656D01*
X282037Y45609D01*
X281974Y45565D01*
X281909Y45524D01*
X281842Y45486D01*
X281774Y45451D01*
X281703Y45420D01*
X281632Y45393D01*
X281559Y45368D01*
X281485Y45348D01*
X281410Y45331D01*
X281334Y45318D01*
X281257Y45309D01*
X281181Y45303D01*
X281104Y45301D01*
X280581Y45301D01*
X275588Y45301D02*
X272977Y45301D01*
X275588Y45301D02*
X275665Y45303D01*
X275741Y45309D01*
X275818Y45318D01*
X275894Y45331D01*
X275969Y45348D01*
X276043Y45368D01*
X276116Y45393D01*
X276187Y45420D01*
X276258Y45451D01*
X276326Y45486D01*
X276393Y45524D01*
X276458Y45565D01*
X276521Y45609D01*
X276581Y45656D01*
X276640Y45707D01*
X276695Y45760D01*
X276748Y45815D01*
X276799Y45874D01*
X276846Y45934D01*
X276890Y45997D01*
X276931Y46062D01*
X276969Y46129D01*
X277004Y46197D01*
X277035Y46268D01*
X277062Y46339D01*
X277087Y46412D01*
X277107Y46486D01*
X277124Y46561D01*
X277137Y46637D01*
X277146Y46714D01*
X277152Y46790D01*
X277154Y46867D01*
X277154Y49478D01*
X277152Y49568D01*
X277146Y49657D01*
X277137Y49747D01*
X277123Y49836D01*
X277106Y49924D01*
X277085Y50011D01*
X277060Y50098D01*
X277031Y50183D01*
X276999Y50267D01*
X276964Y50349D01*
X276924Y50430D01*
X276882Y50509D01*
X276836Y50586D01*
X276786Y50661D01*
X276734Y50734D01*
X276678Y50805D01*
X276620Y50873D01*
X276558Y50938D01*
X276494Y51001D01*
X276427Y51061D01*
X276358Y51118D01*
X276286Y51172D01*
X276212Y51223D01*
X276136Y51271D01*
X276058Y51315D01*
X275978Y51356D01*
X275896Y51394D01*
X275813Y51428D01*
X275728Y51458D01*
X275642Y51485D01*
X275556Y51508D01*
X275468Y51527D01*
X275379Y51542D01*
X275290Y51554D01*
X275201Y51562D01*
X275111Y51566D01*
X275021Y51566D01*
X274931Y51562D01*
X274842Y51554D01*
X274753Y51542D01*
X274664Y51527D01*
X274576Y51508D01*
X274490Y51485D01*
X274404Y51458D01*
X274319Y51428D01*
X274236Y51394D01*
X274154Y51356D01*
X274074Y51315D01*
X273996Y51271D01*
X273920Y51223D01*
X273846Y51172D01*
X273774Y51118D01*
X273705Y51061D01*
X273638Y51001D01*
X273574Y50938D01*
X273512Y50873D01*
X273454Y50805D01*
X273398Y50734D01*
X273346Y50661D01*
X273296Y50586D01*
X273250Y50509D01*
X273208Y50430D01*
X273168Y50349D01*
X273133Y50267D01*
X273101Y50183D01*
X273072Y50098D01*
X273047Y50011D01*
X273026Y49924D01*
X273009Y49836D01*
X272995Y49747D01*
X272986Y49657D01*
X272980Y49568D01*
X272978Y49478D01*
X272977Y49478D02*
X272977Y48434D01*
X277154Y48434D01*
X268879Y51566D02*
X268879Y42168D01*
X268879Y51566D02*
X266268Y51566D01*
X266191Y51564D01*
X266115Y51558D01*
X266038Y51549D01*
X265962Y51536D01*
X265888Y51519D01*
X265813Y51499D01*
X265740Y51474D01*
X265669Y51447D01*
X265598Y51416D01*
X265530Y51381D01*
X265463Y51343D01*
X265398Y51302D01*
X265335Y51258D01*
X265275Y51211D01*
X265216Y51160D01*
X265161Y51107D01*
X265108Y51052D01*
X265057Y50993D01*
X265010Y50933D01*
X264966Y50870D01*
X264925Y50805D01*
X264887Y50738D01*
X264852Y50670D01*
X264821Y50599D01*
X264794Y50528D01*
X264769Y50455D01*
X264749Y50381D01*
X264732Y50306D01*
X264719Y50230D01*
X264710Y50154D01*
X264704Y50077D01*
X264702Y50000D01*
X264702Y46867D01*
X264704Y46790D01*
X264710Y46714D01*
X264719Y46637D01*
X264732Y46561D01*
X264749Y46486D01*
X264769Y46412D01*
X264794Y46339D01*
X264821Y46268D01*
X264852Y46197D01*
X264887Y46129D01*
X264925Y46062D01*
X264966Y45997D01*
X265010Y45934D01*
X265057Y45874D01*
X265108Y45815D01*
X265161Y45760D01*
X265216Y45707D01*
X265275Y45656D01*
X265335Y45609D01*
X265398Y45565D01*
X265463Y45524D01*
X265530Y45486D01*
X265598Y45451D01*
X265669Y45420D01*
X265740Y45393D01*
X265813Y45368D01*
X265888Y45348D01*
X265963Y45331D01*
X266038Y45318D01*
X266115Y45309D01*
X266191Y45303D01*
X266268Y45301D01*
X268879Y45301D01*
X256428Y44257D02*
X252251Y55743D01*
X243626Y51566D02*
X243626Y46867D01*
X243624Y46790D01*
X243618Y46714D01*
X243609Y46637D01*
X243596Y46561D01*
X243579Y46486D01*
X243559Y46412D01*
X243534Y46339D01*
X243507Y46268D01*
X243476Y46197D01*
X243441Y46129D01*
X243403Y46062D01*
X243362Y45997D01*
X243318Y45934D01*
X243271Y45874D01*
X243220Y45815D01*
X243167Y45760D01*
X243112Y45707D01*
X243053Y45656D01*
X242993Y45609D01*
X242930Y45565D01*
X242865Y45524D01*
X242798Y45486D01*
X242730Y45451D01*
X242659Y45420D01*
X242588Y45393D01*
X242515Y45368D01*
X242441Y45348D01*
X242366Y45331D01*
X242290Y45318D01*
X242213Y45309D01*
X242137Y45303D01*
X242060Y45301D01*
X239450Y45301D01*
X239450Y51566D01*
X233820Y45301D02*
X231732Y45301D01*
X233820Y45301D02*
X233897Y45303D01*
X233973Y45309D01*
X234050Y45318D01*
X234126Y45331D01*
X234201Y45348D01*
X234275Y45368D01*
X234348Y45393D01*
X234419Y45420D01*
X234490Y45451D01*
X234558Y45486D01*
X234625Y45524D01*
X234690Y45565D01*
X234753Y45609D01*
X234813Y45656D01*
X234872Y45707D01*
X234927Y45760D01*
X234980Y45815D01*
X235031Y45874D01*
X235078Y45934D01*
X235122Y45997D01*
X235163Y46062D01*
X235201Y46129D01*
X235236Y46197D01*
X235267Y46268D01*
X235294Y46339D01*
X235319Y46412D01*
X235339Y46486D01*
X235356Y46561D01*
X235369Y46637D01*
X235378Y46714D01*
X235384Y46790D01*
X235386Y46867D01*
X235387Y46867D02*
X235387Y50000D01*
X235386Y50000D02*
X235384Y50077D01*
X235378Y50153D01*
X235369Y50230D01*
X235356Y50306D01*
X235339Y50381D01*
X235319Y50455D01*
X235294Y50528D01*
X235267Y50599D01*
X235236Y50670D01*
X235201Y50738D01*
X235163Y50805D01*
X235122Y50870D01*
X235078Y50933D01*
X235031Y50993D01*
X234980Y51052D01*
X234927Y51107D01*
X234872Y51160D01*
X234813Y51211D01*
X234753Y51258D01*
X234690Y51302D01*
X234625Y51343D01*
X234558Y51381D01*
X234490Y51416D01*
X234419Y51447D01*
X234348Y51474D01*
X234275Y51499D01*
X234201Y51519D01*
X234126Y51536D01*
X234050Y51549D01*
X233973Y51558D01*
X233897Y51564D01*
X233820Y51566D01*
X231732Y51566D01*
X228036Y54699D02*
X228036Y45301D01*
X225426Y45301D01*
X225349Y45303D01*
X225273Y45309D01*
X225196Y45318D01*
X225120Y45331D01*
X225046Y45348D01*
X224971Y45368D01*
X224898Y45393D01*
X224827Y45420D01*
X224756Y45451D01*
X224688Y45486D01*
X224621Y45524D01*
X224556Y45565D01*
X224493Y45609D01*
X224433Y45656D01*
X224374Y45707D01*
X224319Y45760D01*
X224266Y45815D01*
X224215Y45874D01*
X224168Y45934D01*
X224124Y45997D01*
X224083Y46062D01*
X224045Y46129D01*
X224010Y46197D01*
X223979Y46268D01*
X223952Y46339D01*
X223927Y46412D01*
X223907Y46486D01*
X223890Y46561D01*
X223877Y46637D01*
X223868Y46713D01*
X223862Y46790D01*
X223860Y46867D01*
X223859Y46867D02*
X223859Y50000D01*
X223860Y50000D02*
X223862Y50077D01*
X223868Y50153D01*
X223877Y50230D01*
X223890Y50306D01*
X223907Y50381D01*
X223927Y50455D01*
X223952Y50528D01*
X223979Y50599D01*
X224010Y50670D01*
X224045Y50738D01*
X224083Y50805D01*
X224124Y50870D01*
X224168Y50933D01*
X224215Y50993D01*
X224266Y51052D01*
X224319Y51107D01*
X224374Y51160D01*
X224433Y51211D01*
X224493Y51258D01*
X224556Y51302D01*
X224621Y51343D01*
X224688Y51381D01*
X224756Y51416D01*
X224827Y51447D01*
X224898Y51474D01*
X224971Y51499D01*
X225046Y51519D01*
X225121Y51536D01*
X225196Y51549D01*
X225273Y51558D01*
X225349Y51564D01*
X225426Y51566D01*
X228036Y51566D01*
X219852Y51566D02*
X219852Y46867D01*
X219850Y46790D01*
X219844Y46714D01*
X219835Y46637D01*
X219822Y46561D01*
X219805Y46486D01*
X219785Y46412D01*
X219760Y46339D01*
X219733Y46268D01*
X219702Y46197D01*
X219667Y46129D01*
X219629Y46062D01*
X219588Y45997D01*
X219544Y45934D01*
X219497Y45874D01*
X219446Y45815D01*
X219393Y45760D01*
X219338Y45707D01*
X219279Y45656D01*
X219219Y45609D01*
X219156Y45565D01*
X219091Y45524D01*
X219024Y45486D01*
X218956Y45451D01*
X218885Y45420D01*
X218814Y45393D01*
X218741Y45368D01*
X218667Y45348D01*
X218592Y45331D01*
X218516Y45318D01*
X218439Y45309D01*
X218363Y45303D01*
X218286Y45301D01*
X215675Y45301D01*
X215675Y51566D01*
X210839Y48956D02*
X208229Y47912D01*
X210840Y48956D02*
X210906Y48984D01*
X210971Y49017D01*
X211034Y49052D01*
X211095Y49091D01*
X211154Y49133D01*
X211210Y49178D01*
X211264Y49226D01*
X211315Y49277D01*
X211364Y49330D01*
X211409Y49387D01*
X211452Y49445D01*
X211491Y49505D01*
X211528Y49568D01*
X211560Y49633D01*
X211589Y49699D01*
X211615Y49766D01*
X211637Y49835D01*
X211655Y49905D01*
X211670Y49976D01*
X211681Y50047D01*
X211688Y50119D01*
X211691Y50191D01*
X211690Y50263D01*
X211685Y50336D01*
X211677Y50407D01*
X211665Y50479D01*
X211649Y50549D01*
X211629Y50618D01*
X211605Y50687D01*
X211578Y50754D01*
X211548Y50819D01*
X211514Y50883D01*
X211476Y50945D01*
X211436Y51005D01*
X211392Y51062D01*
X211345Y51117D01*
X211295Y51170D01*
X211243Y51219D01*
X211188Y51266D01*
X211131Y51310D01*
X211071Y51351D01*
X211009Y51388D01*
X210945Y51423D01*
X210880Y51453D01*
X210813Y51481D01*
X210745Y51504D01*
X210675Y51524D01*
X210605Y51540D01*
X210534Y51553D01*
X210462Y51561D01*
X210390Y51566D01*
X210318Y51567D01*
X210317Y51566D02*
X210166Y51562D01*
X210015Y51554D01*
X209864Y51543D01*
X209713Y51527D01*
X209563Y51507D01*
X209413Y51484D01*
X209264Y51457D01*
X209116Y51426D01*
X208968Y51391D01*
X208822Y51353D01*
X208676Y51310D01*
X208532Y51264D01*
X208389Y51215D01*
X208247Y51162D01*
X208107Y51105D01*
X207968Y51044D01*
X208229Y47912D02*
X208163Y47884D01*
X208098Y47851D01*
X208035Y47816D01*
X207974Y47777D01*
X207915Y47735D01*
X207859Y47690D01*
X207805Y47642D01*
X207754Y47591D01*
X207705Y47538D01*
X207660Y47481D01*
X207617Y47423D01*
X207578Y47363D01*
X207541Y47300D01*
X207509Y47235D01*
X207480Y47169D01*
X207454Y47102D01*
X207432Y47033D01*
X207414Y46963D01*
X207399Y46892D01*
X207388Y46821D01*
X207381Y46749D01*
X207378Y46677D01*
X207379Y46605D01*
X207384Y46532D01*
X207392Y46461D01*
X207404Y46389D01*
X207420Y46319D01*
X207440Y46250D01*
X207464Y46181D01*
X207491Y46114D01*
X207521Y46049D01*
X207555Y45985D01*
X207593Y45923D01*
X207633Y45863D01*
X207677Y45806D01*
X207724Y45751D01*
X207774Y45698D01*
X207826Y45649D01*
X207881Y45602D01*
X207938Y45558D01*
X207998Y45517D01*
X208060Y45480D01*
X208124Y45445D01*
X208189Y45415D01*
X208256Y45387D01*
X208324Y45364D01*
X208394Y45344D01*
X208464Y45328D01*
X208535Y45315D01*
X208607Y45307D01*
X208679Y45302D01*
X208751Y45301D01*
X208961Y45306D01*
X209170Y45317D01*
X209379Y45332D01*
X209587Y45352D01*
X209795Y45378D01*
X210002Y45408D01*
X210209Y45443D01*
X210414Y45483D01*
X210619Y45527D01*
X210822Y45577D01*
X211025Y45631D01*
X211226Y45691D01*
X211425Y45754D01*
X211623Y45823D01*
X199126Y44257D02*
X194949Y55743D01*
X183670Y54700D02*
X183575Y54698D01*
X183481Y54692D01*
X183387Y54683D01*
X183293Y54670D01*
X183200Y54653D01*
X183108Y54632D01*
X183016Y54607D01*
X182926Y54579D01*
X182837Y54547D01*
X182749Y54512D01*
X182663Y54473D01*
X182578Y54431D01*
X182495Y54385D01*
X182414Y54336D01*
X182335Y54284D01*
X182258Y54229D01*
X182184Y54170D01*
X182112Y54109D01*
X182042Y54045D01*
X181975Y53978D01*
X181911Y53908D01*
X181850Y53836D01*
X181791Y53762D01*
X181736Y53685D01*
X181684Y53606D01*
X181635Y53525D01*
X181589Y53442D01*
X181547Y53357D01*
X181508Y53271D01*
X181473Y53183D01*
X181441Y53094D01*
X181413Y53004D01*
X181388Y52912D01*
X181367Y52820D01*
X181350Y52727D01*
X181337Y52633D01*
X181328Y52539D01*
X181322Y52445D01*
X181320Y52350D01*
X183670Y54699D02*
X183778Y54697D01*
X183887Y54691D01*
X183995Y54681D01*
X184102Y54668D01*
X184209Y54650D01*
X184316Y54629D01*
X184421Y54604D01*
X184526Y54575D01*
X184629Y54543D01*
X184731Y54506D01*
X184832Y54466D01*
X184931Y54423D01*
X185029Y54376D01*
X185125Y54325D01*
X185219Y54271D01*
X185311Y54214D01*
X185401Y54153D01*
X185489Y54089D01*
X185574Y54023D01*
X185657Y53953D01*
X185737Y53880D01*
X185815Y53804D01*
X185890Y53726D01*
X185962Y53645D01*
X186031Y53561D01*
X186097Y53475D01*
X186160Y53387D01*
X186219Y53296D01*
X186276Y53204D01*
X186329Y53109D01*
X186378Y53012D01*
X186424Y52914D01*
X186467Y52815D01*
X186506Y52713D01*
X186541Y52611D01*
X182103Y50522D02*
X182034Y50591D01*
X181968Y50662D01*
X181904Y50735D01*
X181843Y50811D01*
X181785Y50890D01*
X181731Y50970D01*
X181679Y51053D01*
X181631Y51137D01*
X181585Y51223D01*
X181544Y51311D01*
X181505Y51401D01*
X181470Y51492D01*
X181439Y51584D01*
X181411Y51677D01*
X181387Y51771D01*
X181367Y51866D01*
X181350Y51962D01*
X181337Y52059D01*
X181328Y52156D01*
X181322Y52253D01*
X181320Y52350D01*
X182104Y50522D02*
X186542Y45301D01*
X181321Y45301D01*
X177398Y50000D02*
X177396Y50185D01*
X177389Y50370D01*
X177378Y50554D01*
X177363Y50738D01*
X177343Y50922D01*
X177319Y51106D01*
X177290Y51288D01*
X177257Y51470D01*
X177220Y51651D01*
X177178Y51831D01*
X177132Y52011D01*
X177082Y52189D01*
X177028Y52365D01*
X176969Y52541D01*
X176907Y52715D01*
X176840Y52887D01*
X176769Y53058D01*
X176694Y53227D01*
X176615Y53394D01*
X176585Y53474D01*
X176552Y53553D01*
X176515Y53630D01*
X176475Y53706D01*
X176432Y53780D01*
X176386Y53852D01*
X176336Y53921D01*
X176284Y53989D01*
X176228Y54054D01*
X176170Y54117D01*
X176108Y54176D01*
X176045Y54234D01*
X175978Y54288D01*
X175910Y54339D01*
X175839Y54387D01*
X175766Y54432D01*
X175692Y54474D01*
X175615Y54512D01*
X175537Y54547D01*
X175458Y54579D01*
X175377Y54607D01*
X175295Y54631D01*
X175211Y54652D01*
X175128Y54669D01*
X175043Y54682D01*
X174958Y54691D01*
X174873Y54697D01*
X174787Y54699D01*
X174701Y54697D01*
X174616Y54691D01*
X174531Y54682D01*
X174446Y54669D01*
X174363Y54652D01*
X174279Y54631D01*
X174197Y54607D01*
X174117Y54579D01*
X174037Y54547D01*
X173959Y54512D01*
X173882Y54474D01*
X173808Y54432D01*
X173735Y54387D01*
X173664Y54339D01*
X173596Y54288D01*
X173529Y54234D01*
X173466Y54176D01*
X173405Y54117D01*
X173346Y54054D01*
X173291Y53989D01*
X173238Y53921D01*
X173188Y53852D01*
X173142Y53780D01*
X173099Y53706D01*
X173059Y53630D01*
X173022Y53553D01*
X172989Y53474D01*
X172959Y53394D01*
X172880Y53227D01*
X172805Y53058D01*
X172734Y52887D01*
X172667Y52715D01*
X172605Y52541D01*
X172546Y52365D01*
X172492Y52189D01*
X172442Y52011D01*
X172396Y51831D01*
X172354Y51651D01*
X172317Y51470D01*
X172284Y51288D01*
X172255Y51106D01*
X172231Y50922D01*
X172211Y50738D01*
X172196Y50554D01*
X172185Y50370D01*
X172178Y50185D01*
X172176Y50000D01*
X177398Y50000D02*
X177396Y49815D01*
X177389Y49630D01*
X177378Y49446D01*
X177363Y49262D01*
X177343Y49078D01*
X177319Y48894D01*
X177290Y48712D01*
X177257Y48530D01*
X177220Y48349D01*
X177178Y48169D01*
X177132Y47989D01*
X177082Y47811D01*
X177028Y47635D01*
X176969Y47459D01*
X176907Y47285D01*
X176840Y47113D01*
X176769Y46942D01*
X176694Y46773D01*
X176615Y46606D01*
X176585Y46526D01*
X176552Y46447D01*
X176515Y46370D01*
X176475Y46294D01*
X176432Y46220D01*
X176386Y46148D01*
X176336Y46079D01*
X176283Y46011D01*
X176228Y45946D01*
X176169Y45883D01*
X176108Y45824D01*
X176045Y45766D01*
X175978Y45712D01*
X175910Y45661D01*
X175839Y45613D01*
X175766Y45568D01*
X175692Y45526D01*
X175615Y45488D01*
X175537Y45453D01*
X175458Y45421D01*
X175377Y45393D01*
X175295Y45369D01*
X175211Y45348D01*
X175128Y45331D01*
X175043Y45318D01*
X174958Y45309D01*
X174873Y45303D01*
X174787Y45301D01*
X172960Y46606D02*
X172881Y46773D01*
X172806Y46942D01*
X172735Y47113D01*
X172668Y47285D01*
X172606Y47459D01*
X172547Y47635D01*
X172493Y47811D01*
X172443Y47989D01*
X172397Y48169D01*
X172355Y48349D01*
X172318Y48530D01*
X172285Y48712D01*
X172256Y48894D01*
X172232Y49078D01*
X172212Y49262D01*
X172197Y49446D01*
X172186Y49630D01*
X172179Y49815D01*
X172177Y50000D01*
X172959Y46606D02*
X172989Y46526D01*
X173022Y46447D01*
X173059Y46370D01*
X173099Y46294D01*
X173142Y46220D01*
X173188Y46148D01*
X173238Y46079D01*
X173291Y46011D01*
X173346Y45946D01*
X173405Y45883D01*
X173466Y45824D01*
X173529Y45766D01*
X173596Y45712D01*
X173664Y45661D01*
X173735Y45613D01*
X173808Y45568D01*
X173882Y45526D01*
X173959Y45488D01*
X174037Y45453D01*
X174117Y45421D01*
X174197Y45393D01*
X174279Y45369D01*
X174363Y45348D01*
X174446Y45331D01*
X174531Y45318D01*
X174616Y45309D01*
X174701Y45303D01*
X174787Y45301D01*
X176876Y47389D02*
X172699Y52611D01*
X165382Y54700D02*
X165287Y54698D01*
X165193Y54692D01*
X165099Y54683D01*
X165005Y54670D01*
X164912Y54653D01*
X164820Y54632D01*
X164728Y54607D01*
X164638Y54579D01*
X164549Y54547D01*
X164461Y54512D01*
X164375Y54473D01*
X164290Y54431D01*
X164207Y54385D01*
X164126Y54336D01*
X164047Y54284D01*
X163970Y54229D01*
X163896Y54170D01*
X163824Y54109D01*
X163754Y54045D01*
X163687Y53978D01*
X163623Y53908D01*
X163562Y53836D01*
X163503Y53762D01*
X163448Y53685D01*
X163396Y53606D01*
X163347Y53525D01*
X163301Y53442D01*
X163259Y53357D01*
X163220Y53271D01*
X163185Y53183D01*
X163153Y53094D01*
X163125Y53004D01*
X163100Y52912D01*
X163079Y52820D01*
X163062Y52727D01*
X163049Y52633D01*
X163040Y52539D01*
X163034Y52445D01*
X163032Y52350D01*
X165382Y54699D02*
X165490Y54697D01*
X165599Y54691D01*
X165707Y54681D01*
X165814Y54668D01*
X165921Y54650D01*
X166028Y54629D01*
X166133Y54604D01*
X166238Y54575D01*
X166341Y54543D01*
X166443Y54506D01*
X166544Y54466D01*
X166643Y54423D01*
X166741Y54376D01*
X166837Y54325D01*
X166931Y54271D01*
X167023Y54214D01*
X167113Y54153D01*
X167201Y54089D01*
X167286Y54023D01*
X167369Y53953D01*
X167449Y53880D01*
X167527Y53804D01*
X167602Y53726D01*
X167674Y53645D01*
X167743Y53561D01*
X167809Y53475D01*
X167872Y53387D01*
X167931Y53296D01*
X167988Y53204D01*
X168041Y53109D01*
X168090Y53012D01*
X168136Y52914D01*
X168179Y52815D01*
X168218Y52713D01*
X168253Y52611D01*
X163815Y50522D02*
X163746Y50591D01*
X163680Y50662D01*
X163616Y50735D01*
X163555Y50811D01*
X163497Y50890D01*
X163443Y50970D01*
X163391Y51053D01*
X163343Y51137D01*
X163297Y51223D01*
X163256Y51311D01*
X163217Y51401D01*
X163182Y51492D01*
X163151Y51584D01*
X163123Y51677D01*
X163099Y51771D01*
X163079Y51866D01*
X163062Y51962D01*
X163049Y52059D01*
X163040Y52156D01*
X163034Y52253D01*
X163032Y52350D01*
X163816Y50522D02*
X168254Y45301D01*
X163033Y45301D01*
X159110Y52611D02*
X156499Y54699D01*
X156499Y45301D01*
X153889Y45301D02*
X159110Y45301D01*
X149878Y48956D02*
X143613Y48956D01*
X139603Y50000D02*
X139601Y50185D01*
X139594Y50370D01*
X139583Y50554D01*
X139568Y50738D01*
X139548Y50922D01*
X139524Y51106D01*
X139495Y51288D01*
X139462Y51470D01*
X139425Y51651D01*
X139383Y51831D01*
X139337Y52011D01*
X139287Y52189D01*
X139233Y52365D01*
X139174Y52541D01*
X139112Y52715D01*
X139045Y52887D01*
X138974Y53058D01*
X138899Y53227D01*
X138820Y53394D01*
X138790Y53474D01*
X138757Y53553D01*
X138720Y53630D01*
X138680Y53706D01*
X138637Y53780D01*
X138591Y53852D01*
X138541Y53921D01*
X138489Y53989D01*
X138433Y54054D01*
X138375Y54117D01*
X138313Y54176D01*
X138250Y54234D01*
X138183Y54288D01*
X138115Y54339D01*
X138044Y54387D01*
X137971Y54432D01*
X137897Y54474D01*
X137820Y54512D01*
X137742Y54547D01*
X137663Y54579D01*
X137582Y54607D01*
X137500Y54631D01*
X137416Y54652D01*
X137333Y54669D01*
X137248Y54682D01*
X137163Y54691D01*
X137078Y54697D01*
X136992Y54699D01*
X136906Y54697D01*
X136821Y54691D01*
X136736Y54682D01*
X136651Y54669D01*
X136568Y54652D01*
X136484Y54631D01*
X136402Y54607D01*
X136322Y54579D01*
X136242Y54547D01*
X136164Y54512D01*
X136087Y54474D01*
X136013Y54432D01*
X135940Y54387D01*
X135869Y54339D01*
X135801Y54288D01*
X135734Y54234D01*
X135671Y54176D01*
X135610Y54117D01*
X135551Y54054D01*
X135496Y53989D01*
X135443Y53921D01*
X135393Y53852D01*
X135347Y53780D01*
X135304Y53706D01*
X135264Y53630D01*
X135227Y53553D01*
X135194Y53474D01*
X135164Y53394D01*
X135085Y53227D01*
X135010Y53058D01*
X134939Y52887D01*
X134872Y52715D01*
X134810Y52541D01*
X134751Y52365D01*
X134697Y52189D01*
X134647Y52011D01*
X134601Y51831D01*
X134559Y51651D01*
X134522Y51470D01*
X134489Y51288D01*
X134460Y51106D01*
X134436Y50922D01*
X134416Y50738D01*
X134401Y50554D01*
X134390Y50370D01*
X134383Y50185D01*
X134381Y50000D01*
X139603Y50000D02*
X139601Y49815D01*
X139594Y49630D01*
X139583Y49446D01*
X139568Y49262D01*
X139548Y49078D01*
X139524Y48894D01*
X139495Y48712D01*
X139462Y48530D01*
X139425Y48349D01*
X139383Y48169D01*
X139337Y47989D01*
X139287Y47811D01*
X139233Y47635D01*
X139174Y47459D01*
X139112Y47285D01*
X139045Y47113D01*
X138974Y46942D01*
X138899Y46773D01*
X138820Y46606D01*
X138790Y46526D01*
X138757Y46447D01*
X138720Y46370D01*
X138680Y46294D01*
X138637Y46220D01*
X138591Y46148D01*
X138541Y46079D01*
X138488Y46011D01*
X138433Y45946D01*
X138374Y45883D01*
X138313Y45824D01*
X138250Y45766D01*
X138183Y45712D01*
X138115Y45661D01*
X138044Y45613D01*
X137971Y45568D01*
X137897Y45526D01*
X137820Y45488D01*
X137742Y45453D01*
X137663Y45421D01*
X137582Y45393D01*
X137500Y45369D01*
X137416Y45348D01*
X137333Y45331D01*
X137248Y45318D01*
X137163Y45309D01*
X137078Y45303D01*
X136992Y45301D01*
X135164Y46606D02*
X135085Y46773D01*
X135010Y46942D01*
X134939Y47113D01*
X134872Y47285D01*
X134810Y47459D01*
X134751Y47635D01*
X134697Y47811D01*
X134647Y47989D01*
X134601Y48169D01*
X134559Y48349D01*
X134522Y48530D01*
X134489Y48712D01*
X134460Y48894D01*
X134436Y49078D01*
X134416Y49262D01*
X134401Y49446D01*
X134390Y49630D01*
X134383Y49815D01*
X134381Y50000D01*
X135164Y46606D02*
X135194Y46526D01*
X135227Y46447D01*
X135264Y46370D01*
X135304Y46294D01*
X135347Y46220D01*
X135393Y46148D01*
X135443Y46079D01*
X135496Y46011D01*
X135551Y45946D01*
X135610Y45883D01*
X135671Y45824D01*
X135734Y45766D01*
X135801Y45712D01*
X135869Y45661D01*
X135940Y45613D01*
X136013Y45568D01*
X136087Y45526D01*
X136164Y45488D01*
X136242Y45453D01*
X136322Y45421D01*
X136402Y45393D01*
X136484Y45369D01*
X136568Y45348D01*
X136651Y45331D01*
X136736Y45318D01*
X136821Y45309D01*
X136906Y45303D01*
X136992Y45301D01*
X139081Y47389D02*
X134904Y52611D01*
X130459Y50522D02*
X127326Y50522D01*
X127237Y50520D01*
X127149Y50514D01*
X127061Y50505D01*
X126973Y50492D01*
X126886Y50475D01*
X126800Y50455D01*
X126715Y50430D01*
X126630Y50403D01*
X126547Y50371D01*
X126466Y50337D01*
X126386Y50298D01*
X126308Y50257D01*
X126231Y50212D01*
X126157Y50164D01*
X126084Y50113D01*
X126014Y50059D01*
X125947Y50001D01*
X125881Y49941D01*
X125819Y49879D01*
X125759Y49813D01*
X125701Y49746D01*
X125647Y49676D01*
X125596Y49603D01*
X125548Y49529D01*
X125503Y49452D01*
X125462Y49374D01*
X125423Y49294D01*
X125389Y49213D01*
X125357Y49130D01*
X125330Y49045D01*
X125305Y48960D01*
X125285Y48874D01*
X125268Y48787D01*
X125255Y48699D01*
X125246Y48611D01*
X125240Y48523D01*
X125238Y48434D01*
X125238Y47912D01*
X125237Y47912D02*
X125239Y47811D01*
X125245Y47710D01*
X125255Y47609D01*
X125268Y47509D01*
X125286Y47409D01*
X125307Y47310D01*
X125333Y47212D01*
X125362Y47115D01*
X125394Y47019D01*
X125431Y46925D01*
X125471Y46832D01*
X125515Y46740D01*
X125562Y46651D01*
X125613Y46563D01*
X125667Y46477D01*
X125724Y46394D01*
X125784Y46312D01*
X125848Y46234D01*
X125914Y46157D01*
X125984Y46084D01*
X126056Y46013D01*
X126131Y45945D01*
X126209Y45880D01*
X126289Y45818D01*
X126371Y45759D01*
X126456Y45703D01*
X126543Y45651D01*
X126631Y45602D01*
X126722Y45556D01*
X126814Y45515D01*
X126908Y45476D01*
X127003Y45442D01*
X127099Y45411D01*
X127197Y45384D01*
X127295Y45360D01*
X127395Y45341D01*
X127495Y45325D01*
X127595Y45313D01*
X127696Y45305D01*
X127797Y45301D01*
X127899Y45301D01*
X128000Y45305D01*
X128101Y45313D01*
X128201Y45325D01*
X128301Y45341D01*
X128401Y45360D01*
X128499Y45384D01*
X128597Y45411D01*
X128693Y45442D01*
X128788Y45476D01*
X128882Y45515D01*
X128974Y45556D01*
X129065Y45602D01*
X129153Y45651D01*
X129240Y45703D01*
X129325Y45759D01*
X129407Y45818D01*
X129487Y45880D01*
X129565Y45945D01*
X129640Y46013D01*
X129712Y46084D01*
X129782Y46157D01*
X129848Y46234D01*
X129912Y46312D01*
X129972Y46394D01*
X130029Y46477D01*
X130083Y46563D01*
X130134Y46651D01*
X130181Y46740D01*
X130225Y46832D01*
X130265Y46925D01*
X130302Y47019D01*
X130334Y47115D01*
X130363Y47212D01*
X130389Y47310D01*
X130410Y47409D01*
X130428Y47509D01*
X130441Y47609D01*
X130451Y47710D01*
X130457Y47811D01*
X130459Y47912D01*
X130459Y50522D01*
X130457Y50648D01*
X130451Y50774D01*
X130442Y50900D01*
X130429Y51025D01*
X130411Y51150D01*
X130391Y51275D01*
X130366Y51399D01*
X130338Y51522D01*
X130306Y51644D01*
X130270Y51765D01*
X130231Y51885D01*
X130188Y52003D01*
X130141Y52120D01*
X130091Y52236D01*
X130037Y52351D01*
X129981Y52463D01*
X129920Y52574D01*
X129857Y52683D01*
X129790Y52790D01*
X129720Y52895D01*
X129646Y52998D01*
X129570Y53098D01*
X129491Y53196D01*
X129409Y53292D01*
X129323Y53385D01*
X129236Y53476D01*
X129145Y53563D01*
X129052Y53649D01*
X128956Y53731D01*
X128858Y53810D01*
X128758Y53886D01*
X128655Y53960D01*
X128550Y54030D01*
X128443Y54097D01*
X128334Y54160D01*
X128223Y54221D01*
X128111Y54277D01*
X127996Y54331D01*
X127880Y54381D01*
X127763Y54428D01*
X127645Y54471D01*
X127525Y54510D01*
X127404Y54546D01*
X127282Y54578D01*
X127159Y54606D01*
X127035Y54631D01*
X126910Y54651D01*
X126785Y54669D01*
X126660Y54682D01*
X126534Y54691D01*
X126408Y54697D01*
X126282Y54699D01*
X121227Y48956D02*
X114962Y48956D01*
X110952Y52611D02*
X108341Y54699D01*
X108341Y45301D01*
X110952Y45301D02*
X105730Y45301D01*
X99719Y49478D02*
X96587Y49478D01*
X99719Y49478D02*
X99808Y49480D01*
X99896Y49486D01*
X99984Y49495D01*
X100072Y49508D01*
X100159Y49525D01*
X100245Y49545D01*
X100330Y49570D01*
X100415Y49597D01*
X100498Y49629D01*
X100579Y49663D01*
X100659Y49702D01*
X100737Y49743D01*
X100814Y49788D01*
X100888Y49836D01*
X100961Y49887D01*
X101031Y49941D01*
X101098Y49999D01*
X101164Y50059D01*
X101226Y50121D01*
X101286Y50187D01*
X101344Y50254D01*
X101398Y50324D01*
X101449Y50397D01*
X101497Y50471D01*
X101542Y50548D01*
X101583Y50626D01*
X101622Y50706D01*
X101656Y50787D01*
X101688Y50870D01*
X101715Y50955D01*
X101740Y51040D01*
X101760Y51126D01*
X101777Y51213D01*
X101790Y51301D01*
X101799Y51389D01*
X101805Y51477D01*
X101807Y51566D01*
X101808Y51566D02*
X101808Y52088D01*
X101806Y52189D01*
X101800Y52290D01*
X101790Y52391D01*
X101777Y52491D01*
X101759Y52591D01*
X101738Y52690D01*
X101712Y52788D01*
X101683Y52885D01*
X101651Y52981D01*
X101614Y53075D01*
X101574Y53168D01*
X101530Y53260D01*
X101483Y53349D01*
X101432Y53437D01*
X101378Y53523D01*
X101321Y53606D01*
X101261Y53688D01*
X101197Y53766D01*
X101131Y53843D01*
X101061Y53916D01*
X100989Y53987D01*
X100914Y54055D01*
X100836Y54120D01*
X100756Y54182D01*
X100674Y54241D01*
X100589Y54297D01*
X100503Y54349D01*
X100414Y54398D01*
X100323Y54444D01*
X100231Y54485D01*
X100137Y54524D01*
X100042Y54558D01*
X99946Y54589D01*
X99848Y54616D01*
X99750Y54640D01*
X99650Y54659D01*
X99550Y54675D01*
X99450Y54687D01*
X99349Y54695D01*
X99248Y54699D01*
X99146Y54699D01*
X99045Y54695D01*
X98944Y54687D01*
X98844Y54675D01*
X98744Y54659D01*
X98644Y54640D01*
X98546Y54616D01*
X98448Y54589D01*
X98352Y54558D01*
X98257Y54524D01*
X98163Y54485D01*
X98071Y54444D01*
X97980Y54398D01*
X97892Y54349D01*
X97805Y54297D01*
X97720Y54241D01*
X97638Y54182D01*
X97558Y54120D01*
X97480Y54055D01*
X97405Y53987D01*
X97333Y53916D01*
X97263Y53843D01*
X97197Y53766D01*
X97133Y53688D01*
X97073Y53606D01*
X97016Y53523D01*
X96962Y53437D01*
X96911Y53349D01*
X96864Y53260D01*
X96820Y53168D01*
X96780Y53075D01*
X96743Y52981D01*
X96711Y52885D01*
X96682Y52788D01*
X96656Y52690D01*
X96635Y52591D01*
X96617Y52491D01*
X96604Y52391D01*
X96594Y52290D01*
X96588Y52189D01*
X96586Y52088D01*
X96587Y52088D02*
X96587Y49478D01*
X96586Y49478D02*
X96588Y49352D01*
X96594Y49226D01*
X96603Y49100D01*
X96616Y48975D01*
X96634Y48850D01*
X96654Y48725D01*
X96679Y48601D01*
X96707Y48478D01*
X96739Y48356D01*
X96775Y48235D01*
X96814Y48115D01*
X96857Y47997D01*
X96904Y47880D01*
X96954Y47764D01*
X97008Y47649D01*
X97064Y47537D01*
X97125Y47426D01*
X97188Y47317D01*
X97255Y47210D01*
X97325Y47105D01*
X97399Y47002D01*
X97475Y46902D01*
X97554Y46804D01*
X97636Y46708D01*
X97722Y46615D01*
X97809Y46524D01*
X97900Y46437D01*
X97993Y46351D01*
X98089Y46269D01*
X98187Y46190D01*
X98287Y46114D01*
X98390Y46040D01*
X98495Y45970D01*
X98602Y45903D01*
X98711Y45840D01*
X98822Y45779D01*
X98934Y45723D01*
X99049Y45669D01*
X99165Y45619D01*
X99282Y45572D01*
X99400Y45529D01*
X99520Y45490D01*
X99641Y45454D01*
X99763Y45422D01*
X99886Y45394D01*
X100010Y45369D01*
X100135Y45349D01*
X100260Y45331D01*
X100385Y45318D01*
X100511Y45309D01*
X100637Y45303D01*
X100763Y45301D01*
D11*
X189450Y133530D02*
X202150Y133530D01*
M02*
