G04 EAGLE Gerber RS-274X export*
G75*
%MOMM*%
%FSLAX34Y34*%
%LPD*%
%INSilkscreen Top*%
%IPPOS*%
%AMOC8*
5,1,8,0,0,1.08239X$1,22.5*%
G01*
%ADD10C,0.076200*%
%ADD11C,0.203200*%
%ADD12C,0.127000*%
%ADD13C,0.200000*%
%ADD14C,0.152400*%


D10*
X283341Y344304D02*
X277803Y338766D01*
X277804Y338766D02*
X277751Y338711D01*
X277700Y338652D01*
X277653Y338592D01*
X277609Y338529D01*
X277568Y338464D01*
X277530Y338397D01*
X277495Y338329D01*
X277464Y338258D01*
X277437Y338187D01*
X277412Y338114D01*
X277392Y338040D01*
X277375Y337965D01*
X277362Y337889D01*
X277353Y337813D01*
X277347Y337736D01*
X277345Y337659D01*
X277347Y337582D01*
X277353Y337506D01*
X277362Y337429D01*
X277375Y337354D01*
X277392Y337279D01*
X277412Y337204D01*
X277437Y337131D01*
X277464Y337060D01*
X277495Y336989D01*
X277530Y336921D01*
X277568Y336854D01*
X277609Y336789D01*
X277653Y336726D01*
X277700Y336666D01*
X277751Y336607D01*
X277804Y336552D01*
X280024Y334331D02*
X284454Y338761D01*
X286115Y340792D02*
X286484Y341161D01*
X286854Y340792D01*
X286484Y340422D01*
X286115Y340792D01*
X287411Y335804D02*
X282981Y331373D01*
X287411Y335804D02*
X290734Y332481D01*
X290733Y332480D02*
X290786Y332425D01*
X290837Y332366D01*
X290884Y332306D01*
X290928Y332243D01*
X290969Y332178D01*
X291007Y332111D01*
X291042Y332043D01*
X291073Y331972D01*
X291100Y331901D01*
X291125Y331828D01*
X291145Y331754D01*
X291162Y331679D01*
X291175Y331603D01*
X291184Y331527D01*
X291190Y331450D01*
X291192Y331373D01*
X291190Y331296D01*
X291184Y331220D01*
X291175Y331143D01*
X291162Y331068D01*
X291145Y330993D01*
X291125Y330918D01*
X291100Y330845D01*
X291073Y330774D01*
X291042Y330703D01*
X291007Y330635D01*
X290969Y330568D01*
X290928Y330503D01*
X290884Y330440D01*
X290837Y330380D01*
X290786Y330321D01*
X290733Y330266D01*
X290734Y330266D02*
X287411Y326943D01*
X285196Y329158D02*
X289626Y333588D01*
X294799Y328416D02*
X290369Y323986D01*
X296460Y330446D02*
X296830Y330816D01*
X297199Y330446D01*
X296830Y330077D01*
X296460Y330446D01*
X296874Y326341D02*
X299089Y324126D01*
X299827Y327818D02*
X294289Y322280D01*
X294290Y322279D02*
X294237Y322224D01*
X294186Y322165D01*
X294139Y322105D01*
X294095Y322042D01*
X294054Y321977D01*
X294016Y321910D01*
X293981Y321842D01*
X293950Y321771D01*
X293923Y321700D01*
X293898Y321627D01*
X293878Y321553D01*
X293861Y321478D01*
X293848Y321402D01*
X293839Y321326D01*
X293833Y321249D01*
X293831Y321172D01*
X293833Y321095D01*
X293839Y321019D01*
X293848Y320942D01*
X293861Y320867D01*
X293878Y320792D01*
X293898Y320717D01*
X293923Y320644D01*
X293950Y320573D01*
X293981Y320502D01*
X294016Y320434D01*
X294054Y320367D01*
X294095Y320302D01*
X294139Y320239D01*
X294186Y320179D01*
X294237Y320120D01*
X294290Y320065D01*
X294289Y320065D02*
X294659Y319696D01*
X20699Y184707D02*
X11301Y187840D01*
X20699Y190972D01*
X18350Y190189D02*
X18350Y185490D01*
X11301Y197245D02*
X11303Y197340D01*
X11309Y197434D01*
X11318Y197528D01*
X11331Y197622D01*
X11348Y197715D01*
X11369Y197807D01*
X11394Y197899D01*
X11422Y197989D01*
X11454Y198078D01*
X11489Y198166D01*
X11528Y198252D01*
X11570Y198337D01*
X11616Y198420D01*
X11665Y198501D01*
X11717Y198580D01*
X11772Y198657D01*
X11831Y198731D01*
X11892Y198803D01*
X11956Y198873D01*
X12023Y198940D01*
X12093Y199004D01*
X12165Y199065D01*
X12239Y199124D01*
X12316Y199179D01*
X12395Y199231D01*
X12476Y199280D01*
X12559Y199326D01*
X12644Y199368D01*
X12730Y199407D01*
X12818Y199442D01*
X12907Y199474D01*
X12997Y199502D01*
X13089Y199527D01*
X13181Y199548D01*
X13274Y199565D01*
X13368Y199578D01*
X13462Y199587D01*
X13556Y199593D01*
X13651Y199595D01*
X11301Y197245D02*
X11303Y197137D01*
X11309Y197028D01*
X11319Y196920D01*
X11332Y196813D01*
X11350Y196706D01*
X11371Y196599D01*
X11396Y196494D01*
X11425Y196389D01*
X11457Y196286D01*
X11494Y196184D01*
X11534Y196083D01*
X11577Y195984D01*
X11624Y195886D01*
X11675Y195790D01*
X11729Y195696D01*
X11786Y195604D01*
X11847Y195514D01*
X11911Y195426D01*
X11977Y195341D01*
X12047Y195258D01*
X12120Y195178D01*
X12196Y195100D01*
X12274Y195025D01*
X12355Y194953D01*
X12439Y194884D01*
X12525Y194818D01*
X12613Y194755D01*
X12704Y194696D01*
X12796Y194639D01*
X12891Y194586D01*
X12988Y194537D01*
X13086Y194491D01*
X13185Y194448D01*
X13287Y194409D01*
X13389Y194374D01*
X15479Y198812D02*
X15410Y198881D01*
X15339Y198947D01*
X15266Y199011D01*
X15190Y199072D01*
X15111Y199130D01*
X15031Y199184D01*
X14948Y199236D01*
X14864Y199284D01*
X14778Y199330D01*
X14690Y199371D01*
X14600Y199410D01*
X14509Y199445D01*
X14417Y199476D01*
X14324Y199504D01*
X14230Y199528D01*
X14135Y199548D01*
X14039Y199565D01*
X13942Y199578D01*
X13845Y199587D01*
X13748Y199593D01*
X13651Y199595D01*
X15478Y198811D02*
X20699Y194373D01*
X20699Y199594D01*
X22265Y208261D02*
X9735Y208261D01*
X11301Y219539D02*
X20699Y216406D01*
X20699Y222671D02*
X11301Y219539D01*
X18350Y221888D02*
X18350Y217189D01*
X13389Y226072D02*
X11301Y228683D01*
X20699Y228683D01*
X20699Y231293D02*
X20699Y226072D01*
X36478Y308036D02*
X36478Y310646D01*
X36477Y310646D02*
X36479Y310747D01*
X36485Y310848D01*
X36495Y310949D01*
X36508Y311049D01*
X36526Y311149D01*
X36547Y311248D01*
X36573Y311346D01*
X36602Y311443D01*
X36634Y311539D01*
X36671Y311633D01*
X36711Y311726D01*
X36755Y311818D01*
X36802Y311907D01*
X36853Y311995D01*
X36907Y312081D01*
X36964Y312164D01*
X37024Y312246D01*
X37088Y312324D01*
X37154Y312401D01*
X37224Y312474D01*
X37296Y312545D01*
X37371Y312613D01*
X37449Y312678D01*
X37529Y312740D01*
X37611Y312799D01*
X37696Y312855D01*
X37783Y312907D01*
X37871Y312956D01*
X37962Y313002D01*
X38054Y313043D01*
X38148Y313082D01*
X38243Y313116D01*
X38339Y313147D01*
X38437Y313174D01*
X38535Y313198D01*
X38635Y313217D01*
X38735Y313233D01*
X38835Y313245D01*
X38936Y313253D01*
X39037Y313257D01*
X39139Y313257D01*
X39240Y313253D01*
X39341Y313245D01*
X39441Y313233D01*
X39541Y313217D01*
X39641Y313198D01*
X39739Y313174D01*
X39837Y313147D01*
X39933Y313116D01*
X40028Y313082D01*
X40122Y313043D01*
X40214Y313002D01*
X40305Y312956D01*
X40394Y312907D01*
X40480Y312855D01*
X40565Y312799D01*
X40647Y312740D01*
X40727Y312678D01*
X40805Y312613D01*
X40880Y312545D01*
X40952Y312474D01*
X41022Y312401D01*
X41088Y312324D01*
X41152Y312246D01*
X41212Y312164D01*
X41269Y312081D01*
X41323Y311995D01*
X41374Y311907D01*
X41421Y311818D01*
X41465Y311726D01*
X41505Y311633D01*
X41542Y311539D01*
X41574Y311443D01*
X41603Y311346D01*
X41629Y311248D01*
X41650Y311149D01*
X41668Y311049D01*
X41681Y310949D01*
X41691Y310848D01*
X41697Y310747D01*
X41699Y310646D01*
X41699Y308036D01*
X32301Y308036D01*
X32301Y310646D01*
X32303Y310736D01*
X32309Y310825D01*
X32318Y310915D01*
X32332Y311004D01*
X32349Y311092D01*
X32370Y311179D01*
X32395Y311266D01*
X32424Y311351D01*
X32456Y311435D01*
X32491Y311517D01*
X32531Y311598D01*
X32573Y311677D01*
X32619Y311754D01*
X32669Y311829D01*
X32721Y311902D01*
X32777Y311973D01*
X32835Y312041D01*
X32897Y312106D01*
X32961Y312169D01*
X33028Y312229D01*
X33097Y312286D01*
X33169Y312340D01*
X33243Y312391D01*
X33319Y312439D01*
X33397Y312483D01*
X33477Y312524D01*
X33559Y312562D01*
X33642Y312596D01*
X33727Y312626D01*
X33813Y312653D01*
X33899Y312676D01*
X33987Y312695D01*
X34076Y312710D01*
X34165Y312722D01*
X34254Y312730D01*
X34344Y312734D01*
X34434Y312734D01*
X34524Y312730D01*
X34613Y312722D01*
X34702Y312710D01*
X34791Y312695D01*
X34879Y312676D01*
X34965Y312653D01*
X35051Y312626D01*
X35136Y312596D01*
X35219Y312562D01*
X35301Y312524D01*
X35381Y312483D01*
X35459Y312439D01*
X35535Y312391D01*
X35609Y312340D01*
X35681Y312286D01*
X35750Y312229D01*
X35817Y312169D01*
X35881Y312106D01*
X35943Y312041D01*
X36001Y311973D01*
X36057Y311902D01*
X36109Y311829D01*
X36159Y311754D01*
X36205Y311677D01*
X36247Y311598D01*
X36287Y311517D01*
X36322Y311435D01*
X36354Y311351D01*
X36383Y311266D01*
X36408Y311179D01*
X36429Y311092D01*
X36446Y311004D01*
X36460Y310915D01*
X36469Y310825D01*
X36475Y310736D01*
X36477Y310646D01*
X32301Y319615D02*
X32303Y319710D01*
X32309Y319804D01*
X32318Y319898D01*
X32331Y319992D01*
X32348Y320085D01*
X32369Y320177D01*
X32394Y320269D01*
X32422Y320359D01*
X32454Y320448D01*
X32489Y320536D01*
X32528Y320622D01*
X32570Y320707D01*
X32616Y320790D01*
X32665Y320871D01*
X32717Y320950D01*
X32772Y321027D01*
X32831Y321101D01*
X32892Y321173D01*
X32956Y321243D01*
X33023Y321310D01*
X33093Y321374D01*
X33165Y321435D01*
X33239Y321494D01*
X33316Y321549D01*
X33395Y321601D01*
X33476Y321650D01*
X33559Y321696D01*
X33644Y321738D01*
X33730Y321777D01*
X33818Y321812D01*
X33907Y321844D01*
X33997Y321872D01*
X34089Y321897D01*
X34181Y321918D01*
X34274Y321935D01*
X34368Y321948D01*
X34462Y321957D01*
X34556Y321963D01*
X34651Y321965D01*
X32301Y319615D02*
X32303Y319507D01*
X32309Y319398D01*
X32319Y319290D01*
X32332Y319183D01*
X32350Y319076D01*
X32371Y318969D01*
X32396Y318864D01*
X32425Y318759D01*
X32457Y318656D01*
X32494Y318554D01*
X32534Y318453D01*
X32577Y318354D01*
X32624Y318256D01*
X32675Y318160D01*
X32729Y318066D01*
X32786Y317974D01*
X32847Y317884D01*
X32911Y317796D01*
X32977Y317711D01*
X33047Y317628D01*
X33120Y317548D01*
X33196Y317470D01*
X33274Y317395D01*
X33355Y317323D01*
X33439Y317254D01*
X33525Y317188D01*
X33613Y317125D01*
X33704Y317066D01*
X33796Y317009D01*
X33891Y316956D01*
X33988Y316907D01*
X34086Y316861D01*
X34185Y316818D01*
X34287Y316779D01*
X34389Y316744D01*
X36479Y321182D02*
X36410Y321251D01*
X36339Y321317D01*
X36266Y321381D01*
X36190Y321442D01*
X36111Y321500D01*
X36031Y321554D01*
X35948Y321606D01*
X35864Y321654D01*
X35778Y321700D01*
X35690Y321741D01*
X35600Y321780D01*
X35509Y321815D01*
X35417Y321846D01*
X35324Y321874D01*
X35230Y321898D01*
X35135Y321918D01*
X35039Y321935D01*
X34942Y321948D01*
X34845Y321957D01*
X34748Y321963D01*
X34651Y321965D01*
X36478Y321181D02*
X41699Y316743D01*
X41699Y321965D01*
X103035Y410522D02*
X105646Y410522D01*
X105646Y410523D02*
X105747Y410521D01*
X105848Y410515D01*
X105949Y410505D01*
X106049Y410492D01*
X106149Y410474D01*
X106248Y410453D01*
X106346Y410427D01*
X106443Y410398D01*
X106539Y410366D01*
X106633Y410329D01*
X106726Y410289D01*
X106818Y410245D01*
X106907Y410198D01*
X106995Y410147D01*
X107081Y410093D01*
X107164Y410036D01*
X107246Y409976D01*
X107324Y409912D01*
X107401Y409846D01*
X107474Y409776D01*
X107545Y409704D01*
X107613Y409629D01*
X107678Y409551D01*
X107740Y409471D01*
X107799Y409389D01*
X107855Y409304D01*
X107907Y409217D01*
X107956Y409129D01*
X108002Y409038D01*
X108043Y408946D01*
X108082Y408852D01*
X108116Y408757D01*
X108147Y408661D01*
X108174Y408563D01*
X108198Y408465D01*
X108217Y408365D01*
X108233Y408265D01*
X108245Y408165D01*
X108253Y408064D01*
X108257Y407963D01*
X108257Y407861D01*
X108253Y407760D01*
X108245Y407659D01*
X108233Y407559D01*
X108217Y407459D01*
X108198Y407359D01*
X108174Y407261D01*
X108147Y407163D01*
X108116Y407067D01*
X108082Y406972D01*
X108043Y406878D01*
X108002Y406786D01*
X107956Y406695D01*
X107907Y406607D01*
X107855Y406520D01*
X107799Y406435D01*
X107740Y406353D01*
X107678Y406273D01*
X107613Y406195D01*
X107545Y406120D01*
X107474Y406048D01*
X107401Y405978D01*
X107324Y405912D01*
X107246Y405848D01*
X107164Y405788D01*
X107081Y405731D01*
X106995Y405677D01*
X106907Y405626D01*
X106818Y405579D01*
X106726Y405535D01*
X106633Y405495D01*
X106539Y405458D01*
X106443Y405426D01*
X106346Y405397D01*
X106248Y405371D01*
X106149Y405350D01*
X106049Y405332D01*
X105949Y405319D01*
X105848Y405309D01*
X105747Y405303D01*
X105646Y405301D01*
X103035Y405301D01*
X103035Y414699D01*
X105646Y414699D01*
X105736Y414697D01*
X105825Y414691D01*
X105915Y414682D01*
X106004Y414668D01*
X106092Y414651D01*
X106179Y414630D01*
X106266Y414605D01*
X106351Y414576D01*
X106435Y414544D01*
X106517Y414509D01*
X106598Y414469D01*
X106677Y414427D01*
X106754Y414381D01*
X106829Y414331D01*
X106902Y414279D01*
X106973Y414223D01*
X107041Y414165D01*
X107106Y414103D01*
X107169Y414039D01*
X107229Y413972D01*
X107286Y413903D01*
X107340Y413831D01*
X107391Y413757D01*
X107439Y413681D01*
X107483Y413603D01*
X107524Y413523D01*
X107562Y413441D01*
X107596Y413358D01*
X107626Y413273D01*
X107653Y413187D01*
X107676Y413101D01*
X107695Y413013D01*
X107710Y412924D01*
X107722Y412835D01*
X107730Y412746D01*
X107734Y412656D01*
X107734Y412566D01*
X107730Y412476D01*
X107722Y412387D01*
X107710Y412298D01*
X107695Y412209D01*
X107676Y412121D01*
X107653Y412035D01*
X107626Y411949D01*
X107596Y411864D01*
X107562Y411781D01*
X107524Y411699D01*
X107483Y411619D01*
X107439Y411541D01*
X107391Y411465D01*
X107340Y411391D01*
X107286Y411319D01*
X107229Y411250D01*
X107169Y411183D01*
X107106Y411119D01*
X107041Y411057D01*
X106973Y410999D01*
X106902Y410943D01*
X106829Y410891D01*
X106754Y410841D01*
X106677Y410795D01*
X106598Y410753D01*
X106517Y410713D01*
X106435Y410678D01*
X106351Y410646D01*
X106266Y410617D01*
X106179Y410592D01*
X106092Y410571D01*
X106004Y410554D01*
X105915Y410540D01*
X105825Y410531D01*
X105736Y410525D01*
X105646Y410523D01*
X111743Y412611D02*
X114354Y414699D01*
X114354Y405301D01*
X111743Y405301D02*
X116965Y405301D01*
X268434Y387040D02*
X276265Y387040D01*
X276342Y387038D01*
X276418Y387032D01*
X276495Y387023D01*
X276571Y387010D01*
X276646Y386993D01*
X276720Y386973D01*
X276793Y386948D01*
X276864Y386921D01*
X276935Y386890D01*
X277003Y386855D01*
X277070Y386817D01*
X277135Y386776D01*
X277198Y386732D01*
X277258Y386685D01*
X277317Y386634D01*
X277372Y386581D01*
X277425Y386526D01*
X277476Y386467D01*
X277523Y386407D01*
X277567Y386344D01*
X277608Y386279D01*
X277646Y386212D01*
X277681Y386144D01*
X277712Y386073D01*
X277739Y386002D01*
X277764Y385929D01*
X277784Y385855D01*
X277801Y385780D01*
X277814Y385704D01*
X277823Y385627D01*
X277829Y385551D01*
X277831Y385474D01*
X277832Y385474D02*
X277832Y384952D01*
X265823Y386779D02*
X265301Y386779D01*
X265301Y387301D01*
X265823Y387301D01*
X265823Y386779D01*
X268434Y390128D02*
X268434Y393260D01*
X265301Y391172D02*
X273133Y391172D01*
X273210Y391174D01*
X273286Y391180D01*
X273363Y391189D01*
X273439Y391202D01*
X273514Y391219D01*
X273588Y391239D01*
X273661Y391264D01*
X273732Y391291D01*
X273803Y391322D01*
X273871Y391357D01*
X273938Y391395D01*
X274003Y391436D01*
X274066Y391480D01*
X274126Y391527D01*
X274185Y391578D01*
X274240Y391631D01*
X274293Y391686D01*
X274344Y391745D01*
X274391Y391805D01*
X274435Y391868D01*
X274476Y391933D01*
X274514Y392000D01*
X274549Y392068D01*
X274580Y392139D01*
X274607Y392210D01*
X274632Y392283D01*
X274652Y392357D01*
X274669Y392432D01*
X274682Y392508D01*
X274691Y392585D01*
X274697Y392661D01*
X274699Y392738D01*
X274699Y393260D01*
X271044Y398469D02*
X271044Y400819D01*
X271045Y398469D02*
X271047Y398385D01*
X271053Y398300D01*
X271063Y398217D01*
X271076Y398133D01*
X271094Y398051D01*
X271115Y397969D01*
X271140Y397888D01*
X271168Y397809D01*
X271201Y397731D01*
X271237Y397655D01*
X271276Y397580D01*
X271319Y397507D01*
X271365Y397436D01*
X271414Y397368D01*
X271466Y397302D01*
X271522Y397238D01*
X271580Y397177D01*
X271641Y397119D01*
X271705Y397063D01*
X271771Y397011D01*
X271839Y396962D01*
X271910Y396916D01*
X271983Y396873D01*
X272058Y396834D01*
X272134Y396798D01*
X272212Y396765D01*
X272291Y396737D01*
X272372Y396712D01*
X272454Y396691D01*
X272536Y396673D01*
X272620Y396660D01*
X272703Y396650D01*
X272788Y396644D01*
X272872Y396642D01*
X272956Y396644D01*
X273041Y396650D01*
X273124Y396660D01*
X273208Y396673D01*
X273290Y396691D01*
X273372Y396712D01*
X273453Y396737D01*
X273532Y396765D01*
X273610Y396798D01*
X273686Y396834D01*
X273761Y396873D01*
X273834Y396916D01*
X273905Y396962D01*
X273973Y397011D01*
X274039Y397063D01*
X274103Y397119D01*
X274164Y397177D01*
X274222Y397238D01*
X274278Y397302D01*
X274330Y397368D01*
X274379Y397436D01*
X274425Y397507D01*
X274468Y397580D01*
X274507Y397655D01*
X274543Y397731D01*
X274576Y397809D01*
X274604Y397888D01*
X274629Y397969D01*
X274650Y398051D01*
X274668Y398133D01*
X274681Y398217D01*
X274691Y398300D01*
X274697Y398385D01*
X274699Y398469D01*
X274699Y400819D01*
X270000Y400819D01*
X270000Y400818D02*
X269923Y400816D01*
X269847Y400810D01*
X269770Y400801D01*
X269694Y400788D01*
X269619Y400771D01*
X269545Y400751D01*
X269472Y400726D01*
X269401Y400699D01*
X269330Y400668D01*
X269262Y400633D01*
X269195Y400595D01*
X269130Y400554D01*
X269067Y400510D01*
X269007Y400463D01*
X268948Y400412D01*
X268893Y400359D01*
X268840Y400304D01*
X268789Y400245D01*
X268742Y400185D01*
X268698Y400122D01*
X268657Y400057D01*
X268619Y399990D01*
X268584Y399922D01*
X268553Y399851D01*
X268526Y399780D01*
X268501Y399707D01*
X268481Y399633D01*
X268464Y399558D01*
X268451Y399482D01*
X268442Y399405D01*
X268436Y399329D01*
X268434Y399252D01*
X268434Y397164D01*
X274699Y406438D02*
X274699Y409048D01*
X274699Y406438D02*
X274697Y406361D01*
X274691Y406285D01*
X274682Y406208D01*
X274669Y406132D01*
X274652Y406057D01*
X274632Y405983D01*
X274607Y405910D01*
X274580Y405839D01*
X274549Y405768D01*
X274514Y405700D01*
X274476Y405633D01*
X274435Y405568D01*
X274391Y405505D01*
X274344Y405445D01*
X274293Y405386D01*
X274240Y405331D01*
X274185Y405278D01*
X274126Y405227D01*
X274066Y405180D01*
X274003Y405136D01*
X273938Y405095D01*
X273871Y405057D01*
X273803Y405022D01*
X273732Y404991D01*
X273661Y404964D01*
X273588Y404939D01*
X273514Y404919D01*
X273439Y404902D01*
X273363Y404889D01*
X273286Y404880D01*
X273210Y404874D01*
X273133Y404872D01*
X273133Y404871D02*
X270000Y404871D01*
X270000Y404872D02*
X269923Y404874D01*
X269847Y404880D01*
X269770Y404889D01*
X269694Y404902D01*
X269619Y404919D01*
X269545Y404939D01*
X269472Y404964D01*
X269401Y404991D01*
X269330Y405022D01*
X269262Y405057D01*
X269195Y405095D01*
X269130Y405136D01*
X269067Y405180D01*
X269007Y405227D01*
X268948Y405278D01*
X268893Y405331D01*
X268840Y405386D01*
X268789Y405445D01*
X268742Y405505D01*
X268698Y405568D01*
X268657Y405633D01*
X268619Y405700D01*
X268584Y405768D01*
X268553Y405839D01*
X268526Y405910D01*
X268501Y405983D01*
X268481Y406057D01*
X268464Y406132D01*
X268451Y406208D01*
X268442Y406285D01*
X268436Y406361D01*
X268434Y406438D01*
X268434Y409048D01*
X276265Y409048D01*
X276342Y409046D01*
X276418Y409040D01*
X276495Y409031D01*
X276571Y409018D01*
X276646Y409001D01*
X276720Y408981D01*
X276793Y408956D01*
X276864Y408929D01*
X276935Y408898D01*
X277003Y408863D01*
X277070Y408825D01*
X277135Y408784D01*
X277198Y408740D01*
X277258Y408693D01*
X277317Y408642D01*
X277372Y408589D01*
X277425Y408534D01*
X277476Y408475D01*
X277523Y408415D01*
X277567Y408352D01*
X277608Y408287D01*
X277646Y408220D01*
X277681Y408152D01*
X277712Y408081D01*
X277739Y408010D01*
X277764Y407937D01*
X277784Y407863D01*
X277801Y407788D01*
X277814Y407712D01*
X277823Y407635D01*
X277829Y407559D01*
X277831Y407482D01*
X277832Y407482D02*
X277832Y405393D01*
X212779Y136566D02*
X212779Y131867D01*
X212781Y131790D01*
X212787Y131714D01*
X212796Y131637D01*
X212809Y131561D01*
X212826Y131486D01*
X212846Y131412D01*
X212871Y131339D01*
X212898Y131268D01*
X212929Y131197D01*
X212964Y131129D01*
X213002Y131062D01*
X213043Y130997D01*
X213087Y130934D01*
X213134Y130874D01*
X213185Y130815D01*
X213238Y130760D01*
X213293Y130707D01*
X213352Y130656D01*
X213412Y130609D01*
X213475Y130565D01*
X213540Y130524D01*
X213607Y130486D01*
X213675Y130451D01*
X213746Y130420D01*
X213817Y130393D01*
X213890Y130368D01*
X213964Y130348D01*
X214039Y130331D01*
X214115Y130318D01*
X214192Y130309D01*
X214268Y130303D01*
X214345Y130301D01*
X216956Y130301D01*
X216956Y136566D01*
X222585Y130301D02*
X224674Y130301D01*
X222585Y130301D02*
X222508Y130303D01*
X222432Y130309D01*
X222355Y130318D01*
X222279Y130331D01*
X222204Y130348D01*
X222130Y130368D01*
X222057Y130393D01*
X221986Y130420D01*
X221915Y130451D01*
X221847Y130486D01*
X221780Y130524D01*
X221715Y130565D01*
X221652Y130609D01*
X221592Y130656D01*
X221533Y130707D01*
X221478Y130760D01*
X221425Y130815D01*
X221374Y130874D01*
X221327Y130934D01*
X221283Y130997D01*
X221242Y131062D01*
X221204Y131129D01*
X221169Y131197D01*
X221138Y131268D01*
X221111Y131339D01*
X221086Y131412D01*
X221066Y131486D01*
X221049Y131561D01*
X221036Y131637D01*
X221027Y131714D01*
X221021Y131790D01*
X221019Y131867D01*
X221019Y135000D01*
X221021Y135077D01*
X221027Y135153D01*
X221036Y135230D01*
X221049Y135306D01*
X221066Y135381D01*
X221086Y135455D01*
X221111Y135528D01*
X221138Y135599D01*
X221169Y135670D01*
X221204Y135738D01*
X221242Y135805D01*
X221283Y135870D01*
X221327Y135933D01*
X221374Y135993D01*
X221425Y136052D01*
X221478Y136107D01*
X221533Y136160D01*
X221592Y136211D01*
X221652Y136258D01*
X221715Y136302D01*
X221780Y136343D01*
X221847Y136381D01*
X221915Y136416D01*
X221986Y136447D01*
X222057Y136474D01*
X222130Y136499D01*
X222204Y136519D01*
X222279Y136536D01*
X222355Y136549D01*
X222432Y136558D01*
X222508Y136564D01*
X222585Y136566D01*
X224674Y136566D01*
X228370Y139699D02*
X228370Y130301D01*
X230980Y130301D01*
X231057Y130303D01*
X231133Y130309D01*
X231210Y130318D01*
X231286Y130331D01*
X231361Y130348D01*
X231435Y130368D01*
X231508Y130393D01*
X231579Y130420D01*
X231650Y130451D01*
X231718Y130486D01*
X231785Y130524D01*
X231850Y130565D01*
X231913Y130609D01*
X231973Y130656D01*
X232032Y130707D01*
X232087Y130760D01*
X232140Y130815D01*
X232191Y130874D01*
X232238Y130934D01*
X232282Y130997D01*
X232323Y131062D01*
X232361Y131129D01*
X232396Y131197D01*
X232427Y131268D01*
X232454Y131339D01*
X232479Y131412D01*
X232499Y131486D01*
X232516Y131561D01*
X232529Y131637D01*
X232538Y131713D01*
X232544Y131790D01*
X232546Y131867D01*
X232546Y135000D01*
X232544Y135077D01*
X232538Y135153D01*
X232529Y135230D01*
X232516Y135306D01*
X232499Y135381D01*
X232479Y135455D01*
X232454Y135528D01*
X232427Y135599D01*
X232396Y135670D01*
X232361Y135738D01*
X232323Y135805D01*
X232282Y135870D01*
X232238Y135933D01*
X232191Y135993D01*
X232140Y136052D01*
X232087Y136107D01*
X232032Y136160D01*
X231973Y136211D01*
X231913Y136258D01*
X231850Y136302D01*
X231785Y136343D01*
X231718Y136381D01*
X231650Y136416D01*
X231579Y136447D01*
X231508Y136474D01*
X231435Y136499D01*
X231361Y136519D01*
X231286Y136536D01*
X231210Y136549D01*
X231133Y136558D01*
X231057Y136564D01*
X230980Y136566D01*
X228370Y136566D01*
X236553Y136566D02*
X236553Y131867D01*
X236554Y131867D02*
X236556Y131790D01*
X236562Y131714D01*
X236571Y131637D01*
X236584Y131561D01*
X236601Y131486D01*
X236621Y131412D01*
X236646Y131339D01*
X236673Y131268D01*
X236704Y131197D01*
X236739Y131129D01*
X236777Y131062D01*
X236818Y130997D01*
X236862Y130934D01*
X236909Y130874D01*
X236960Y130815D01*
X237013Y130760D01*
X237068Y130707D01*
X237127Y130656D01*
X237187Y130609D01*
X237250Y130565D01*
X237315Y130524D01*
X237382Y130486D01*
X237450Y130451D01*
X237521Y130420D01*
X237592Y130393D01*
X237665Y130368D01*
X237739Y130348D01*
X237814Y130331D01*
X237890Y130318D01*
X237967Y130309D01*
X238043Y130303D01*
X238120Y130301D01*
X240730Y130301D01*
X240730Y136566D01*
X245566Y133956D02*
X248177Y132912D01*
X245566Y133956D02*
X245500Y133984D01*
X245435Y134017D01*
X245372Y134052D01*
X245311Y134091D01*
X245252Y134133D01*
X245196Y134178D01*
X245142Y134226D01*
X245091Y134277D01*
X245042Y134330D01*
X244997Y134387D01*
X244954Y134445D01*
X244915Y134505D01*
X244878Y134568D01*
X244846Y134633D01*
X244817Y134699D01*
X244791Y134766D01*
X244769Y134835D01*
X244751Y134905D01*
X244736Y134976D01*
X244725Y135047D01*
X244718Y135119D01*
X244715Y135191D01*
X244716Y135263D01*
X244721Y135336D01*
X244729Y135407D01*
X244741Y135479D01*
X244757Y135549D01*
X244777Y135618D01*
X244801Y135687D01*
X244828Y135754D01*
X244858Y135819D01*
X244892Y135883D01*
X244930Y135945D01*
X244970Y136005D01*
X245014Y136062D01*
X245061Y136117D01*
X245111Y136170D01*
X245163Y136219D01*
X245218Y136266D01*
X245275Y136310D01*
X245335Y136351D01*
X245397Y136388D01*
X245461Y136423D01*
X245526Y136453D01*
X245593Y136481D01*
X245661Y136504D01*
X245731Y136524D01*
X245801Y136540D01*
X245872Y136553D01*
X245944Y136561D01*
X246016Y136566D01*
X246088Y136567D01*
X246089Y136566D02*
X246240Y136562D01*
X246391Y136554D01*
X246542Y136543D01*
X246693Y136527D01*
X246843Y136507D01*
X246993Y136484D01*
X247142Y136457D01*
X247290Y136426D01*
X247438Y136391D01*
X247584Y136353D01*
X247730Y136310D01*
X247874Y136264D01*
X248017Y136215D01*
X248159Y136162D01*
X248299Y136105D01*
X248438Y136044D01*
X248177Y132912D02*
X248243Y132884D01*
X248308Y132851D01*
X248371Y132816D01*
X248432Y132777D01*
X248491Y132735D01*
X248547Y132690D01*
X248601Y132642D01*
X248652Y132591D01*
X248701Y132538D01*
X248746Y132481D01*
X248789Y132423D01*
X248828Y132363D01*
X248865Y132300D01*
X248897Y132235D01*
X248926Y132169D01*
X248952Y132102D01*
X248974Y132033D01*
X248992Y131963D01*
X249007Y131892D01*
X249018Y131821D01*
X249025Y131749D01*
X249028Y131677D01*
X249027Y131605D01*
X249022Y131532D01*
X249014Y131461D01*
X249002Y131389D01*
X248986Y131319D01*
X248966Y131250D01*
X248942Y131181D01*
X248915Y131114D01*
X248885Y131049D01*
X248851Y130985D01*
X248813Y130923D01*
X248773Y130863D01*
X248729Y130806D01*
X248682Y130751D01*
X248632Y130698D01*
X248580Y130649D01*
X248525Y130602D01*
X248468Y130558D01*
X248408Y130517D01*
X248346Y130480D01*
X248282Y130445D01*
X248217Y130415D01*
X248150Y130387D01*
X248082Y130364D01*
X248012Y130344D01*
X247942Y130328D01*
X247871Y130315D01*
X247799Y130307D01*
X247727Y130302D01*
X247655Y130301D01*
X247445Y130306D01*
X247236Y130317D01*
X247027Y130332D01*
X246819Y130352D01*
X246611Y130378D01*
X246404Y130408D01*
X246197Y130443D01*
X245992Y130483D01*
X245787Y130527D01*
X245584Y130577D01*
X245381Y130631D01*
X245180Y130691D01*
X244981Y130754D01*
X244783Y130823D01*
X272021Y190545D02*
X273683Y192206D01*
X272022Y190545D02*
X271964Y190484D01*
X271908Y190420D01*
X271856Y190354D01*
X271807Y190286D01*
X271761Y190215D01*
X271718Y190142D01*
X271679Y190067D01*
X271643Y189991D01*
X271610Y189913D01*
X271582Y189834D01*
X271557Y189753D01*
X271536Y189671D01*
X271518Y189589D01*
X271505Y189505D01*
X271495Y189422D01*
X271489Y189337D01*
X271487Y189253D01*
X271489Y189169D01*
X271495Y189084D01*
X271505Y189001D01*
X271518Y188917D01*
X271536Y188835D01*
X271557Y188753D01*
X271582Y188672D01*
X271610Y188593D01*
X271643Y188515D01*
X271679Y188439D01*
X271718Y188364D01*
X271761Y188291D01*
X271807Y188221D01*
X271856Y188152D01*
X271908Y188086D01*
X271964Y188022D01*
X272022Y187961D01*
X272083Y187903D01*
X272147Y187847D01*
X272213Y187795D01*
X272281Y187746D01*
X272352Y187700D01*
X272425Y187657D01*
X272500Y187618D01*
X272576Y187582D01*
X272654Y187549D01*
X272733Y187521D01*
X272814Y187496D01*
X272896Y187475D01*
X272978Y187457D01*
X273062Y187444D01*
X273145Y187434D01*
X273230Y187428D01*
X273314Y187426D01*
X273398Y187428D01*
X273483Y187434D01*
X273566Y187444D01*
X273650Y187457D01*
X273732Y187475D01*
X273814Y187496D01*
X273895Y187521D01*
X273974Y187549D01*
X274052Y187582D01*
X274128Y187618D01*
X274203Y187657D01*
X274276Y187700D01*
X274346Y187746D01*
X274415Y187795D01*
X274481Y187847D01*
X274545Y187903D01*
X274606Y187961D01*
X274606Y187960D02*
X276267Y189622D01*
X272944Y192944D01*
X272889Y192997D01*
X272830Y193048D01*
X272770Y193095D01*
X272707Y193139D01*
X272642Y193180D01*
X272575Y193218D01*
X272507Y193253D01*
X272436Y193284D01*
X272365Y193311D01*
X272292Y193336D01*
X272218Y193356D01*
X272143Y193373D01*
X272067Y193386D01*
X271990Y193395D01*
X271914Y193401D01*
X271837Y193403D01*
X271760Y193401D01*
X271683Y193395D01*
X271607Y193386D01*
X271531Y193373D01*
X271456Y193356D01*
X271382Y193336D01*
X271309Y193311D01*
X271238Y193284D01*
X271167Y193253D01*
X271099Y193218D01*
X271032Y193180D01*
X270967Y193139D01*
X270904Y193095D01*
X270844Y193048D01*
X270785Y192997D01*
X270730Y192944D01*
X270729Y192944D02*
X269252Y191468D01*
X275441Y202086D02*
X282086Y195441D01*
X280240Y193595D01*
X280185Y193542D01*
X280126Y193491D01*
X280066Y193444D01*
X280003Y193400D01*
X279938Y193359D01*
X279871Y193321D01*
X279803Y193286D01*
X279732Y193255D01*
X279661Y193228D01*
X279588Y193203D01*
X279514Y193183D01*
X279439Y193166D01*
X279363Y193153D01*
X279287Y193144D01*
X279210Y193138D01*
X279133Y193136D01*
X279056Y193138D01*
X278980Y193144D01*
X278903Y193153D01*
X278828Y193166D01*
X278753Y193183D01*
X278678Y193203D01*
X278605Y193228D01*
X278534Y193255D01*
X278463Y193286D01*
X278395Y193321D01*
X278328Y193359D01*
X278263Y193400D01*
X278200Y193444D01*
X278140Y193491D01*
X278081Y193542D01*
X278026Y193595D01*
X278025Y193595D02*
X275810Y195810D01*
X275811Y195811D02*
X275758Y195866D01*
X275707Y195925D01*
X275660Y195985D01*
X275616Y196048D01*
X275575Y196113D01*
X275537Y196180D01*
X275502Y196248D01*
X275471Y196319D01*
X275444Y196390D01*
X275419Y196463D01*
X275399Y196538D01*
X275382Y196612D01*
X275369Y196688D01*
X275360Y196765D01*
X275354Y196841D01*
X275352Y196918D01*
X275354Y196995D01*
X275360Y197072D01*
X275369Y197148D01*
X275382Y197224D01*
X275399Y197299D01*
X275419Y197373D01*
X275444Y197446D01*
X275471Y197517D01*
X275502Y197588D01*
X275537Y197656D01*
X275575Y197723D01*
X275616Y197788D01*
X275660Y197851D01*
X275707Y197911D01*
X275758Y197970D01*
X275811Y198025D01*
X275810Y198025D02*
X277656Y199871D01*
X281260Y207905D02*
X287905Y201260D01*
X286059Y199414D01*
X286059Y199415D02*
X286004Y199362D01*
X285945Y199311D01*
X285885Y199264D01*
X285822Y199220D01*
X285757Y199179D01*
X285690Y199141D01*
X285622Y199106D01*
X285551Y199075D01*
X285480Y199048D01*
X285407Y199023D01*
X285333Y199003D01*
X285258Y198986D01*
X285182Y198973D01*
X285106Y198964D01*
X285029Y198958D01*
X284952Y198956D01*
X284875Y198958D01*
X284799Y198964D01*
X284722Y198973D01*
X284647Y198986D01*
X284572Y199003D01*
X284497Y199023D01*
X284424Y199048D01*
X284353Y199075D01*
X284282Y199106D01*
X284214Y199141D01*
X284147Y199179D01*
X284082Y199220D01*
X284019Y199264D01*
X283959Y199311D01*
X283900Y199362D01*
X283845Y199415D01*
X283844Y199414D02*
X281629Y201629D01*
X281630Y201630D02*
X281577Y201685D01*
X281526Y201744D01*
X281479Y201804D01*
X281435Y201867D01*
X281394Y201932D01*
X281356Y201999D01*
X281321Y202067D01*
X281290Y202138D01*
X281263Y202209D01*
X281238Y202282D01*
X281218Y202357D01*
X281201Y202431D01*
X281188Y202507D01*
X281179Y202584D01*
X281173Y202660D01*
X281171Y202737D01*
X281173Y202814D01*
X281179Y202891D01*
X281188Y202967D01*
X281201Y203043D01*
X281218Y203118D01*
X281238Y203192D01*
X281263Y203265D01*
X281290Y203336D01*
X281321Y203407D01*
X281356Y203475D01*
X281394Y203542D01*
X281435Y203607D01*
X281479Y203670D01*
X281526Y203730D01*
X281577Y203789D01*
X281630Y203844D01*
X281629Y203844D02*
X283475Y205690D01*
X286625Y208840D02*
X291055Y204410D01*
X286625Y208840D02*
X288840Y211055D01*
X289578Y210317D01*
X294471Y216686D02*
X300747Y219271D01*
X298163Y212994D01*
X106993Y176347D02*
X102562Y180778D01*
X105885Y184100D01*
X105886Y184100D02*
X105941Y184153D01*
X106000Y184204D01*
X106060Y184251D01*
X106123Y184295D01*
X106188Y184336D01*
X106255Y184374D01*
X106323Y184409D01*
X106394Y184440D01*
X106465Y184467D01*
X106538Y184492D01*
X106613Y184512D01*
X106687Y184529D01*
X106763Y184542D01*
X106840Y184551D01*
X106916Y184557D01*
X106993Y184559D01*
X107070Y184557D01*
X107147Y184551D01*
X107223Y184542D01*
X107299Y184529D01*
X107374Y184512D01*
X107448Y184492D01*
X107521Y184467D01*
X107592Y184440D01*
X107663Y184409D01*
X107731Y184374D01*
X107798Y184336D01*
X107863Y184295D01*
X107926Y184251D01*
X107986Y184204D01*
X108045Y184153D01*
X108100Y184100D01*
X111423Y180778D01*
X109208Y178562D02*
X104778Y182993D01*
X109439Y187654D02*
X111654Y189869D01*
X107962Y190607D02*
X113500Y185069D01*
X113500Y185070D02*
X113555Y185017D01*
X113614Y184966D01*
X113674Y184919D01*
X113737Y184875D01*
X113802Y184834D01*
X113869Y184796D01*
X113937Y184761D01*
X114008Y184730D01*
X114079Y184703D01*
X114152Y184678D01*
X114227Y184658D01*
X114301Y184641D01*
X114377Y184628D01*
X114454Y184619D01*
X114530Y184613D01*
X114607Y184611D01*
X114684Y184613D01*
X114761Y184619D01*
X114837Y184628D01*
X114913Y184641D01*
X114988Y184658D01*
X115062Y184678D01*
X115135Y184703D01*
X115206Y184730D01*
X115277Y184761D01*
X115345Y184796D01*
X115412Y184834D01*
X115477Y184875D01*
X115540Y184919D01*
X115600Y184966D01*
X115659Y185017D01*
X115714Y185070D01*
X115715Y185069D02*
X116084Y185439D01*
X118847Y188201D02*
X114416Y192631D01*
X117739Y195954D01*
X117794Y196007D01*
X117853Y196058D01*
X117913Y196105D01*
X117976Y196149D01*
X118041Y196190D01*
X118108Y196228D01*
X118176Y196263D01*
X118247Y196294D01*
X118318Y196321D01*
X118391Y196346D01*
X118466Y196366D01*
X118540Y196383D01*
X118616Y196396D01*
X118693Y196405D01*
X118769Y196411D01*
X118846Y196413D01*
X118923Y196411D01*
X119000Y196405D01*
X119076Y196396D01*
X119152Y196383D01*
X119227Y196366D01*
X119301Y196346D01*
X119374Y196321D01*
X119445Y196294D01*
X119516Y196263D01*
X119584Y196228D01*
X119651Y196190D01*
X119716Y196149D01*
X119779Y196105D01*
X119839Y196058D01*
X119898Y196007D01*
X119953Y195954D01*
X119954Y195954D02*
X123277Y192631D01*
X121062Y190416D02*
X116631Y194846D01*
X125680Y195773D02*
X126050Y195404D01*
X125680Y195773D02*
X126050Y196143D01*
X126419Y195773D01*
X126050Y195404D01*
X129967Y199322D02*
X131444Y200799D01*
X129967Y199322D02*
X129912Y199269D01*
X129853Y199218D01*
X129793Y199171D01*
X129730Y199127D01*
X129665Y199086D01*
X129598Y199048D01*
X129530Y199013D01*
X129459Y198982D01*
X129388Y198955D01*
X129315Y198930D01*
X129241Y198910D01*
X129166Y198893D01*
X129090Y198880D01*
X129014Y198871D01*
X128937Y198865D01*
X128860Y198863D01*
X128783Y198865D01*
X128707Y198871D01*
X128630Y198880D01*
X128555Y198893D01*
X128480Y198910D01*
X128405Y198930D01*
X128332Y198955D01*
X128261Y198982D01*
X128190Y199013D01*
X128122Y199048D01*
X128055Y199086D01*
X127990Y199127D01*
X127927Y199171D01*
X127867Y199218D01*
X127808Y199269D01*
X127753Y199322D01*
X127752Y199322D02*
X125537Y201537D01*
X125538Y201538D02*
X125485Y201593D01*
X125434Y201652D01*
X125387Y201712D01*
X125343Y201775D01*
X125302Y201840D01*
X125264Y201907D01*
X125229Y201975D01*
X125198Y202046D01*
X125171Y202117D01*
X125146Y202190D01*
X125126Y202265D01*
X125109Y202339D01*
X125096Y202415D01*
X125087Y202492D01*
X125081Y202568D01*
X125079Y202645D01*
X125081Y202722D01*
X125087Y202799D01*
X125096Y202875D01*
X125109Y202951D01*
X125126Y203026D01*
X125146Y203100D01*
X125171Y203173D01*
X125198Y203244D01*
X125229Y203315D01*
X125264Y203383D01*
X125302Y203450D01*
X125343Y203515D01*
X125387Y203578D01*
X125434Y203638D01*
X125485Y203697D01*
X125538Y203752D01*
X125537Y203752D02*
X127014Y205229D01*
X127412Y210057D02*
X134057Y203412D01*
X135903Y205258D01*
X135956Y205313D01*
X136007Y205372D01*
X136054Y205432D01*
X136098Y205495D01*
X136139Y205560D01*
X136177Y205627D01*
X136212Y205695D01*
X136243Y205766D01*
X136270Y205837D01*
X136295Y205910D01*
X136315Y205984D01*
X136332Y206059D01*
X136345Y206135D01*
X136354Y206211D01*
X136360Y206288D01*
X136362Y206365D01*
X136360Y206442D01*
X136354Y206518D01*
X136345Y206595D01*
X136332Y206670D01*
X136315Y206745D01*
X136295Y206820D01*
X136270Y206893D01*
X136243Y206964D01*
X136212Y207035D01*
X136177Y207103D01*
X136139Y207170D01*
X136098Y207235D01*
X136054Y207298D01*
X136007Y207358D01*
X135956Y207417D01*
X135903Y207472D01*
X135903Y207473D02*
X133688Y209688D01*
X133687Y209687D02*
X133632Y209740D01*
X133573Y209791D01*
X133513Y209838D01*
X133450Y209882D01*
X133385Y209923D01*
X133318Y209961D01*
X133250Y209996D01*
X133179Y210027D01*
X133108Y210054D01*
X133035Y210079D01*
X132960Y210099D01*
X132886Y210116D01*
X132810Y210129D01*
X132733Y210138D01*
X132657Y210144D01*
X132580Y210146D01*
X132503Y210144D01*
X132426Y210138D01*
X132350Y210129D01*
X132274Y210116D01*
X132199Y210099D01*
X132125Y210079D01*
X132052Y210054D01*
X131981Y210027D01*
X131910Y209996D01*
X131842Y209961D01*
X131775Y209923D01*
X131710Y209882D01*
X131647Y209838D01*
X131587Y209791D01*
X131528Y209740D01*
X131473Y209687D01*
X131473Y209688D02*
X129627Y207842D01*
X138304Y212827D02*
X139965Y214489D01*
X138304Y212827D02*
X138246Y212766D01*
X138190Y212702D01*
X138138Y212636D01*
X138089Y212568D01*
X138043Y212497D01*
X138000Y212424D01*
X137961Y212349D01*
X137925Y212273D01*
X137892Y212195D01*
X137864Y212116D01*
X137839Y212035D01*
X137818Y211953D01*
X137800Y211871D01*
X137787Y211787D01*
X137777Y211704D01*
X137771Y211619D01*
X137769Y211535D01*
X137771Y211451D01*
X137777Y211366D01*
X137787Y211283D01*
X137800Y211199D01*
X137818Y211117D01*
X137839Y211035D01*
X137864Y210954D01*
X137892Y210875D01*
X137925Y210797D01*
X137961Y210721D01*
X138000Y210646D01*
X138043Y210573D01*
X138089Y210503D01*
X138138Y210434D01*
X138190Y210368D01*
X138246Y210304D01*
X138304Y210243D01*
X138365Y210185D01*
X138429Y210129D01*
X138495Y210077D01*
X138563Y210028D01*
X138634Y209982D01*
X138707Y209939D01*
X138782Y209900D01*
X138858Y209864D01*
X138936Y209831D01*
X139015Y209803D01*
X139096Y209778D01*
X139178Y209757D01*
X139260Y209739D01*
X139344Y209726D01*
X139427Y209716D01*
X139512Y209710D01*
X139596Y209708D01*
X139680Y209710D01*
X139765Y209716D01*
X139848Y209726D01*
X139932Y209739D01*
X140014Y209757D01*
X140096Y209778D01*
X140177Y209803D01*
X140256Y209831D01*
X140334Y209864D01*
X140410Y209900D01*
X140485Y209939D01*
X140558Y209982D01*
X140628Y210028D01*
X140697Y210077D01*
X140763Y210129D01*
X140827Y210185D01*
X140888Y210243D01*
X142550Y211904D01*
X139227Y215227D01*
X139172Y215280D01*
X139113Y215331D01*
X139053Y215378D01*
X138990Y215422D01*
X138925Y215463D01*
X138858Y215501D01*
X138790Y215536D01*
X138719Y215567D01*
X138648Y215594D01*
X138575Y215619D01*
X138501Y215639D01*
X138426Y215656D01*
X138350Y215669D01*
X138273Y215678D01*
X138197Y215684D01*
X138120Y215686D01*
X138043Y215684D01*
X137966Y215678D01*
X137890Y215669D01*
X137814Y215656D01*
X137739Y215639D01*
X137665Y215619D01*
X137592Y215594D01*
X137521Y215567D01*
X137450Y215536D01*
X137382Y215501D01*
X137315Y215463D01*
X137250Y215422D01*
X137187Y215378D01*
X137127Y215331D01*
X137068Y215280D01*
X137013Y215227D01*
X137012Y215227D02*
X135535Y213750D01*
X144862Y214955D02*
X145231Y214586D01*
X144862Y214955D02*
X145231Y215324D01*
X145600Y214955D01*
X145231Y214586D01*
X148373Y217728D02*
X143943Y222158D01*
X147266Y225481D01*
X147266Y225480D02*
X147321Y225533D01*
X147380Y225584D01*
X147440Y225631D01*
X147503Y225675D01*
X147568Y225716D01*
X147635Y225754D01*
X147703Y225789D01*
X147774Y225820D01*
X147845Y225847D01*
X147918Y225872D01*
X147993Y225892D01*
X148067Y225909D01*
X148143Y225922D01*
X148220Y225931D01*
X148296Y225937D01*
X148373Y225939D01*
X148450Y225937D01*
X148527Y225931D01*
X148603Y225922D01*
X148679Y225909D01*
X148754Y225892D01*
X148828Y225872D01*
X148901Y225847D01*
X148972Y225820D01*
X149043Y225789D01*
X149111Y225754D01*
X149178Y225716D01*
X149243Y225675D01*
X149306Y225631D01*
X149366Y225584D01*
X149425Y225533D01*
X149480Y225480D01*
X149481Y225481D02*
X152803Y222158D01*
X150588Y219943D02*
X146158Y224373D01*
X151331Y229546D02*
X155761Y225116D01*
X149300Y231207D02*
X148931Y231576D01*
X149300Y231946D01*
X149669Y231576D01*
X149300Y231207D01*
X153405Y231620D02*
X155620Y233836D01*
X151929Y234574D02*
X157466Y229036D01*
X157467Y229037D02*
X157522Y228984D01*
X157581Y228933D01*
X157641Y228886D01*
X157704Y228842D01*
X157769Y228801D01*
X157836Y228763D01*
X157904Y228728D01*
X157975Y228697D01*
X158046Y228670D01*
X158119Y228645D01*
X158194Y228625D01*
X158268Y228608D01*
X158344Y228595D01*
X158421Y228586D01*
X158497Y228580D01*
X158574Y228578D01*
X158651Y228580D01*
X158728Y228586D01*
X158804Y228595D01*
X158880Y228608D01*
X158955Y228625D01*
X159029Y228645D01*
X159102Y228670D01*
X159173Y228697D01*
X159244Y228728D01*
X159312Y228763D01*
X159379Y228801D01*
X159444Y228842D01*
X159507Y228886D01*
X159567Y228933D01*
X159626Y228984D01*
X159681Y229037D01*
X159681Y229036D02*
X160051Y229405D01*
X162258Y231612D02*
X161888Y231981D01*
X162258Y232351D01*
X162627Y231981D01*
X162258Y231612D01*
X166168Y235522D02*
X168014Y237368D01*
X166167Y235523D02*
X166112Y235470D01*
X166053Y235419D01*
X165993Y235372D01*
X165930Y235328D01*
X165865Y235287D01*
X165798Y235249D01*
X165730Y235214D01*
X165659Y235183D01*
X165588Y235156D01*
X165515Y235131D01*
X165441Y235111D01*
X165366Y235094D01*
X165290Y235081D01*
X165214Y235072D01*
X165137Y235066D01*
X165060Y235064D01*
X164983Y235066D01*
X164907Y235072D01*
X164830Y235081D01*
X164755Y235094D01*
X164680Y235111D01*
X164605Y235131D01*
X164532Y235156D01*
X164461Y235183D01*
X164390Y235214D01*
X164322Y235249D01*
X164255Y235287D01*
X164190Y235328D01*
X164127Y235372D01*
X164067Y235419D01*
X164008Y235470D01*
X163953Y235523D01*
X163953Y235522D02*
X162107Y237368D01*
X162108Y237369D02*
X162045Y237433D01*
X161986Y237501D01*
X161930Y237571D01*
X161876Y237643D01*
X161826Y237718D01*
X161779Y237795D01*
X161736Y237873D01*
X161696Y237954D01*
X161659Y238036D01*
X161626Y238119D01*
X161597Y238204D01*
X161571Y238290D01*
X161549Y238377D01*
X161531Y238465D01*
X161516Y238554D01*
X161506Y238643D01*
X161499Y238733D01*
X161496Y238823D01*
X161497Y238912D01*
X161502Y239002D01*
X161511Y239092D01*
X161523Y239181D01*
X161539Y239269D01*
X161560Y239356D01*
X161583Y239443D01*
X161611Y239529D01*
X161642Y239613D01*
X161677Y239696D01*
X161715Y239777D01*
X161757Y239856D01*
X161803Y239934D01*
X161851Y240010D01*
X161903Y240083D01*
X161958Y240154D01*
X162015Y240223D01*
X162076Y240289D01*
X162140Y240353D01*
X162206Y240414D01*
X162275Y240471D01*
X162346Y240526D01*
X162419Y240578D01*
X162495Y240626D01*
X162573Y240672D01*
X162652Y240714D01*
X162733Y240752D01*
X162816Y240787D01*
X162900Y240818D01*
X162986Y240846D01*
X163073Y240869D01*
X163160Y240890D01*
X163248Y240906D01*
X163337Y240918D01*
X163427Y240927D01*
X163517Y240932D01*
X163606Y240933D01*
X163696Y240930D01*
X163786Y240923D01*
X163875Y240913D01*
X163964Y240898D01*
X164052Y240880D01*
X164139Y240858D01*
X164225Y240832D01*
X164310Y240803D01*
X164393Y240770D01*
X164475Y240733D01*
X164556Y240693D01*
X164634Y240650D01*
X164711Y240603D01*
X164786Y240553D01*
X164858Y240499D01*
X164928Y240443D01*
X164996Y240384D01*
X165060Y240321D01*
X165060Y240322D02*
X165799Y239584D01*
X162845Y236630D01*
X173585Y242940D02*
X166940Y249585D01*
X173585Y242940D02*
X171739Y241094D01*
X171684Y241041D01*
X171625Y240990D01*
X171565Y240943D01*
X171502Y240899D01*
X171437Y240858D01*
X171370Y240820D01*
X171302Y240785D01*
X171231Y240754D01*
X171160Y240727D01*
X171087Y240702D01*
X171013Y240682D01*
X170938Y240665D01*
X170862Y240652D01*
X170786Y240643D01*
X170709Y240637D01*
X170632Y240635D01*
X170555Y240637D01*
X170479Y240643D01*
X170402Y240652D01*
X170327Y240665D01*
X170252Y240682D01*
X170177Y240702D01*
X170104Y240727D01*
X170033Y240754D01*
X169962Y240785D01*
X169894Y240820D01*
X169827Y240858D01*
X169762Y240899D01*
X169699Y240943D01*
X169639Y240990D01*
X169580Y241041D01*
X169525Y241094D01*
X169524Y241094D02*
X167309Y243309D01*
X167309Y243310D02*
X167256Y243365D01*
X167205Y243424D01*
X167158Y243484D01*
X167114Y243547D01*
X167073Y243612D01*
X167035Y243679D01*
X167000Y243747D01*
X166969Y243818D01*
X166942Y243889D01*
X166917Y243962D01*
X166897Y244037D01*
X166880Y244111D01*
X166867Y244187D01*
X166858Y244264D01*
X166852Y244340D01*
X166850Y244417D01*
X166852Y244494D01*
X166858Y244571D01*
X166867Y244647D01*
X166880Y244723D01*
X166897Y244798D01*
X166917Y244872D01*
X166942Y244945D01*
X166969Y245016D01*
X167000Y245087D01*
X167035Y245155D01*
X167073Y245222D01*
X167114Y245287D01*
X167158Y245350D01*
X167205Y245410D01*
X167256Y245469D01*
X167309Y245524D01*
X169155Y247370D01*
X172268Y250483D02*
X175591Y247161D01*
X175592Y247161D02*
X175647Y247108D01*
X175706Y247057D01*
X175766Y247010D01*
X175829Y246966D01*
X175894Y246925D01*
X175961Y246887D01*
X176029Y246852D01*
X176100Y246821D01*
X176171Y246794D01*
X176244Y246769D01*
X176319Y246749D01*
X176393Y246732D01*
X176469Y246719D01*
X176546Y246710D01*
X176622Y246704D01*
X176699Y246702D01*
X176776Y246704D01*
X176853Y246710D01*
X176929Y246719D01*
X177005Y246732D01*
X177080Y246749D01*
X177154Y246769D01*
X177227Y246794D01*
X177298Y246821D01*
X177369Y246852D01*
X177437Y246887D01*
X177504Y246925D01*
X177569Y246966D01*
X177632Y247010D01*
X177692Y247057D01*
X177751Y247108D01*
X177806Y247161D01*
X179652Y249007D01*
X175222Y253437D01*
X346434Y247833D02*
X352699Y247833D01*
X346434Y247833D02*
X346434Y250966D01*
X347478Y250966D01*
X349044Y254661D02*
X350088Y257272D01*
X349044Y254661D02*
X349016Y254595D01*
X348983Y254530D01*
X348948Y254467D01*
X348909Y254406D01*
X348867Y254347D01*
X348822Y254291D01*
X348774Y254237D01*
X348723Y254186D01*
X348670Y254137D01*
X348613Y254092D01*
X348555Y254049D01*
X348495Y254010D01*
X348432Y253973D01*
X348367Y253941D01*
X348301Y253912D01*
X348234Y253886D01*
X348165Y253864D01*
X348095Y253846D01*
X348024Y253831D01*
X347953Y253820D01*
X347881Y253813D01*
X347809Y253810D01*
X347737Y253811D01*
X347664Y253816D01*
X347593Y253824D01*
X347521Y253836D01*
X347451Y253852D01*
X347382Y253872D01*
X347313Y253896D01*
X347246Y253923D01*
X347181Y253953D01*
X347117Y253987D01*
X347055Y254025D01*
X346995Y254065D01*
X346938Y254109D01*
X346883Y254156D01*
X346830Y254206D01*
X346781Y254258D01*
X346734Y254313D01*
X346690Y254370D01*
X346649Y254430D01*
X346612Y254492D01*
X346577Y254556D01*
X346547Y254621D01*
X346519Y254688D01*
X346496Y254756D01*
X346476Y254826D01*
X346460Y254896D01*
X346447Y254967D01*
X346439Y255039D01*
X346434Y255111D01*
X346433Y255183D01*
X346434Y255184D02*
X346438Y255335D01*
X346446Y255486D01*
X346457Y255637D01*
X346473Y255788D01*
X346493Y255938D01*
X346516Y256088D01*
X346543Y256237D01*
X346574Y256385D01*
X346609Y256533D01*
X346647Y256679D01*
X346690Y256825D01*
X346736Y256969D01*
X346785Y257112D01*
X346838Y257254D01*
X346895Y257394D01*
X346956Y257533D01*
X350088Y257272D02*
X350116Y257338D01*
X350149Y257403D01*
X350184Y257466D01*
X350223Y257527D01*
X350265Y257586D01*
X350310Y257642D01*
X350358Y257696D01*
X350409Y257747D01*
X350462Y257796D01*
X350519Y257842D01*
X350577Y257884D01*
X350637Y257923D01*
X350700Y257960D01*
X350765Y257992D01*
X350831Y258021D01*
X350898Y258047D01*
X350967Y258069D01*
X351037Y258087D01*
X351108Y258102D01*
X351179Y258113D01*
X351251Y258120D01*
X351323Y258123D01*
X351395Y258122D01*
X351468Y258117D01*
X351539Y258109D01*
X351611Y258097D01*
X351681Y258081D01*
X351750Y258061D01*
X351819Y258037D01*
X351886Y258010D01*
X351951Y257980D01*
X352015Y257946D01*
X352077Y257908D01*
X352137Y257868D01*
X352194Y257824D01*
X352249Y257777D01*
X352302Y257727D01*
X352351Y257675D01*
X352398Y257620D01*
X352442Y257563D01*
X352483Y257503D01*
X352520Y257441D01*
X352555Y257377D01*
X352585Y257312D01*
X352613Y257245D01*
X352636Y257177D01*
X352656Y257107D01*
X352672Y257037D01*
X352685Y256966D01*
X352693Y256894D01*
X352698Y256822D01*
X352699Y256750D01*
X352694Y256540D01*
X352683Y256331D01*
X352668Y256122D01*
X352648Y255914D01*
X352622Y255706D01*
X352592Y255499D01*
X352557Y255292D01*
X352517Y255087D01*
X352473Y254882D01*
X352423Y254679D01*
X352369Y254476D01*
X352309Y254275D01*
X352246Y254076D01*
X352177Y253878D01*
X346434Y261034D02*
X346434Y264167D01*
X343301Y262078D02*
X351133Y262078D01*
X351133Y262079D02*
X351210Y262081D01*
X351286Y262087D01*
X351363Y262096D01*
X351439Y262109D01*
X351514Y262126D01*
X351588Y262146D01*
X351661Y262171D01*
X351732Y262198D01*
X351803Y262229D01*
X351871Y262264D01*
X351938Y262302D01*
X352003Y262343D01*
X352066Y262387D01*
X352126Y262434D01*
X352185Y262485D01*
X352240Y262538D01*
X352293Y262593D01*
X352344Y262652D01*
X352391Y262712D01*
X352435Y262775D01*
X352476Y262840D01*
X352514Y262907D01*
X352549Y262975D01*
X352580Y263046D01*
X352607Y263117D01*
X352632Y263190D01*
X352652Y263264D01*
X352669Y263339D01*
X352682Y263415D01*
X352691Y263492D01*
X352697Y263568D01*
X352699Y263645D01*
X352699Y264167D01*
X52609Y142824D02*
X50025Y136548D01*
X56301Y139132D01*
X64337Y145691D02*
X66183Y147537D01*
X64336Y145692D02*
X64281Y145639D01*
X64222Y145588D01*
X64162Y145541D01*
X64099Y145497D01*
X64034Y145456D01*
X63967Y145418D01*
X63899Y145383D01*
X63828Y145352D01*
X63757Y145325D01*
X63684Y145300D01*
X63610Y145280D01*
X63535Y145263D01*
X63459Y145250D01*
X63383Y145241D01*
X63306Y145235D01*
X63229Y145233D01*
X63152Y145235D01*
X63076Y145241D01*
X62999Y145250D01*
X62924Y145263D01*
X62849Y145280D01*
X62774Y145300D01*
X62701Y145325D01*
X62630Y145352D01*
X62559Y145383D01*
X62491Y145418D01*
X62424Y145456D01*
X62359Y145497D01*
X62296Y145541D01*
X62236Y145588D01*
X62177Y145639D01*
X62122Y145692D01*
X62122Y145691D02*
X59906Y147906D01*
X59907Y147907D02*
X59854Y147962D01*
X59803Y148021D01*
X59756Y148081D01*
X59712Y148144D01*
X59671Y148209D01*
X59633Y148276D01*
X59598Y148344D01*
X59567Y148415D01*
X59540Y148486D01*
X59515Y148559D01*
X59495Y148634D01*
X59478Y148708D01*
X59465Y148784D01*
X59456Y148861D01*
X59450Y148937D01*
X59448Y149014D01*
X59450Y149091D01*
X59456Y149168D01*
X59465Y149244D01*
X59478Y149320D01*
X59495Y149395D01*
X59515Y149469D01*
X59540Y149542D01*
X59567Y149613D01*
X59598Y149684D01*
X59633Y149752D01*
X59671Y149819D01*
X59712Y149884D01*
X59756Y149947D01*
X59803Y150007D01*
X59854Y150066D01*
X59907Y150121D01*
X59906Y150122D02*
X61752Y151967D01*
X67290Y146430D01*
X67290Y146429D02*
X67343Y146374D01*
X67394Y146315D01*
X67441Y146255D01*
X67485Y146192D01*
X67526Y146127D01*
X67564Y146060D01*
X67599Y145992D01*
X67630Y145921D01*
X67657Y145850D01*
X67682Y145777D01*
X67702Y145703D01*
X67719Y145628D01*
X67732Y145552D01*
X67741Y145476D01*
X67747Y145399D01*
X67749Y145322D01*
X67747Y145245D01*
X67741Y145169D01*
X67732Y145092D01*
X67719Y145017D01*
X67702Y144942D01*
X67682Y144867D01*
X67657Y144794D01*
X67630Y144723D01*
X67599Y144652D01*
X67564Y144584D01*
X67526Y144517D01*
X67485Y144452D01*
X67441Y144389D01*
X67394Y144329D01*
X67343Y144270D01*
X67290Y144215D01*
X65813Y142738D01*
X69296Y150651D02*
X64866Y155081D01*
X66712Y156927D01*
X66712Y156926D02*
X66767Y156979D01*
X66826Y157030D01*
X66886Y157077D01*
X66949Y157121D01*
X67014Y157162D01*
X67081Y157200D01*
X67149Y157235D01*
X67220Y157266D01*
X67291Y157293D01*
X67364Y157318D01*
X67438Y157338D01*
X67513Y157355D01*
X67589Y157368D01*
X67665Y157377D01*
X67742Y157383D01*
X67819Y157385D01*
X67896Y157383D01*
X67972Y157377D01*
X68049Y157368D01*
X68124Y157355D01*
X68199Y157338D01*
X68274Y157318D01*
X68347Y157293D01*
X68418Y157266D01*
X68489Y157235D01*
X68557Y157200D01*
X68624Y157162D01*
X68689Y157121D01*
X68752Y157077D01*
X68812Y157030D01*
X68871Y156979D01*
X68926Y156926D01*
X68927Y156927D02*
X72249Y153604D01*
X78036Y159391D02*
X71391Y166036D01*
X78036Y159391D02*
X76190Y157545D01*
X76190Y157546D02*
X76135Y157493D01*
X76076Y157442D01*
X76016Y157395D01*
X75953Y157351D01*
X75888Y157310D01*
X75821Y157272D01*
X75753Y157237D01*
X75682Y157206D01*
X75611Y157179D01*
X75538Y157154D01*
X75464Y157134D01*
X75389Y157117D01*
X75313Y157104D01*
X75237Y157095D01*
X75160Y157089D01*
X75083Y157087D01*
X75006Y157089D01*
X74930Y157095D01*
X74853Y157104D01*
X74778Y157117D01*
X74703Y157134D01*
X74628Y157154D01*
X74555Y157179D01*
X74484Y157206D01*
X74413Y157237D01*
X74345Y157272D01*
X74278Y157310D01*
X74213Y157351D01*
X74150Y157395D01*
X74090Y157442D01*
X74031Y157493D01*
X73976Y157546D01*
X73975Y157545D02*
X71760Y159760D01*
X71761Y159761D02*
X71708Y159816D01*
X71657Y159875D01*
X71610Y159935D01*
X71566Y159998D01*
X71525Y160063D01*
X71487Y160130D01*
X71452Y160198D01*
X71421Y160269D01*
X71394Y160340D01*
X71369Y160413D01*
X71349Y160488D01*
X71332Y160562D01*
X71319Y160638D01*
X71310Y160715D01*
X71304Y160791D01*
X71302Y160868D01*
X71304Y160945D01*
X71310Y161022D01*
X71319Y161098D01*
X71332Y161174D01*
X71349Y161249D01*
X71369Y161323D01*
X71394Y161396D01*
X71421Y161467D01*
X71452Y161538D01*
X71487Y161606D01*
X71525Y161673D01*
X71566Y161738D01*
X71610Y161801D01*
X71657Y161861D01*
X71708Y161920D01*
X71761Y161975D01*
X71760Y161975D02*
X73606Y163821D01*
X58063Y14228D02*
X53152Y12182D01*
X58063Y10135D01*
X67517Y16684D02*
X67602Y16682D01*
X67687Y16676D01*
X67771Y16666D01*
X67855Y16653D01*
X67939Y16635D01*
X68021Y16614D01*
X68102Y16589D01*
X68182Y16560D01*
X68261Y16527D01*
X68338Y16491D01*
X68413Y16451D01*
X68487Y16408D01*
X68558Y16362D01*
X68627Y16312D01*
X68694Y16259D01*
X68758Y16203D01*
X68819Y16144D01*
X68878Y16083D01*
X68934Y16019D01*
X68987Y15952D01*
X69037Y15883D01*
X69083Y15812D01*
X69126Y15738D01*
X69166Y15663D01*
X69202Y15586D01*
X69235Y15507D01*
X69264Y15427D01*
X69289Y15346D01*
X69310Y15264D01*
X69328Y15180D01*
X69341Y15096D01*
X69351Y15012D01*
X69357Y14927D01*
X69359Y14842D01*
X67517Y16683D02*
X67421Y16681D01*
X67325Y16675D01*
X67230Y16665D01*
X67135Y16652D01*
X67040Y16634D01*
X66947Y16613D01*
X66854Y16588D01*
X66763Y16559D01*
X66672Y16527D01*
X66583Y16491D01*
X66496Y16451D01*
X66410Y16408D01*
X66326Y16362D01*
X66244Y16312D01*
X66164Y16258D01*
X66087Y16202D01*
X66012Y16142D01*
X65939Y16080D01*
X65869Y16014D01*
X65801Y15946D01*
X65736Y15875D01*
X65675Y15802D01*
X65616Y15726D01*
X65560Y15647D01*
X65508Y15567D01*
X65459Y15484D01*
X65413Y15400D01*
X65371Y15314D01*
X65333Y15226D01*
X65298Y15137D01*
X65266Y15046D01*
X68744Y13410D02*
X68804Y13469D01*
X68861Y13531D01*
X68916Y13595D01*
X68967Y13662D01*
X69016Y13731D01*
X69062Y13801D01*
X69105Y13874D01*
X69145Y13948D01*
X69181Y14024D01*
X69214Y14102D01*
X69244Y14181D01*
X69271Y14261D01*
X69294Y14342D01*
X69313Y14424D01*
X69329Y14506D01*
X69342Y14590D01*
X69351Y14674D01*
X69356Y14758D01*
X69358Y14842D01*
X68744Y13409D02*
X65266Y9317D01*
X69358Y9317D01*
X72581Y10954D02*
X74218Y16683D01*
X72581Y10954D02*
X76673Y10954D01*
X75446Y12591D02*
X75446Y9317D01*
X81211Y9317D02*
X79574Y14228D01*
X82848Y14228D02*
X81211Y9317D01*
D11*
X308000Y346000D02*
X308000Y351000D01*
X308000Y346000D02*
X320000Y346000D01*
X320000Y351000D01*
X277000Y349000D02*
X277002Y349063D01*
X277008Y349125D01*
X277018Y349187D01*
X277031Y349249D01*
X277049Y349309D01*
X277070Y349368D01*
X277095Y349426D01*
X277124Y349482D01*
X277156Y349536D01*
X277191Y349588D01*
X277229Y349637D01*
X277271Y349685D01*
X277315Y349729D01*
X277363Y349771D01*
X277412Y349809D01*
X277464Y349844D01*
X277518Y349876D01*
X277574Y349905D01*
X277632Y349930D01*
X277691Y349951D01*
X277751Y349969D01*
X277813Y349982D01*
X277875Y349992D01*
X277937Y349998D01*
X278000Y350000D01*
X278063Y349998D01*
X278125Y349992D01*
X278187Y349982D01*
X278249Y349969D01*
X278309Y349951D01*
X278368Y349930D01*
X278426Y349905D01*
X278482Y349876D01*
X278536Y349844D01*
X278588Y349809D01*
X278637Y349771D01*
X278685Y349729D01*
X278729Y349685D01*
X278771Y349637D01*
X278809Y349588D01*
X278844Y349536D01*
X278876Y349482D01*
X278905Y349426D01*
X278930Y349368D01*
X278951Y349309D01*
X278969Y349249D01*
X278982Y349187D01*
X278992Y349125D01*
X278998Y349063D01*
X279000Y349000D01*
X278998Y348937D01*
X278992Y348875D01*
X278982Y348813D01*
X278969Y348751D01*
X278951Y348691D01*
X278930Y348632D01*
X278905Y348574D01*
X278876Y348518D01*
X278844Y348464D01*
X278809Y348412D01*
X278771Y348363D01*
X278729Y348315D01*
X278685Y348271D01*
X278637Y348229D01*
X278588Y348191D01*
X278536Y348156D01*
X278482Y348124D01*
X278426Y348095D01*
X278368Y348070D01*
X278309Y348049D01*
X278249Y348031D01*
X278187Y348018D01*
X278125Y348008D01*
X278063Y348002D01*
X278000Y348000D01*
X277937Y348002D01*
X277875Y348008D01*
X277813Y348018D01*
X277751Y348031D01*
X277691Y348049D01*
X277632Y348070D01*
X277574Y348095D01*
X277518Y348124D01*
X277464Y348156D01*
X277412Y348191D01*
X277363Y348229D01*
X277315Y348271D01*
X277271Y348315D01*
X277229Y348363D01*
X277191Y348412D01*
X277156Y348464D01*
X277124Y348518D01*
X277095Y348574D01*
X277070Y348632D01*
X277049Y348691D01*
X277031Y348751D01*
X277018Y348813D01*
X277008Y348875D01*
X277002Y348937D01*
X277000Y349000D01*
D12*
X280500Y295500D02*
X280500Y292500D01*
X280500Y295500D02*
X277500Y295500D01*
X280500Y227500D02*
X280500Y224500D01*
X277500Y224500D01*
X212500Y295500D02*
X209500Y295500D01*
X209500Y292500D01*
X209500Y227500D02*
X209500Y224500D01*
X212500Y224500D01*
D13*
X272000Y318000D02*
X272002Y318063D01*
X272008Y318125D01*
X272018Y318187D01*
X272031Y318249D01*
X272049Y318309D01*
X272070Y318368D01*
X272095Y318426D01*
X272124Y318482D01*
X272156Y318536D01*
X272191Y318588D01*
X272229Y318637D01*
X272271Y318685D01*
X272315Y318729D01*
X272363Y318771D01*
X272412Y318809D01*
X272464Y318844D01*
X272518Y318876D01*
X272574Y318905D01*
X272632Y318930D01*
X272691Y318951D01*
X272751Y318969D01*
X272813Y318982D01*
X272875Y318992D01*
X272937Y318998D01*
X273000Y319000D01*
X273063Y318998D01*
X273125Y318992D01*
X273187Y318982D01*
X273249Y318969D01*
X273309Y318951D01*
X273368Y318930D01*
X273426Y318905D01*
X273482Y318876D01*
X273536Y318844D01*
X273588Y318809D01*
X273637Y318771D01*
X273685Y318729D01*
X273729Y318685D01*
X273771Y318637D01*
X273809Y318588D01*
X273844Y318536D01*
X273876Y318482D01*
X273905Y318426D01*
X273930Y318368D01*
X273951Y318309D01*
X273969Y318249D01*
X273982Y318187D01*
X273992Y318125D01*
X273998Y318063D01*
X274000Y318000D01*
X273998Y317937D01*
X273992Y317875D01*
X273982Y317813D01*
X273969Y317751D01*
X273951Y317691D01*
X273930Y317632D01*
X273905Y317574D01*
X273876Y317518D01*
X273844Y317464D01*
X273809Y317412D01*
X273771Y317363D01*
X273729Y317315D01*
X273685Y317271D01*
X273637Y317229D01*
X273588Y317191D01*
X273536Y317156D01*
X273482Y317124D01*
X273426Y317095D01*
X273368Y317070D01*
X273309Y317049D01*
X273249Y317031D01*
X273187Y317018D01*
X273125Y317008D01*
X273063Y317002D01*
X273000Y317000D01*
X272937Y317002D01*
X272875Y317008D01*
X272813Y317018D01*
X272751Y317031D01*
X272691Y317049D01*
X272632Y317070D01*
X272574Y317095D01*
X272518Y317124D01*
X272464Y317156D01*
X272412Y317191D01*
X272363Y317229D01*
X272315Y317271D01*
X272271Y317315D01*
X272229Y317363D01*
X272191Y317412D01*
X272156Y317464D01*
X272124Y317518D01*
X272095Y317574D01*
X272070Y317632D01*
X272049Y317691D01*
X272031Y317751D01*
X272018Y317813D01*
X272008Y317875D01*
X272002Y317937D01*
X272000Y318000D01*
D12*
X409000Y234500D02*
X409000Y169500D01*
D11*
X389510Y91234D02*
X356490Y91234D01*
X356490Y156766D01*
X389510Y156766D01*
X389510Y91234D01*
D14*
X93150Y210800D02*
X93152Y210909D01*
X93158Y211018D01*
X93168Y211126D01*
X93182Y211234D01*
X93199Y211342D01*
X93221Y211449D01*
X93246Y211555D01*
X93276Y211659D01*
X93309Y211763D01*
X93346Y211866D01*
X93386Y211967D01*
X93430Y212066D01*
X93478Y212164D01*
X93530Y212261D01*
X93584Y212355D01*
X93642Y212447D01*
X93704Y212537D01*
X93769Y212624D01*
X93836Y212710D01*
X93907Y212793D01*
X93981Y212873D01*
X94058Y212950D01*
X94137Y213025D01*
X94219Y213096D01*
X94304Y213165D01*
X94391Y213230D01*
X94480Y213293D01*
X94572Y213351D01*
X94666Y213407D01*
X94761Y213459D01*
X94859Y213508D01*
X94958Y213553D01*
X95059Y213595D01*
X95161Y213632D01*
X95264Y213666D01*
X95369Y213697D01*
X95475Y213723D01*
X95581Y213746D01*
X95689Y213764D01*
X95797Y213779D01*
X95905Y213790D01*
X96014Y213797D01*
X96123Y213800D01*
X96232Y213799D01*
X96341Y213794D01*
X96449Y213785D01*
X96557Y213772D01*
X96665Y213755D01*
X96772Y213735D01*
X96878Y213710D01*
X96983Y213682D01*
X97087Y213650D01*
X97190Y213614D01*
X97292Y213574D01*
X97392Y213531D01*
X97490Y213484D01*
X97587Y213434D01*
X97681Y213380D01*
X97774Y213322D01*
X97865Y213262D01*
X97953Y213198D01*
X98039Y213131D01*
X98122Y213061D01*
X98203Y212988D01*
X98281Y212912D01*
X98356Y212833D01*
X98429Y212751D01*
X98498Y212667D01*
X98564Y212581D01*
X98627Y212492D01*
X98687Y212401D01*
X98744Y212308D01*
X98797Y212213D01*
X98846Y212116D01*
X98892Y212017D01*
X98934Y211917D01*
X98973Y211815D01*
X99008Y211711D01*
X99039Y211607D01*
X99067Y211502D01*
X99090Y211395D01*
X99110Y211288D01*
X99126Y211180D01*
X99138Y211072D01*
X99146Y210963D01*
X99150Y210854D01*
X99150Y210746D01*
X99146Y210637D01*
X99138Y210528D01*
X99126Y210420D01*
X99110Y210312D01*
X99090Y210205D01*
X99067Y210098D01*
X99039Y209993D01*
X99008Y209889D01*
X98973Y209785D01*
X98934Y209683D01*
X98892Y209583D01*
X98846Y209484D01*
X98797Y209387D01*
X98744Y209292D01*
X98687Y209199D01*
X98627Y209108D01*
X98564Y209019D01*
X98498Y208933D01*
X98429Y208849D01*
X98356Y208767D01*
X98281Y208688D01*
X98203Y208612D01*
X98122Y208539D01*
X98039Y208469D01*
X97953Y208402D01*
X97865Y208338D01*
X97774Y208278D01*
X97681Y208220D01*
X97587Y208166D01*
X97490Y208116D01*
X97392Y208069D01*
X97292Y208026D01*
X97190Y207986D01*
X97087Y207950D01*
X96983Y207918D01*
X96878Y207890D01*
X96772Y207865D01*
X96665Y207845D01*
X96557Y207828D01*
X96449Y207815D01*
X96341Y207806D01*
X96232Y207801D01*
X96123Y207800D01*
X96014Y207803D01*
X95905Y207810D01*
X95797Y207821D01*
X95689Y207836D01*
X95581Y207854D01*
X95475Y207877D01*
X95369Y207903D01*
X95264Y207934D01*
X95161Y207968D01*
X95059Y208005D01*
X94958Y208047D01*
X94859Y208092D01*
X94761Y208141D01*
X94666Y208193D01*
X94572Y208249D01*
X94480Y208307D01*
X94391Y208370D01*
X94304Y208435D01*
X94219Y208504D01*
X94137Y208575D01*
X94058Y208650D01*
X93981Y208727D01*
X93907Y208807D01*
X93836Y208890D01*
X93769Y208976D01*
X93704Y209063D01*
X93642Y209153D01*
X93584Y209245D01*
X93530Y209339D01*
X93478Y209436D01*
X93430Y209534D01*
X93386Y209633D01*
X93346Y209734D01*
X93309Y209837D01*
X93276Y209941D01*
X93246Y210045D01*
X93221Y210151D01*
X93199Y210258D01*
X93182Y210366D01*
X93168Y210474D01*
X93158Y210582D01*
X93152Y210691D01*
X93150Y210800D01*
D11*
X189450Y133150D02*
X202150Y133150D01*
X246000Y35000D02*
X44000Y35000D01*
X44000Y125000D02*
X123000Y125000D01*
X167000Y125000D01*
X246000Y125000D01*
X246000Y36000D01*
X44000Y35000D02*
X44000Y125000D01*
X167000Y125000D02*
X167000Y110000D01*
X123000Y110000D01*
X123000Y125000D01*
D14*
X163150Y320800D02*
X163152Y320909D01*
X163158Y321018D01*
X163168Y321126D01*
X163182Y321234D01*
X163199Y321342D01*
X163221Y321449D01*
X163246Y321555D01*
X163276Y321659D01*
X163309Y321763D01*
X163346Y321866D01*
X163386Y321967D01*
X163430Y322066D01*
X163478Y322164D01*
X163530Y322261D01*
X163584Y322355D01*
X163642Y322447D01*
X163704Y322537D01*
X163769Y322624D01*
X163836Y322710D01*
X163907Y322793D01*
X163981Y322873D01*
X164058Y322950D01*
X164137Y323025D01*
X164219Y323096D01*
X164304Y323165D01*
X164391Y323230D01*
X164480Y323293D01*
X164572Y323351D01*
X164666Y323407D01*
X164761Y323459D01*
X164859Y323508D01*
X164958Y323553D01*
X165059Y323595D01*
X165161Y323632D01*
X165264Y323666D01*
X165369Y323697D01*
X165475Y323723D01*
X165581Y323746D01*
X165689Y323764D01*
X165797Y323779D01*
X165905Y323790D01*
X166014Y323797D01*
X166123Y323800D01*
X166232Y323799D01*
X166341Y323794D01*
X166449Y323785D01*
X166557Y323772D01*
X166665Y323755D01*
X166772Y323735D01*
X166878Y323710D01*
X166983Y323682D01*
X167087Y323650D01*
X167190Y323614D01*
X167292Y323574D01*
X167392Y323531D01*
X167490Y323484D01*
X167587Y323434D01*
X167681Y323380D01*
X167774Y323322D01*
X167865Y323262D01*
X167953Y323198D01*
X168039Y323131D01*
X168122Y323061D01*
X168203Y322988D01*
X168281Y322912D01*
X168356Y322833D01*
X168429Y322751D01*
X168498Y322667D01*
X168564Y322581D01*
X168627Y322492D01*
X168687Y322401D01*
X168744Y322308D01*
X168797Y322213D01*
X168846Y322116D01*
X168892Y322017D01*
X168934Y321917D01*
X168973Y321815D01*
X169008Y321711D01*
X169039Y321607D01*
X169067Y321502D01*
X169090Y321395D01*
X169110Y321288D01*
X169126Y321180D01*
X169138Y321072D01*
X169146Y320963D01*
X169150Y320854D01*
X169150Y320746D01*
X169146Y320637D01*
X169138Y320528D01*
X169126Y320420D01*
X169110Y320312D01*
X169090Y320205D01*
X169067Y320098D01*
X169039Y319993D01*
X169008Y319889D01*
X168973Y319785D01*
X168934Y319683D01*
X168892Y319583D01*
X168846Y319484D01*
X168797Y319387D01*
X168744Y319292D01*
X168687Y319199D01*
X168627Y319108D01*
X168564Y319019D01*
X168498Y318933D01*
X168429Y318849D01*
X168356Y318767D01*
X168281Y318688D01*
X168203Y318612D01*
X168122Y318539D01*
X168039Y318469D01*
X167953Y318402D01*
X167865Y318338D01*
X167774Y318278D01*
X167681Y318220D01*
X167587Y318166D01*
X167490Y318116D01*
X167392Y318069D01*
X167292Y318026D01*
X167190Y317986D01*
X167087Y317950D01*
X166983Y317918D01*
X166878Y317890D01*
X166772Y317865D01*
X166665Y317845D01*
X166557Y317828D01*
X166449Y317815D01*
X166341Y317806D01*
X166232Y317801D01*
X166123Y317800D01*
X166014Y317803D01*
X165905Y317810D01*
X165797Y317821D01*
X165689Y317836D01*
X165581Y317854D01*
X165475Y317877D01*
X165369Y317903D01*
X165264Y317934D01*
X165161Y317968D01*
X165059Y318005D01*
X164958Y318047D01*
X164859Y318092D01*
X164761Y318141D01*
X164666Y318193D01*
X164572Y318249D01*
X164480Y318307D01*
X164391Y318370D01*
X164304Y318435D01*
X164219Y318504D01*
X164137Y318575D01*
X164058Y318650D01*
X163981Y318727D01*
X163907Y318807D01*
X163836Y318890D01*
X163769Y318976D01*
X163704Y319063D01*
X163642Y319153D01*
X163584Y319245D01*
X163530Y319339D01*
X163478Y319436D01*
X163430Y319534D01*
X163386Y319633D01*
X163346Y319734D01*
X163309Y319837D01*
X163276Y319941D01*
X163246Y320045D01*
X163221Y320151D01*
X163199Y320258D01*
X163182Y320366D01*
X163168Y320474D01*
X163158Y320582D01*
X163152Y320691D01*
X163150Y320800D01*
D13*
X217517Y172768D02*
X217519Y172831D01*
X217525Y172893D01*
X217535Y172955D01*
X217548Y173017D01*
X217566Y173077D01*
X217587Y173136D01*
X217612Y173194D01*
X217641Y173250D01*
X217673Y173304D01*
X217708Y173356D01*
X217746Y173405D01*
X217788Y173453D01*
X217832Y173497D01*
X217880Y173539D01*
X217929Y173577D01*
X217981Y173612D01*
X218035Y173644D01*
X218091Y173673D01*
X218149Y173698D01*
X218208Y173719D01*
X218268Y173737D01*
X218330Y173750D01*
X218392Y173760D01*
X218454Y173766D01*
X218517Y173768D01*
X218580Y173766D01*
X218642Y173760D01*
X218704Y173750D01*
X218766Y173737D01*
X218826Y173719D01*
X218885Y173698D01*
X218943Y173673D01*
X218999Y173644D01*
X219053Y173612D01*
X219105Y173577D01*
X219154Y173539D01*
X219202Y173497D01*
X219246Y173453D01*
X219288Y173405D01*
X219326Y173356D01*
X219361Y173304D01*
X219393Y173250D01*
X219422Y173194D01*
X219447Y173136D01*
X219468Y173077D01*
X219486Y173017D01*
X219499Y172955D01*
X219509Y172893D01*
X219515Y172831D01*
X219517Y172768D01*
X219515Y172705D01*
X219509Y172643D01*
X219499Y172581D01*
X219486Y172519D01*
X219468Y172459D01*
X219447Y172400D01*
X219422Y172342D01*
X219393Y172286D01*
X219361Y172232D01*
X219326Y172180D01*
X219288Y172131D01*
X219246Y172083D01*
X219202Y172039D01*
X219154Y171997D01*
X219105Y171959D01*
X219053Y171924D01*
X218999Y171892D01*
X218943Y171863D01*
X218885Y171838D01*
X218826Y171817D01*
X218766Y171799D01*
X218704Y171786D01*
X218642Y171776D01*
X218580Y171770D01*
X218517Y171768D01*
X218454Y171770D01*
X218392Y171776D01*
X218330Y171786D01*
X218268Y171799D01*
X218208Y171817D01*
X218149Y171838D01*
X218091Y171863D01*
X218035Y171892D01*
X217981Y171924D01*
X217929Y171959D01*
X217880Y171997D01*
X217832Y172039D01*
X217788Y172083D01*
X217746Y172131D01*
X217708Y172180D01*
X217673Y172232D01*
X217641Y172286D01*
X217612Y172342D01*
X217587Y172400D01*
X217566Y172459D01*
X217548Y172519D01*
X217535Y172581D01*
X217525Y172643D01*
X217519Y172705D01*
X217517Y172768D01*
X181517Y190768D02*
X181519Y190831D01*
X181525Y190893D01*
X181535Y190955D01*
X181548Y191017D01*
X181566Y191077D01*
X181587Y191136D01*
X181612Y191194D01*
X181641Y191250D01*
X181673Y191304D01*
X181708Y191356D01*
X181746Y191405D01*
X181788Y191453D01*
X181832Y191497D01*
X181880Y191539D01*
X181929Y191577D01*
X181981Y191612D01*
X182035Y191644D01*
X182091Y191673D01*
X182149Y191698D01*
X182208Y191719D01*
X182268Y191737D01*
X182330Y191750D01*
X182392Y191760D01*
X182454Y191766D01*
X182517Y191768D01*
X182580Y191766D01*
X182642Y191760D01*
X182704Y191750D01*
X182766Y191737D01*
X182826Y191719D01*
X182885Y191698D01*
X182943Y191673D01*
X182999Y191644D01*
X183053Y191612D01*
X183105Y191577D01*
X183154Y191539D01*
X183202Y191497D01*
X183246Y191453D01*
X183288Y191405D01*
X183326Y191356D01*
X183361Y191304D01*
X183393Y191250D01*
X183422Y191194D01*
X183447Y191136D01*
X183468Y191077D01*
X183486Y191017D01*
X183499Y190955D01*
X183509Y190893D01*
X183515Y190831D01*
X183517Y190768D01*
X183515Y190705D01*
X183509Y190643D01*
X183499Y190581D01*
X183486Y190519D01*
X183468Y190459D01*
X183447Y190400D01*
X183422Y190342D01*
X183393Y190286D01*
X183361Y190232D01*
X183326Y190180D01*
X183288Y190131D01*
X183246Y190083D01*
X183202Y190039D01*
X183154Y189997D01*
X183105Y189959D01*
X183053Y189924D01*
X182999Y189892D01*
X182943Y189863D01*
X182885Y189838D01*
X182826Y189817D01*
X182766Y189799D01*
X182704Y189786D01*
X182642Y189776D01*
X182580Y189770D01*
X182517Y189768D01*
X182454Y189770D01*
X182392Y189776D01*
X182330Y189786D01*
X182268Y189799D01*
X182208Y189817D01*
X182149Y189838D01*
X182091Y189863D01*
X182035Y189892D01*
X181981Y189924D01*
X181929Y189959D01*
X181880Y189997D01*
X181832Y190039D01*
X181788Y190083D01*
X181746Y190131D01*
X181708Y190180D01*
X181673Y190232D01*
X181641Y190286D01*
X181612Y190342D01*
X181587Y190400D01*
X181566Y190459D01*
X181548Y190519D01*
X181535Y190581D01*
X181525Y190643D01*
X181519Y190705D01*
X181517Y190768D01*
M02*
