G04 EAGLE Gerber RS-274X export*
G75*
%MOMM*%
%FSLAX34Y34*%
%LPD*%
%INSolderpaste Top*%
%IPPOS*%
%AMOC8*
5,1,8,0,0,1.08239X$1,22.5*%
G01*
%ADD10R,1.800000X1.600000*%
%ADD11R,1.600000X1.800000*%
%ADD12R,0.760000X2.400000*%
%ADD13R,0.900000X1.000000*%
%ADD14C,0.087500*%
%ADD15R,1.900000X2.150000*%
%ADD16R,1.300000X1.200000*%
%ADD17R,1.350000X0.210000*%
%ADD18R,2.235200X1.219200*%
%ADD19R,2.200000X3.600000*%
%ADD20R,1.750000X0.650000*%
%ADD21R,2.410000X3.500000*%
%ADD22C,0.500000*%
%ADD23R,1.803000X1.600000*%
%ADD24R,1.000000X0.900000*%
%ADD25C,0.055000*%


D10*
X315000Y75000D03*
X315000Y47000D03*
D11*
X399000Y285000D03*
X371000Y285000D03*
X371000Y310000D03*
X399000Y310000D03*
D12*
X314000Y399500D03*
X326700Y399500D03*
X339400Y399500D03*
X301300Y399500D03*
X288600Y399500D03*
X288600Y360500D03*
X301300Y360500D03*
X314000Y360500D03*
X326700Y360500D03*
X339400Y360500D03*
D11*
X371000Y335000D03*
X399000Y335000D03*
X349000Y325000D03*
X321000Y325000D03*
D13*
X402500Y248000D03*
X361500Y248000D03*
X402500Y264000D03*
X361500Y264000D03*
D14*
X271687Y297737D02*
X271687Y309363D01*
X274313Y309363D01*
X274313Y297737D01*
X271687Y297737D01*
X271687Y298568D02*
X274313Y298568D01*
X274313Y299399D02*
X271687Y299399D01*
X271687Y300230D02*
X274313Y300230D01*
X274313Y301061D02*
X271687Y301061D01*
X271687Y301892D02*
X274313Y301892D01*
X274313Y302723D02*
X271687Y302723D01*
X271687Y303554D02*
X274313Y303554D01*
X274313Y304385D02*
X271687Y304385D01*
X271687Y305216D02*
X274313Y305216D01*
X274313Y306047D02*
X271687Y306047D01*
X271687Y306878D02*
X274313Y306878D01*
X274313Y307709D02*
X271687Y307709D01*
X271687Y308540D02*
X274313Y308540D01*
X263687Y309363D02*
X263687Y294237D01*
X263687Y309363D02*
X266313Y309363D01*
X266313Y294237D01*
X263687Y294237D01*
X263687Y295068D02*
X266313Y295068D01*
X266313Y295899D02*
X263687Y295899D01*
X263687Y296730D02*
X266313Y296730D01*
X266313Y297561D02*
X263687Y297561D01*
X263687Y298392D02*
X266313Y298392D01*
X266313Y299223D02*
X263687Y299223D01*
X263687Y300054D02*
X266313Y300054D01*
X266313Y300885D02*
X263687Y300885D01*
X263687Y301716D02*
X266313Y301716D01*
X266313Y302547D02*
X263687Y302547D01*
X263687Y303378D02*
X266313Y303378D01*
X266313Y304209D02*
X263687Y304209D01*
X263687Y305040D02*
X266313Y305040D01*
X266313Y305871D02*
X263687Y305871D01*
X263687Y306702D02*
X266313Y306702D01*
X266313Y307533D02*
X263687Y307533D01*
X263687Y308364D02*
X266313Y308364D01*
X266313Y309195D02*
X263687Y309195D01*
X255687Y309363D02*
X255687Y294237D01*
X255687Y309363D02*
X258313Y309363D01*
X258313Y294237D01*
X255687Y294237D01*
X255687Y295068D02*
X258313Y295068D01*
X258313Y295899D02*
X255687Y295899D01*
X255687Y296730D02*
X258313Y296730D01*
X258313Y297561D02*
X255687Y297561D01*
X255687Y298392D02*
X258313Y298392D01*
X258313Y299223D02*
X255687Y299223D01*
X255687Y300054D02*
X258313Y300054D01*
X258313Y300885D02*
X255687Y300885D01*
X255687Y301716D02*
X258313Y301716D01*
X258313Y302547D02*
X255687Y302547D01*
X255687Y303378D02*
X258313Y303378D01*
X258313Y304209D02*
X255687Y304209D01*
X255687Y305040D02*
X258313Y305040D01*
X258313Y305871D02*
X255687Y305871D01*
X255687Y306702D02*
X258313Y306702D01*
X258313Y307533D02*
X255687Y307533D01*
X255687Y308364D02*
X258313Y308364D01*
X258313Y309195D02*
X255687Y309195D01*
X247687Y309363D02*
X247687Y294237D01*
X247687Y309363D02*
X250313Y309363D01*
X250313Y294237D01*
X247687Y294237D01*
X247687Y295068D02*
X250313Y295068D01*
X250313Y295899D02*
X247687Y295899D01*
X247687Y296730D02*
X250313Y296730D01*
X250313Y297561D02*
X247687Y297561D01*
X247687Y298392D02*
X250313Y298392D01*
X250313Y299223D02*
X247687Y299223D01*
X247687Y300054D02*
X250313Y300054D01*
X250313Y300885D02*
X247687Y300885D01*
X247687Y301716D02*
X250313Y301716D01*
X250313Y302547D02*
X247687Y302547D01*
X247687Y303378D02*
X250313Y303378D01*
X250313Y304209D02*
X247687Y304209D01*
X247687Y305040D02*
X250313Y305040D01*
X250313Y305871D02*
X247687Y305871D01*
X247687Y306702D02*
X250313Y306702D01*
X250313Y307533D02*
X247687Y307533D01*
X247687Y308364D02*
X250313Y308364D01*
X250313Y309195D02*
X247687Y309195D01*
X239687Y309363D02*
X239687Y294237D01*
X239687Y309363D02*
X242313Y309363D01*
X242313Y294237D01*
X239687Y294237D01*
X239687Y295068D02*
X242313Y295068D01*
X242313Y295899D02*
X239687Y295899D01*
X239687Y296730D02*
X242313Y296730D01*
X242313Y297561D02*
X239687Y297561D01*
X239687Y298392D02*
X242313Y298392D01*
X242313Y299223D02*
X239687Y299223D01*
X239687Y300054D02*
X242313Y300054D01*
X242313Y300885D02*
X239687Y300885D01*
X239687Y301716D02*
X242313Y301716D01*
X242313Y302547D02*
X239687Y302547D01*
X239687Y303378D02*
X242313Y303378D01*
X242313Y304209D02*
X239687Y304209D01*
X239687Y305040D02*
X242313Y305040D01*
X242313Y305871D02*
X239687Y305871D01*
X239687Y306702D02*
X242313Y306702D01*
X242313Y307533D02*
X239687Y307533D01*
X239687Y308364D02*
X242313Y308364D01*
X242313Y309195D02*
X239687Y309195D01*
X231687Y309363D02*
X231687Y294237D01*
X231687Y309363D02*
X234313Y309363D01*
X234313Y294237D01*
X231687Y294237D01*
X231687Y295068D02*
X234313Y295068D01*
X234313Y295899D02*
X231687Y295899D01*
X231687Y296730D02*
X234313Y296730D01*
X234313Y297561D02*
X231687Y297561D01*
X231687Y298392D02*
X234313Y298392D01*
X234313Y299223D02*
X231687Y299223D01*
X231687Y300054D02*
X234313Y300054D01*
X234313Y300885D02*
X231687Y300885D01*
X231687Y301716D02*
X234313Y301716D01*
X234313Y302547D02*
X231687Y302547D01*
X231687Y303378D02*
X234313Y303378D01*
X234313Y304209D02*
X231687Y304209D01*
X231687Y305040D02*
X234313Y305040D01*
X234313Y305871D02*
X231687Y305871D01*
X231687Y306702D02*
X234313Y306702D01*
X234313Y307533D02*
X231687Y307533D01*
X231687Y308364D02*
X234313Y308364D01*
X234313Y309195D02*
X231687Y309195D01*
X223687Y309363D02*
X223687Y294237D01*
X223687Y309363D02*
X226313Y309363D01*
X226313Y294237D01*
X223687Y294237D01*
X223687Y295068D02*
X226313Y295068D01*
X226313Y295899D02*
X223687Y295899D01*
X223687Y296730D02*
X226313Y296730D01*
X226313Y297561D02*
X223687Y297561D01*
X223687Y298392D02*
X226313Y298392D01*
X226313Y299223D02*
X223687Y299223D01*
X223687Y300054D02*
X226313Y300054D01*
X226313Y300885D02*
X223687Y300885D01*
X223687Y301716D02*
X226313Y301716D01*
X226313Y302547D02*
X223687Y302547D01*
X223687Y303378D02*
X226313Y303378D01*
X226313Y304209D02*
X223687Y304209D01*
X223687Y305040D02*
X226313Y305040D01*
X226313Y305871D02*
X223687Y305871D01*
X223687Y306702D02*
X226313Y306702D01*
X226313Y307533D02*
X223687Y307533D01*
X223687Y308364D02*
X226313Y308364D01*
X226313Y309195D02*
X223687Y309195D01*
X215687Y309363D02*
X215687Y297737D01*
X215687Y309363D02*
X218313Y309363D01*
X218313Y297737D01*
X215687Y297737D01*
X215687Y298568D02*
X218313Y298568D01*
X218313Y299399D02*
X215687Y299399D01*
X215687Y300230D02*
X218313Y300230D01*
X218313Y301061D02*
X215687Y301061D01*
X215687Y301892D02*
X218313Y301892D01*
X218313Y302723D02*
X215687Y302723D01*
X215687Y303554D02*
X218313Y303554D01*
X218313Y304385D02*
X215687Y304385D01*
X215687Y305216D02*
X218313Y305216D01*
X218313Y306047D02*
X215687Y306047D01*
X215687Y306878D02*
X218313Y306878D01*
X218313Y307709D02*
X215687Y307709D01*
X215687Y308540D02*
X218313Y308540D01*
X207263Y286687D02*
X195637Y286687D01*
X195637Y289313D01*
X207263Y289313D01*
X207263Y286687D01*
X207263Y287518D02*
X195637Y287518D01*
X195637Y288349D02*
X207263Y288349D01*
X207263Y289180D02*
X195637Y289180D01*
X195637Y278687D02*
X210763Y278687D01*
X195637Y278687D02*
X195637Y281313D01*
X210763Y281313D01*
X210763Y278687D01*
X210763Y279518D02*
X195637Y279518D01*
X195637Y280349D02*
X210763Y280349D01*
X210763Y281180D02*
X195637Y281180D01*
X195637Y270687D02*
X210763Y270687D01*
X195637Y270687D02*
X195637Y273313D01*
X210763Y273313D01*
X210763Y270687D01*
X210763Y271518D02*
X195637Y271518D01*
X195637Y272349D02*
X210763Y272349D01*
X210763Y273180D02*
X195637Y273180D01*
X195637Y262687D02*
X210763Y262687D01*
X195637Y262687D02*
X195637Y265313D01*
X210763Y265313D01*
X210763Y262687D01*
X210763Y263518D02*
X195637Y263518D01*
X195637Y264349D02*
X210763Y264349D01*
X210763Y265180D02*
X195637Y265180D01*
X195637Y254687D02*
X210763Y254687D01*
X195637Y254687D02*
X195637Y257313D01*
X210763Y257313D01*
X210763Y254687D01*
X210763Y255518D02*
X195637Y255518D01*
X195637Y256349D02*
X210763Y256349D01*
X210763Y257180D02*
X195637Y257180D01*
X195637Y246687D02*
X210763Y246687D01*
X195637Y246687D02*
X195637Y249313D01*
X210763Y249313D01*
X210763Y246687D01*
X210763Y247518D02*
X195637Y247518D01*
X195637Y248349D02*
X210763Y248349D01*
X210763Y249180D02*
X195637Y249180D01*
X195637Y238687D02*
X210763Y238687D01*
X195637Y238687D02*
X195637Y241313D01*
X210763Y241313D01*
X210763Y238687D01*
X210763Y239518D02*
X195637Y239518D01*
X195637Y240349D02*
X210763Y240349D01*
X210763Y241180D02*
X195637Y241180D01*
X195637Y230687D02*
X207263Y230687D01*
X195637Y230687D02*
X195637Y233313D01*
X207263Y233313D01*
X207263Y230687D01*
X207263Y231518D02*
X195637Y231518D01*
X195637Y232349D02*
X207263Y232349D01*
X207263Y233180D02*
X195637Y233180D01*
X218313Y222263D02*
X218313Y210637D01*
X215687Y210637D01*
X215687Y222263D01*
X218313Y222263D01*
X218313Y211468D02*
X215687Y211468D01*
X215687Y212299D02*
X218313Y212299D01*
X218313Y213130D02*
X215687Y213130D01*
X215687Y213961D02*
X218313Y213961D01*
X218313Y214792D02*
X215687Y214792D01*
X215687Y215623D02*
X218313Y215623D01*
X218313Y216454D02*
X215687Y216454D01*
X215687Y217285D02*
X218313Y217285D01*
X218313Y218116D02*
X215687Y218116D01*
X215687Y218947D02*
X218313Y218947D01*
X218313Y219778D02*
X215687Y219778D01*
X215687Y220609D02*
X218313Y220609D01*
X218313Y221440D02*
X215687Y221440D01*
X226313Y225763D02*
X226313Y210637D01*
X223687Y210637D01*
X223687Y225763D01*
X226313Y225763D01*
X226313Y211468D02*
X223687Y211468D01*
X223687Y212299D02*
X226313Y212299D01*
X226313Y213130D02*
X223687Y213130D01*
X223687Y213961D02*
X226313Y213961D01*
X226313Y214792D02*
X223687Y214792D01*
X223687Y215623D02*
X226313Y215623D01*
X226313Y216454D02*
X223687Y216454D01*
X223687Y217285D02*
X226313Y217285D01*
X226313Y218116D02*
X223687Y218116D01*
X223687Y218947D02*
X226313Y218947D01*
X226313Y219778D02*
X223687Y219778D01*
X223687Y220609D02*
X226313Y220609D01*
X226313Y221440D02*
X223687Y221440D01*
X223687Y222271D02*
X226313Y222271D01*
X226313Y223102D02*
X223687Y223102D01*
X223687Y223933D02*
X226313Y223933D01*
X226313Y224764D02*
X223687Y224764D01*
X223687Y225595D02*
X226313Y225595D01*
X234313Y225763D02*
X234313Y210637D01*
X231687Y210637D01*
X231687Y225763D01*
X234313Y225763D01*
X234313Y211468D02*
X231687Y211468D01*
X231687Y212299D02*
X234313Y212299D01*
X234313Y213130D02*
X231687Y213130D01*
X231687Y213961D02*
X234313Y213961D01*
X234313Y214792D02*
X231687Y214792D01*
X231687Y215623D02*
X234313Y215623D01*
X234313Y216454D02*
X231687Y216454D01*
X231687Y217285D02*
X234313Y217285D01*
X234313Y218116D02*
X231687Y218116D01*
X231687Y218947D02*
X234313Y218947D01*
X234313Y219778D02*
X231687Y219778D01*
X231687Y220609D02*
X234313Y220609D01*
X234313Y221440D02*
X231687Y221440D01*
X231687Y222271D02*
X234313Y222271D01*
X234313Y223102D02*
X231687Y223102D01*
X231687Y223933D02*
X234313Y223933D01*
X234313Y224764D02*
X231687Y224764D01*
X231687Y225595D02*
X234313Y225595D01*
X242313Y225763D02*
X242313Y210637D01*
X239687Y210637D01*
X239687Y225763D01*
X242313Y225763D01*
X242313Y211468D02*
X239687Y211468D01*
X239687Y212299D02*
X242313Y212299D01*
X242313Y213130D02*
X239687Y213130D01*
X239687Y213961D02*
X242313Y213961D01*
X242313Y214792D02*
X239687Y214792D01*
X239687Y215623D02*
X242313Y215623D01*
X242313Y216454D02*
X239687Y216454D01*
X239687Y217285D02*
X242313Y217285D01*
X242313Y218116D02*
X239687Y218116D01*
X239687Y218947D02*
X242313Y218947D01*
X242313Y219778D02*
X239687Y219778D01*
X239687Y220609D02*
X242313Y220609D01*
X242313Y221440D02*
X239687Y221440D01*
X239687Y222271D02*
X242313Y222271D01*
X242313Y223102D02*
X239687Y223102D01*
X239687Y223933D02*
X242313Y223933D01*
X242313Y224764D02*
X239687Y224764D01*
X239687Y225595D02*
X242313Y225595D01*
X250313Y225763D02*
X250313Y210637D01*
X247687Y210637D01*
X247687Y225763D01*
X250313Y225763D01*
X250313Y211468D02*
X247687Y211468D01*
X247687Y212299D02*
X250313Y212299D01*
X250313Y213130D02*
X247687Y213130D01*
X247687Y213961D02*
X250313Y213961D01*
X250313Y214792D02*
X247687Y214792D01*
X247687Y215623D02*
X250313Y215623D01*
X250313Y216454D02*
X247687Y216454D01*
X247687Y217285D02*
X250313Y217285D01*
X250313Y218116D02*
X247687Y218116D01*
X247687Y218947D02*
X250313Y218947D01*
X250313Y219778D02*
X247687Y219778D01*
X247687Y220609D02*
X250313Y220609D01*
X250313Y221440D02*
X247687Y221440D01*
X247687Y222271D02*
X250313Y222271D01*
X250313Y223102D02*
X247687Y223102D01*
X247687Y223933D02*
X250313Y223933D01*
X250313Y224764D02*
X247687Y224764D01*
X247687Y225595D02*
X250313Y225595D01*
X258313Y225763D02*
X258313Y210637D01*
X255687Y210637D01*
X255687Y225763D01*
X258313Y225763D01*
X258313Y211468D02*
X255687Y211468D01*
X255687Y212299D02*
X258313Y212299D01*
X258313Y213130D02*
X255687Y213130D01*
X255687Y213961D02*
X258313Y213961D01*
X258313Y214792D02*
X255687Y214792D01*
X255687Y215623D02*
X258313Y215623D01*
X258313Y216454D02*
X255687Y216454D01*
X255687Y217285D02*
X258313Y217285D01*
X258313Y218116D02*
X255687Y218116D01*
X255687Y218947D02*
X258313Y218947D01*
X258313Y219778D02*
X255687Y219778D01*
X255687Y220609D02*
X258313Y220609D01*
X258313Y221440D02*
X255687Y221440D01*
X255687Y222271D02*
X258313Y222271D01*
X258313Y223102D02*
X255687Y223102D01*
X255687Y223933D02*
X258313Y223933D01*
X258313Y224764D02*
X255687Y224764D01*
X255687Y225595D02*
X258313Y225595D01*
X266313Y225763D02*
X266313Y210637D01*
X263687Y210637D01*
X263687Y225763D01*
X266313Y225763D01*
X266313Y211468D02*
X263687Y211468D01*
X263687Y212299D02*
X266313Y212299D01*
X266313Y213130D02*
X263687Y213130D01*
X263687Y213961D02*
X266313Y213961D01*
X266313Y214792D02*
X263687Y214792D01*
X263687Y215623D02*
X266313Y215623D01*
X266313Y216454D02*
X263687Y216454D01*
X263687Y217285D02*
X266313Y217285D01*
X266313Y218116D02*
X263687Y218116D01*
X263687Y218947D02*
X266313Y218947D01*
X266313Y219778D02*
X263687Y219778D01*
X263687Y220609D02*
X266313Y220609D01*
X266313Y221440D02*
X263687Y221440D01*
X263687Y222271D02*
X266313Y222271D01*
X266313Y223102D02*
X263687Y223102D01*
X263687Y223933D02*
X266313Y223933D01*
X266313Y224764D02*
X263687Y224764D01*
X263687Y225595D02*
X266313Y225595D01*
X274313Y222263D02*
X274313Y210637D01*
X271687Y210637D01*
X271687Y222263D01*
X274313Y222263D01*
X274313Y211468D02*
X271687Y211468D01*
X271687Y212299D02*
X274313Y212299D01*
X274313Y213130D02*
X271687Y213130D01*
X271687Y213961D02*
X274313Y213961D01*
X274313Y214792D02*
X271687Y214792D01*
X271687Y215623D02*
X274313Y215623D01*
X274313Y216454D02*
X271687Y216454D01*
X271687Y217285D02*
X274313Y217285D01*
X274313Y218116D02*
X271687Y218116D01*
X271687Y218947D02*
X274313Y218947D01*
X274313Y219778D02*
X271687Y219778D01*
X271687Y220609D02*
X274313Y220609D01*
X274313Y221440D02*
X271687Y221440D01*
X282737Y233313D02*
X294363Y233313D01*
X294363Y230687D01*
X282737Y230687D01*
X282737Y233313D01*
X282737Y231518D02*
X294363Y231518D01*
X294363Y232349D02*
X282737Y232349D01*
X282737Y233180D02*
X294363Y233180D01*
X294363Y241313D02*
X279237Y241313D01*
X294363Y241313D02*
X294363Y238687D01*
X279237Y238687D01*
X279237Y241313D01*
X279237Y239518D02*
X294363Y239518D01*
X294363Y240349D02*
X279237Y240349D01*
X279237Y241180D02*
X294363Y241180D01*
X294363Y249313D02*
X279237Y249313D01*
X294363Y249313D02*
X294363Y246687D01*
X279237Y246687D01*
X279237Y249313D01*
X279237Y247518D02*
X294363Y247518D01*
X294363Y248349D02*
X279237Y248349D01*
X279237Y249180D02*
X294363Y249180D01*
X294363Y257313D02*
X279237Y257313D01*
X294363Y257313D02*
X294363Y254687D01*
X279237Y254687D01*
X279237Y257313D01*
X279237Y255518D02*
X294363Y255518D01*
X294363Y256349D02*
X279237Y256349D01*
X279237Y257180D02*
X294363Y257180D01*
X294363Y265313D02*
X279237Y265313D01*
X294363Y265313D02*
X294363Y262687D01*
X279237Y262687D01*
X279237Y265313D01*
X279237Y263518D02*
X294363Y263518D01*
X294363Y264349D02*
X279237Y264349D01*
X279237Y265180D02*
X294363Y265180D01*
X294363Y273313D02*
X279237Y273313D01*
X294363Y273313D02*
X294363Y270687D01*
X279237Y270687D01*
X279237Y273313D01*
X279237Y271518D02*
X294363Y271518D01*
X294363Y272349D02*
X279237Y272349D01*
X279237Y273180D02*
X294363Y273180D01*
X294363Y281313D02*
X279237Y281313D01*
X294363Y281313D02*
X294363Y278687D01*
X279237Y278687D01*
X279237Y281313D01*
X279237Y279518D02*
X294363Y279518D01*
X294363Y280349D02*
X279237Y280349D01*
X279237Y281180D02*
X294363Y281180D01*
X294363Y289313D02*
X282737Y289313D01*
X294363Y289313D02*
X294363Y286687D01*
X282737Y286687D01*
X282737Y289313D01*
X282737Y287518D02*
X294363Y287518D01*
X294363Y288349D02*
X282737Y288349D01*
X282737Y289180D02*
X294363Y289180D01*
D15*
X394000Y180250D03*
X394000Y223750D03*
D16*
X363500Y177000D03*
X363500Y227000D03*
D17*
X367000Y202000D03*
X367000Y195500D03*
X367000Y189000D03*
X367000Y208500D03*
X367000Y215000D03*
D10*
X315000Y176000D03*
X315000Y148000D03*
D18*
X342012Y147114D03*
X342012Y124000D03*
X342012Y100886D03*
D19*
X403990Y124000D03*
D20*
X108000Y220950D03*
X108000Y233550D03*
X108000Y246250D03*
X108000Y258950D03*
X52000Y220950D03*
X52000Y233650D03*
X52000Y246350D03*
X52000Y259050D03*
D21*
X80000Y240000D03*
D11*
X36000Y200000D03*
X64000Y200000D03*
X46000Y285000D03*
X74000Y285000D03*
X161000Y291000D03*
X133000Y291000D03*
X133000Y266000D03*
X161000Y266000D03*
D22*
X193300Y136190D02*
X193300Y89690D01*
X193300Y136190D02*
X198300Y136190D01*
X198300Y89690D01*
X193300Y89690D01*
X193300Y94440D02*
X198300Y94440D01*
X198300Y99190D02*
X193300Y99190D01*
X193300Y103940D02*
X198300Y103940D01*
X198300Y108690D02*
X193300Y108690D01*
X193300Y113440D02*
X198300Y113440D01*
X198300Y118190D02*
X193300Y118190D01*
X193300Y122940D02*
X198300Y122940D01*
X198300Y127690D02*
X193300Y127690D01*
X193300Y132440D02*
X198300Y132440D01*
X193300Y69560D02*
X193300Y24560D01*
X193300Y69560D02*
X198300Y69560D01*
X198300Y24560D01*
X193300Y24560D01*
X193300Y29310D02*
X198300Y29310D01*
X198300Y34060D02*
X193300Y34060D01*
X193300Y38810D02*
X198300Y38810D01*
X198300Y43560D02*
X193300Y43560D01*
X193300Y48310D02*
X198300Y48310D01*
X198300Y53060D02*
X193300Y53060D01*
X193300Y57810D02*
X198300Y57810D01*
X198300Y62560D02*
X193300Y62560D01*
X193300Y67310D02*
X198300Y67310D01*
X167900Y90440D02*
X167900Y135440D01*
X172900Y135440D01*
X172900Y90440D01*
X167900Y90440D01*
X167900Y95190D02*
X172900Y95190D01*
X172900Y99940D02*
X167900Y99940D01*
X167900Y104690D02*
X172900Y104690D01*
X172900Y109440D02*
X167900Y109440D01*
X167900Y114190D02*
X172900Y114190D01*
X172900Y118940D02*
X167900Y118940D01*
X167900Y123690D02*
X172900Y123690D01*
X172900Y128440D02*
X167900Y128440D01*
X167900Y133190D02*
X172900Y133190D01*
X167900Y69560D02*
X167900Y24560D01*
X167900Y69560D02*
X172900Y69560D01*
X172900Y24560D01*
X167900Y24560D01*
X167900Y29310D02*
X172900Y29310D01*
X172900Y34060D02*
X167900Y34060D01*
X167900Y38810D02*
X172900Y38810D01*
X172900Y43560D02*
X167900Y43560D01*
X167900Y48310D02*
X172900Y48310D01*
X172900Y53060D02*
X167900Y53060D01*
X167900Y57810D02*
X172900Y57810D01*
X172900Y62560D02*
X167900Y62560D01*
X167900Y67310D02*
X172900Y67310D01*
X142500Y90440D02*
X142500Y135440D01*
X147500Y135440D01*
X147500Y90440D01*
X142500Y90440D01*
X142500Y95190D02*
X147500Y95190D01*
X147500Y99940D02*
X142500Y99940D01*
X142500Y104690D02*
X147500Y104690D01*
X147500Y109440D02*
X142500Y109440D01*
X142500Y114190D02*
X147500Y114190D01*
X147500Y118940D02*
X142500Y118940D01*
X142500Y123690D02*
X147500Y123690D01*
X147500Y128440D02*
X142500Y128440D01*
X142500Y133190D02*
X147500Y133190D01*
X142500Y69560D02*
X142500Y24560D01*
X142500Y69560D02*
X147500Y69560D01*
X147500Y24560D01*
X142500Y24560D01*
X142500Y29310D02*
X147500Y29310D01*
X147500Y34060D02*
X142500Y34060D01*
X142500Y38810D02*
X147500Y38810D01*
X147500Y43560D02*
X142500Y43560D01*
X142500Y48310D02*
X147500Y48310D01*
X147500Y53060D02*
X142500Y53060D01*
X142500Y57810D02*
X147500Y57810D01*
X147500Y62560D02*
X142500Y62560D01*
X142500Y67310D02*
X147500Y67310D01*
X117100Y90440D02*
X117100Y135440D01*
X122100Y135440D01*
X122100Y90440D01*
X117100Y90440D01*
X117100Y95190D02*
X122100Y95190D01*
X122100Y99940D02*
X117100Y99940D01*
X117100Y104690D02*
X122100Y104690D01*
X122100Y109440D02*
X117100Y109440D01*
X117100Y114190D02*
X122100Y114190D01*
X122100Y118940D02*
X117100Y118940D01*
X117100Y123690D02*
X122100Y123690D01*
X122100Y128440D02*
X117100Y128440D01*
X117100Y133190D02*
X122100Y133190D01*
X117100Y69560D02*
X117100Y24560D01*
X117100Y69560D02*
X122100Y69560D01*
X122100Y24560D01*
X117100Y24560D01*
X117100Y29310D02*
X122100Y29310D01*
X122100Y34060D02*
X117100Y34060D01*
X117100Y38810D02*
X122100Y38810D01*
X122100Y43560D02*
X117100Y43560D01*
X117100Y48310D02*
X122100Y48310D01*
X122100Y53060D02*
X117100Y53060D01*
X117100Y57810D02*
X122100Y57810D01*
X122100Y62560D02*
X117100Y62560D01*
X117100Y67310D02*
X122100Y67310D01*
X91700Y90440D02*
X91700Y135440D01*
X96700Y135440D01*
X96700Y90440D01*
X91700Y90440D01*
X91700Y95190D02*
X96700Y95190D01*
X96700Y99940D02*
X91700Y99940D01*
X91700Y104690D02*
X96700Y104690D01*
X96700Y109440D02*
X91700Y109440D01*
X91700Y114190D02*
X96700Y114190D01*
X96700Y118940D02*
X91700Y118940D01*
X91700Y123690D02*
X96700Y123690D01*
X96700Y128440D02*
X91700Y128440D01*
X91700Y133190D02*
X96700Y133190D01*
X91700Y69560D02*
X91700Y24560D01*
X91700Y69560D02*
X96700Y69560D01*
X96700Y24560D01*
X91700Y24560D01*
X91700Y29310D02*
X96700Y29310D01*
X96700Y34060D02*
X91700Y34060D01*
X91700Y38810D02*
X96700Y38810D01*
X96700Y43560D02*
X91700Y43560D01*
X91700Y48310D02*
X96700Y48310D01*
X96700Y53060D02*
X91700Y53060D01*
X91700Y57810D02*
X96700Y57810D01*
X96700Y62560D02*
X91700Y62560D01*
X91700Y67310D02*
X96700Y67310D01*
D20*
X178000Y330950D03*
X178000Y343550D03*
X178000Y356250D03*
X178000Y368950D03*
X122000Y330950D03*
X122000Y343650D03*
X122000Y356350D03*
X122000Y369050D03*
D21*
X150000Y350000D03*
D10*
X100000Y344000D03*
X100000Y316000D03*
D11*
X116000Y390000D03*
X144000Y390000D03*
X244000Y390000D03*
X216000Y390000D03*
X216000Y365000D03*
X244000Y365000D03*
D23*
X285000Y80780D03*
X285000Y109220D03*
D10*
X285000Y54000D03*
X285000Y26000D03*
D11*
X371000Y360000D03*
X399000Y360000D03*
D24*
X328000Y253500D03*
X328000Y212500D03*
X312000Y253500D03*
X312000Y212500D03*
D23*
X260000Y80780D03*
X260000Y109220D03*
D10*
X260000Y54000D03*
X260000Y26000D03*
D25*
X209113Y175491D02*
X218622Y185000D01*
X219789Y183833D01*
X210280Y174324D01*
X209113Y175491D01*
X209758Y174846D02*
X210802Y174846D01*
X211324Y175368D02*
X209236Y175368D01*
X209512Y175890D02*
X211846Y175890D01*
X212368Y176412D02*
X210034Y176412D01*
X210556Y176934D02*
X212890Y176934D01*
X213412Y177456D02*
X211078Y177456D01*
X211600Y177978D02*
X213934Y177978D01*
X214456Y178500D02*
X212122Y178500D01*
X212644Y179022D02*
X214978Y179022D01*
X215500Y179544D02*
X213166Y179544D01*
X213688Y180066D02*
X216022Y180066D01*
X216544Y180588D02*
X214210Y180588D01*
X214732Y181110D02*
X217066Y181110D01*
X217588Y181632D02*
X215254Y181632D01*
X215776Y182154D02*
X218110Y182154D01*
X218632Y182676D02*
X216298Y182676D01*
X216820Y183198D02*
X219154Y183198D01*
X219676Y183720D02*
X217342Y183720D01*
X217864Y184242D02*
X219380Y184242D01*
X218858Y184764D02*
X218386Y184764D01*
X214025Y189596D02*
X204516Y180087D01*
X214025Y189596D02*
X215192Y188429D01*
X205683Y178920D01*
X204516Y180087D01*
X205161Y179442D02*
X206205Y179442D01*
X206727Y179964D02*
X204639Y179964D01*
X204915Y180486D02*
X207249Y180486D01*
X207771Y181008D02*
X205437Y181008D01*
X205959Y181530D02*
X208293Y181530D01*
X208815Y182052D02*
X206481Y182052D01*
X207003Y182574D02*
X209337Y182574D01*
X209859Y183096D02*
X207525Y183096D01*
X208047Y183618D02*
X210381Y183618D01*
X210903Y184140D02*
X208569Y184140D01*
X209091Y184662D02*
X211425Y184662D01*
X211947Y185184D02*
X209613Y185184D01*
X210135Y185706D02*
X212469Y185706D01*
X212991Y186228D02*
X210657Y186228D01*
X211179Y186750D02*
X213513Y186750D01*
X214035Y187272D02*
X211701Y187272D01*
X212223Y187794D02*
X214557Y187794D01*
X215079Y188316D02*
X212745Y188316D01*
X213267Y188838D02*
X214783Y188838D01*
X214261Y189360D02*
X213789Y189360D01*
X209429Y194192D02*
X199920Y184683D01*
X209429Y194192D02*
X210596Y193025D01*
X201087Y183516D01*
X199920Y184683D01*
X200565Y184038D02*
X201609Y184038D01*
X202131Y184560D02*
X200043Y184560D01*
X200319Y185082D02*
X202653Y185082D01*
X203175Y185604D02*
X200841Y185604D01*
X201363Y186126D02*
X203697Y186126D01*
X204219Y186648D02*
X201885Y186648D01*
X202407Y187170D02*
X204741Y187170D01*
X205263Y187692D02*
X202929Y187692D01*
X203451Y188214D02*
X205785Y188214D01*
X206307Y188736D02*
X203973Y188736D01*
X204495Y189258D02*
X206829Y189258D01*
X207351Y189780D02*
X205017Y189780D01*
X205539Y190302D02*
X207873Y190302D01*
X208395Y190824D02*
X206061Y190824D01*
X206583Y191346D02*
X208917Y191346D01*
X209439Y191868D02*
X207105Y191868D01*
X207627Y192390D02*
X209961Y192390D01*
X210483Y192912D02*
X208149Y192912D01*
X208671Y193434D02*
X210187Y193434D01*
X209665Y193956D02*
X209193Y193956D01*
X204833Y198789D02*
X195324Y189280D01*
X204833Y198789D02*
X206000Y197622D01*
X196491Y188113D01*
X195324Y189280D01*
X195969Y188635D02*
X197013Y188635D01*
X197535Y189157D02*
X195447Y189157D01*
X195723Y189679D02*
X198057Y189679D01*
X198579Y190201D02*
X196245Y190201D01*
X196767Y190723D02*
X199101Y190723D01*
X199623Y191245D02*
X197289Y191245D01*
X197811Y191767D02*
X200145Y191767D01*
X200667Y192289D02*
X198333Y192289D01*
X198855Y192811D02*
X201189Y192811D01*
X201711Y193333D02*
X199377Y193333D01*
X199899Y193855D02*
X202233Y193855D01*
X202755Y194377D02*
X200421Y194377D01*
X200943Y194899D02*
X203277Y194899D01*
X203799Y195421D02*
X201465Y195421D01*
X201987Y195943D02*
X204321Y195943D01*
X204843Y196465D02*
X202509Y196465D01*
X203031Y196987D02*
X205365Y196987D01*
X205887Y197509D02*
X203553Y197509D01*
X204075Y198031D02*
X205591Y198031D01*
X205069Y198553D02*
X204597Y198553D01*
X173720Y167676D02*
X164211Y158167D01*
X173720Y167676D02*
X174887Y166509D01*
X165378Y157000D01*
X164211Y158167D01*
X164856Y157522D02*
X165900Y157522D01*
X166422Y158044D02*
X164334Y158044D01*
X164610Y158566D02*
X166944Y158566D01*
X167466Y159088D02*
X165132Y159088D01*
X165654Y159610D02*
X167988Y159610D01*
X168510Y160132D02*
X166176Y160132D01*
X166698Y160654D02*
X169032Y160654D01*
X169554Y161176D02*
X167220Y161176D01*
X167742Y161698D02*
X170076Y161698D01*
X170598Y162220D02*
X168264Y162220D01*
X168786Y162742D02*
X171120Y162742D01*
X171642Y163264D02*
X169308Y163264D01*
X169830Y163786D02*
X172164Y163786D01*
X172686Y164308D02*
X170352Y164308D01*
X170874Y164830D02*
X173208Y164830D01*
X173730Y165352D02*
X171396Y165352D01*
X171918Y165874D02*
X174252Y165874D01*
X174774Y166396D02*
X172440Y166396D01*
X172962Y166918D02*
X174478Y166918D01*
X173956Y167440D02*
X173484Y167440D01*
X178317Y163080D02*
X168808Y153571D01*
X178317Y163080D02*
X179484Y161913D01*
X169975Y152404D01*
X168808Y153571D01*
X169453Y152926D02*
X170497Y152926D01*
X171019Y153448D02*
X168931Y153448D01*
X169207Y153970D02*
X171541Y153970D01*
X172063Y154492D02*
X169729Y154492D01*
X170251Y155014D02*
X172585Y155014D01*
X173107Y155536D02*
X170773Y155536D01*
X171295Y156058D02*
X173629Y156058D01*
X174151Y156580D02*
X171817Y156580D01*
X172339Y157102D02*
X174673Y157102D01*
X175195Y157624D02*
X172861Y157624D01*
X173383Y158146D02*
X175717Y158146D01*
X176239Y158668D02*
X173905Y158668D01*
X174427Y159190D02*
X176761Y159190D01*
X177283Y159712D02*
X174949Y159712D01*
X175471Y160234D02*
X177805Y160234D01*
X178327Y160756D02*
X175993Y160756D01*
X176515Y161278D02*
X178849Y161278D01*
X179371Y161800D02*
X177037Y161800D01*
X177559Y162322D02*
X179075Y162322D01*
X178553Y162844D02*
X178081Y162844D01*
X182913Y158484D02*
X173404Y148975D01*
X182913Y158484D02*
X184080Y157317D01*
X174571Y147808D01*
X173404Y148975D01*
X174049Y148330D02*
X175093Y148330D01*
X175615Y148852D02*
X173527Y148852D01*
X173803Y149374D02*
X176137Y149374D01*
X176659Y149896D02*
X174325Y149896D01*
X174847Y150418D02*
X177181Y150418D01*
X177703Y150940D02*
X175369Y150940D01*
X175891Y151462D02*
X178225Y151462D01*
X178747Y151984D02*
X176413Y151984D01*
X176935Y152506D02*
X179269Y152506D01*
X179791Y153028D02*
X177457Y153028D01*
X177979Y153550D02*
X180313Y153550D01*
X180835Y154072D02*
X178501Y154072D01*
X179023Y154594D02*
X181357Y154594D01*
X181879Y155116D02*
X179545Y155116D01*
X180067Y155638D02*
X182401Y155638D01*
X182923Y156160D02*
X180589Y156160D01*
X181111Y156682D02*
X183445Y156682D01*
X183967Y157204D02*
X181633Y157204D01*
X182155Y157726D02*
X183671Y157726D01*
X183149Y158248D02*
X182677Y158248D01*
X187509Y153887D02*
X178000Y144378D01*
X187509Y153887D02*
X188676Y152720D01*
X179167Y143211D01*
X178000Y144378D01*
X178645Y143733D02*
X179689Y143733D01*
X180211Y144255D02*
X178123Y144255D01*
X178399Y144777D02*
X180733Y144777D01*
X181255Y145299D02*
X178921Y145299D01*
X179443Y145821D02*
X181777Y145821D01*
X182299Y146343D02*
X179965Y146343D01*
X180487Y146865D02*
X182821Y146865D01*
X183343Y147387D02*
X181009Y147387D01*
X181531Y147909D02*
X183865Y147909D01*
X184387Y148431D02*
X182053Y148431D01*
X182575Y148953D02*
X184909Y148953D01*
X185431Y149475D02*
X183097Y149475D01*
X183619Y149997D02*
X185953Y149997D01*
X186475Y150519D02*
X184141Y150519D01*
X184663Y151041D02*
X186997Y151041D01*
X187519Y151563D02*
X185185Y151563D01*
X185707Y152085D02*
X188041Y152085D01*
X188563Y152607D02*
X186229Y152607D01*
X186751Y153129D02*
X188267Y153129D01*
X187745Y153651D02*
X187273Y153651D01*
X173113Y193491D02*
X182622Y203000D01*
X183789Y201833D01*
X174280Y192324D01*
X173113Y193491D01*
X173758Y192846D02*
X174802Y192846D01*
X175324Y193368D02*
X173236Y193368D01*
X173512Y193890D02*
X175846Y193890D01*
X176368Y194412D02*
X174034Y194412D01*
X174556Y194934D02*
X176890Y194934D01*
X177412Y195456D02*
X175078Y195456D01*
X175600Y195978D02*
X177934Y195978D01*
X178456Y196500D02*
X176122Y196500D01*
X176644Y197022D02*
X178978Y197022D01*
X179500Y197544D02*
X177166Y197544D01*
X177688Y198066D02*
X180022Y198066D01*
X180544Y198588D02*
X178210Y198588D01*
X178732Y199110D02*
X181066Y199110D01*
X181588Y199632D02*
X179254Y199632D01*
X179776Y200154D02*
X182110Y200154D01*
X182632Y200676D02*
X180298Y200676D01*
X180820Y201198D02*
X183154Y201198D01*
X183676Y201720D02*
X181342Y201720D01*
X181864Y202242D02*
X183380Y202242D01*
X182858Y202764D02*
X182386Y202764D01*
X178025Y207596D02*
X168516Y198087D01*
X178025Y207596D02*
X179192Y206429D01*
X169683Y196920D01*
X168516Y198087D01*
X169161Y197442D02*
X170205Y197442D01*
X170727Y197964D02*
X168639Y197964D01*
X168915Y198486D02*
X171249Y198486D01*
X171771Y199008D02*
X169437Y199008D01*
X169959Y199530D02*
X172293Y199530D01*
X172815Y200052D02*
X170481Y200052D01*
X171003Y200574D02*
X173337Y200574D01*
X173859Y201096D02*
X171525Y201096D01*
X172047Y201618D02*
X174381Y201618D01*
X174903Y202140D02*
X172569Y202140D01*
X173091Y202662D02*
X175425Y202662D01*
X175947Y203184D02*
X173613Y203184D01*
X174135Y203706D02*
X176469Y203706D01*
X176991Y204228D02*
X174657Y204228D01*
X175179Y204750D02*
X177513Y204750D01*
X178035Y205272D02*
X175701Y205272D01*
X176223Y205794D02*
X178557Y205794D01*
X179079Y206316D02*
X176745Y206316D01*
X177267Y206838D02*
X178783Y206838D01*
X178261Y207360D02*
X177789Y207360D01*
X173429Y212192D02*
X163920Y202683D01*
X173429Y212192D02*
X174596Y211025D01*
X165087Y201516D01*
X163920Y202683D01*
X164565Y202038D02*
X165609Y202038D01*
X166131Y202560D02*
X164043Y202560D01*
X164319Y203082D02*
X166653Y203082D01*
X167175Y203604D02*
X164841Y203604D01*
X165363Y204126D02*
X167697Y204126D01*
X168219Y204648D02*
X165885Y204648D01*
X166407Y205170D02*
X168741Y205170D01*
X169263Y205692D02*
X166929Y205692D01*
X167451Y206214D02*
X169785Y206214D01*
X170307Y206736D02*
X167973Y206736D01*
X168495Y207258D02*
X170829Y207258D01*
X171351Y207780D02*
X169017Y207780D01*
X169539Y208302D02*
X171873Y208302D01*
X172395Y208824D02*
X170061Y208824D01*
X170583Y209346D02*
X172917Y209346D01*
X173439Y209868D02*
X171105Y209868D01*
X171627Y210390D02*
X173961Y210390D01*
X174483Y210912D02*
X172149Y210912D01*
X172671Y211434D02*
X174187Y211434D01*
X173665Y211956D02*
X173193Y211956D01*
X168833Y216789D02*
X159324Y207280D01*
X168833Y216789D02*
X170000Y215622D01*
X160491Y206113D01*
X159324Y207280D01*
X159969Y206635D02*
X161013Y206635D01*
X161535Y207157D02*
X159447Y207157D01*
X159723Y207679D02*
X162057Y207679D01*
X162579Y208201D02*
X160245Y208201D01*
X160767Y208723D02*
X163101Y208723D01*
X163623Y209245D02*
X161289Y209245D01*
X161811Y209767D02*
X164145Y209767D01*
X164667Y210289D02*
X162333Y210289D01*
X162855Y210811D02*
X165189Y210811D01*
X165711Y211333D02*
X163377Y211333D01*
X163899Y211855D02*
X166233Y211855D01*
X166755Y212377D02*
X164421Y212377D01*
X164943Y212899D02*
X167277Y212899D01*
X167799Y213421D02*
X165465Y213421D01*
X165987Y213943D02*
X168321Y213943D01*
X168843Y214465D02*
X166509Y214465D01*
X167031Y214987D02*
X169365Y214987D01*
X169887Y215509D02*
X167553Y215509D01*
X168075Y216031D02*
X169591Y216031D01*
X169069Y216553D02*
X168597Y216553D01*
X137720Y185676D02*
X128211Y176167D01*
X137720Y185676D02*
X138887Y184509D01*
X129378Y175000D01*
X128211Y176167D01*
X128856Y175522D02*
X129900Y175522D01*
X130422Y176044D02*
X128334Y176044D01*
X128610Y176566D02*
X130944Y176566D01*
X131466Y177088D02*
X129132Y177088D01*
X129654Y177610D02*
X131988Y177610D01*
X132510Y178132D02*
X130176Y178132D01*
X130698Y178654D02*
X133032Y178654D01*
X133554Y179176D02*
X131220Y179176D01*
X131742Y179698D02*
X134076Y179698D01*
X134598Y180220D02*
X132264Y180220D01*
X132786Y180742D02*
X135120Y180742D01*
X135642Y181264D02*
X133308Y181264D01*
X133830Y181786D02*
X136164Y181786D01*
X136686Y182308D02*
X134352Y182308D01*
X134874Y182830D02*
X137208Y182830D01*
X137730Y183352D02*
X135396Y183352D01*
X135918Y183874D02*
X138252Y183874D01*
X138774Y184396D02*
X136440Y184396D01*
X136962Y184918D02*
X138478Y184918D01*
X137956Y185440D02*
X137484Y185440D01*
X142317Y181080D02*
X132808Y171571D01*
X142317Y181080D02*
X143484Y179913D01*
X133975Y170404D01*
X132808Y171571D01*
X133453Y170926D02*
X134497Y170926D01*
X135019Y171448D02*
X132931Y171448D01*
X133207Y171970D02*
X135541Y171970D01*
X136063Y172492D02*
X133729Y172492D01*
X134251Y173014D02*
X136585Y173014D01*
X137107Y173536D02*
X134773Y173536D01*
X135295Y174058D02*
X137629Y174058D01*
X138151Y174580D02*
X135817Y174580D01*
X136339Y175102D02*
X138673Y175102D01*
X139195Y175624D02*
X136861Y175624D01*
X137383Y176146D02*
X139717Y176146D01*
X140239Y176668D02*
X137905Y176668D01*
X138427Y177190D02*
X140761Y177190D01*
X141283Y177712D02*
X138949Y177712D01*
X139471Y178234D02*
X141805Y178234D01*
X142327Y178756D02*
X139993Y178756D01*
X140515Y179278D02*
X142849Y179278D01*
X143371Y179800D02*
X141037Y179800D01*
X141559Y180322D02*
X143075Y180322D01*
X142553Y180844D02*
X142081Y180844D01*
X146913Y176484D02*
X137404Y166975D01*
X146913Y176484D02*
X148080Y175317D01*
X138571Y165808D01*
X137404Y166975D01*
X138049Y166330D02*
X139093Y166330D01*
X139615Y166852D02*
X137527Y166852D01*
X137803Y167374D02*
X140137Y167374D01*
X140659Y167896D02*
X138325Y167896D01*
X138847Y168418D02*
X141181Y168418D01*
X141703Y168940D02*
X139369Y168940D01*
X139891Y169462D02*
X142225Y169462D01*
X142747Y169984D02*
X140413Y169984D01*
X140935Y170506D02*
X143269Y170506D01*
X143791Y171028D02*
X141457Y171028D01*
X141979Y171550D02*
X144313Y171550D01*
X144835Y172072D02*
X142501Y172072D01*
X143023Y172594D02*
X145357Y172594D01*
X145879Y173116D02*
X143545Y173116D01*
X144067Y173638D02*
X146401Y173638D01*
X146923Y174160D02*
X144589Y174160D01*
X145111Y174682D02*
X147445Y174682D01*
X147967Y175204D02*
X145633Y175204D01*
X146155Y175726D02*
X147671Y175726D01*
X147149Y176248D02*
X146677Y176248D01*
X151509Y171887D02*
X142000Y162378D01*
X151509Y171887D02*
X152676Y170720D01*
X143167Y161211D01*
X142000Y162378D01*
X142645Y161733D02*
X143689Y161733D01*
X144211Y162255D02*
X142123Y162255D01*
X142399Y162777D02*
X144733Y162777D01*
X145255Y163299D02*
X142921Y163299D01*
X143443Y163821D02*
X145777Y163821D01*
X146299Y164343D02*
X143965Y164343D01*
X144487Y164865D02*
X146821Y164865D01*
X147343Y165387D02*
X145009Y165387D01*
X145531Y165909D02*
X147865Y165909D01*
X148387Y166431D02*
X146053Y166431D01*
X146575Y166953D02*
X148909Y166953D01*
X149431Y167475D02*
X147097Y167475D01*
X147619Y167997D02*
X149953Y167997D01*
X150475Y168519D02*
X148141Y168519D01*
X148663Y169041D02*
X150997Y169041D01*
X151519Y169563D02*
X149185Y169563D01*
X149707Y170085D02*
X152041Y170085D01*
X152563Y170607D02*
X150229Y170607D01*
X150751Y171129D02*
X152267Y171129D01*
X151745Y171651D02*
X151273Y171651D01*
D11*
G36*
X233121Y152394D02*
X221808Y141081D01*
X209081Y153808D01*
X220394Y165121D01*
X233121Y152394D01*
G37*
G36*
X252919Y172192D02*
X241606Y160879D01*
X228879Y173606D01*
X240192Y184919D01*
X252919Y172192D01*
G37*
D10*
X315000Y96000D03*
X315000Y124000D03*
M02*
